<svg width="175" height="175" viewBox="0 0 175 175" fill="none" xmlns="http://www.w3.org/2000/svg">
<g opacity="0.5">
<path d="M82.2573 1.84225L82.6076 6.33934L81.3088 6.44049C80.9516 6.46831 80.6472 6.44029 80.3957 6.35643C80.1446 6.27799 79.9357 6.14726 79.769 5.96424C79.5973 5.78705 79.4682 5.56299 79.3818 5.29205C79.2904 5.02695 79.2312 4.72122 79.2042 4.37488C79.1764 4.0177 79.1905 3.709 79.2464 3.44875C79.2974 3.19433 79.3732 2.97882 79.4737 2.8022C79.5743 2.62559 79.6939 2.48289 79.8324 2.3741C79.9655 2.26573 80.103 2.1788 80.2449 2.11331C80.3872 2.05322 80.5227 2.01 80.6513 1.98365C80.7804 1.96272 80.8882 1.94887 80.9748 1.94213L82.2573 1.84225ZM83.4293 6.92869L82.9779 1.13279L80.9891 1.28767C80.5075 1.32518 80.0961 1.42528 79.7548 1.58797C79.4136 1.75065 79.1393 1.96802 78.9318 2.24007C78.7247 2.51753 78.5816 2.84718 78.5025 3.22902C78.4237 3.61626 78.4033 4.05341 78.4413 4.54046C78.5138 5.47127 78.8085 6.14521 79.3256 6.56228C79.8426 6.97935 80.5476 7.15311 81.4405 7.08357L83.4293 6.92869Z" fill="white"/>
<path d="M70.639 4.83468L71.2881 8.49029L72.0497 8.35505L71.4006 4.69945C71.3095 4.18638 71.3685 3.77346 71.5775 3.46068C71.7822 3.1542 72.1278 2.95778 72.6141 2.87142C73.1272 2.78031 73.5432 2.84149 73.8623 3.05497C74.1823 3.27379 74.3879 3.63974 74.479 4.15281L75.1281 7.80841L75.8897 7.67317L75.2406 4.01757C75.1049 3.25331 74.7999 2.73136 74.3258 2.4517C73.8472 2.17833 73.2392 2.10713 72.5016 2.2381C71.7801 2.36622 71.2566 2.64663 70.931 3.07933C70.6063 3.51738 70.509 4.10249 70.639 4.83468Z" fill="white"/>
<path d="M67.8754 9.28532L66.3037 3.68836L65.559 3.89747L66.2304 6.28833L64.4117 6.79902C64.2288 6.85038 64.0744 6.86273 63.9486 6.83606C63.8241 6.81462 63.7148 6.7664 63.6204 6.69142C63.5275 6.62165 63.4478 6.52846 63.3812 6.41184C63.3161 6.30045 63.254 6.17976 63.195 6.04975C63.1307 5.92121 63.0761 5.78713 63.0313 5.6475C62.9864 5.50787 62.9438 5.37607 62.9033 5.25212C62.8643 5.13339 62.8231 5.02658 62.7795 4.93169C62.7307 4.83827 62.6721 4.77015 62.6037 4.72734L61.7728 4.96067C61.8776 5.03273 61.9678 5.12298 62.0434 5.23144C62.1152 5.34659 62.1806 5.46916 62.2396 5.59917C62.2987 5.72917 62.3507 5.86399 62.3955 6.00362C62.4404 6.14325 62.4871 6.27954 62.5357 6.41248C62.5895 6.54395 62.6497 6.668 62.7163 6.78461C62.7776 6.9027 62.8536 7.00258 62.9442 7.08426C63.031 7.17264 63.137 7.23873 63.2621 7.28255C63.3819 7.32783 63.5272 7.3434 63.698 7.32926L63.7024 7.34494C63.3892 7.53439 63.1927 7.77843 63.1131 8.07706C63.0282 8.37716 63.0334 8.69705 63.1288 9.03673C63.2565 9.49139 63.5086 9.80681 63.8851 9.98299C64.2563 10.1606 64.7085 10.1746 65.2415 10.0249L67.8754 9.28532ZM64.8544 7.35129L66.4065 6.91544L66.9546 8.86733L65.1046 9.38682C64.7545 9.48514 64.4761 9.46747 64.2694 9.33382C64.0627 9.20016 63.9198 8.99223 63.8405 8.71003C63.7833 8.50622 63.7729 8.32872 63.8094 8.17753C63.8421 8.03303 63.9075 7.90471 64.0057 7.79256C64.1002 7.68712 64.2221 7.59932 64.3715 7.52916C64.521 7.45901 64.6819 7.39972 64.8544 7.35129Z" fill="white"/>
<path d="M58.4218 8.68613L58.4798 11.5703L58.4646 11.5762L56.5838 9.39611L58.4218 8.68613ZM59.1118 12.0768L59.1285 5.83826L58.3918 6.12284L58.415 7.9905L56.1212 8.87651L54.898 7.47239L54.1006 7.78044L58.3143 12.3848L59.1118 12.0768Z" fill="white"/>
<path d="M51.7286 12.5197L52.5549 14.173L51.1711 14.8646C51.0206 14.9398 50.8749 15.0005 50.7341 15.0466C50.5909 15.0999 50.4538 15.123 50.3227 15.1157C50.1916 15.1084 50.0702 15.0659 49.9586 14.9882C49.8469 14.9105 49.745 14.7794 49.6528 14.5948C49.5145 14.3181 49.4975 14.0656 49.6019 13.8375C49.7039 13.6166 49.9516 13.4079 50.3449 13.2113L51.7286 12.5197ZM53.538 14.4098L50.9391 9.20966L48.4264 10.4655C48.1691 10.5941 47.9639 10.7482 47.8109 10.9278C47.6555 11.1147 47.5463 11.3089 47.4831 11.5103C47.4175 11.7191 47.3957 11.9303 47.4175 12.1439C47.4393 12.3575 47.4975 12.559 47.5921 12.7484C47.7523 13.0688 47.9732 13.2983 48.2547 13.4367C48.5363 13.5751 48.8543 13.5982 49.2087 13.506L49.216 13.5206C49.0169 13.7415 48.9016 13.9842 48.87 14.2488C48.8359 14.5207 48.8881 14.795 49.0264 15.0717C49.1574 15.3339 49.3285 15.5245 49.5397 15.6435C49.746 15.7649 49.9596 15.8341 50.1805 15.8512C50.2825 15.8609 50.3954 15.85 50.5192 15.8185C50.6381 15.7894 50.7632 15.7481 50.8942 15.6947C51.0278 15.6462 51.1601 15.5892 51.2912 15.5237C51.4198 15.4654 51.54 15.4084 51.6517 15.3526L53.538 14.4098ZM50.5384 10.1381L51.4374 11.937L49.857 12.7269C49.7113 12.7997 49.5633 12.8555 49.4127 12.8943C49.2647 12.938 49.1227 12.9513 48.9867 12.9343C48.8483 12.9246 48.7197 12.8797 48.6008 12.7995C48.4818 12.7194 48.3799 12.5944 48.295 12.4244C48.1494 12.1331 48.1227 11.8612 48.215 11.6088C48.3024 11.3588 48.4991 11.1573 48.805 11.0044L50.5384 10.1381Z" fill="white"/>
<path d="M46.7144 18.0449L43.7287 13.0567L43.065 13.454L46.0507 18.4421L46.7144 18.0449Z" fill="white"/>
<path d="M42.9106 20.4265L39.5855 15.6579L36.4264 17.8608L36.799 18.3951L39.3236 16.6347L42.2762 20.8689L42.9106 20.4265Z" fill="white"/>
<path d="M37.5205 24.3882L33.8719 19.8623L33.2697 20.3478L36.9183 24.8737L37.5205 24.3882Z" fill="white"/>
<path d="M32.6813 27.6856L29.158 23.9128L28.5927 24.4407L32.1159 28.2135L30.6997 29.5361L31.1442 30.0122L34.5421 26.8391L34.0975 26.363L32.6813 27.6856Z" fill="white"/>
<path d="M29.0003 32.2305L24.6724 28.3491L21.9761 31.3556L22.461 31.7905L24.6409 29.3598L26.1381 30.7025L24.1213 32.9513L24.6062 33.3862L26.623 31.1374L27.999 32.3714L25.8354 34.7839L26.3203 35.2188L29.0003 32.2305ZM28.2692 35.6432L28.0537 33.9079L28.4017 33.52L28.8618 34.9825L28.2692 35.6432Z" fill="white"/>
<path d="M19.0998 39.3536L18.5604 38.9884L17.2413 40.937L17.7807 41.3021L19.0998 39.3536Z" fill="white"/>
<path d="M11.4177 48.4059L15.4675 50.3921L14.8939 51.5617C14.7361 51.8834 14.5572 52.1312 14.357 52.3051C14.1617 52.4813 13.9429 52.5947 13.7005 52.6451C13.4607 52.7028 13.2021 52.6999 12.9249 52.6365C12.6501 52.5803 12.3568 52.4758 12.0449 52.3228C11.7232 52.165 11.4646 51.9959 11.269 51.8153C11.0759 51.642 10.9289 51.4671 10.828 51.2907C10.7272 51.1143 10.6651 50.9387 10.6419 50.7641C10.6164 50.5944 10.6115 50.4318 10.6273 50.2763C10.6479 50.1232 10.6796 49.9846 10.7224 49.8605C10.77 49.7387 10.8129 49.6389 10.8512 49.5609L11.4177 48.4059ZM16.3929 49.9845L11.1734 47.4246L10.295 49.2156C10.0823 49.6493 9.95919 50.0545 9.92567 50.431C9.89214 50.8075 9.93971 51.1543 10.0684 51.4713C10.2019 51.7907 10.4129 52.0816 10.7014 52.344C10.9947 52.6088 11.3607 52.8488 11.7993 53.0639C12.6376 53.475 13.3677 53.5641 13.9898 53.3311C14.6119 53.0981 15.1202 52.5796 15.5145 51.7755L16.3929 49.9845Z" fill="white"/>
<path d="M8.08346 59.9305L11.5609 61.2314L11.8319 60.5069L8.35446 59.2061C7.8664 59.0235 7.54091 58.7627 7.37799 58.4235C7.21826 58.0914 7.22493 57.694 7.39799 57.2314C7.58056 56.7433 7.8449 56.4162 8.191 56.2501C8.54219 56.0859 8.96182 56.0951 9.44989 56.2777L12.9273 57.5785L13.1983 56.854L9.72089 55.5532C8.99388 55.2813 8.38938 55.2783 7.9074 55.5442C7.4286 55.8171 7.05798 56.3044 6.79553 57.006C6.53879 57.6923 6.51387 58.2857 6.72075 58.7862C6.93271 59.2885 7.38695 59.67 8.08346 59.9305Z" fill="white"/>
<path d="M10.5094 64.5745L4.89129 63.0803L4.69248 63.8278L7.0924 64.4661L6.60689 66.2916C6.55807 66.4752 6.49015 66.6144 6.40315 66.7092C6.3214 66.8054 6.22424 66.8751 6.11168 66.9181C6.00437 66.9626 5.88358 66.9838 5.74931 66.9818C5.62029 66.9812 5.48479 66.9733 5.34282 66.958C5.19946 66.9479 5.05626 66.9267 4.91323 66.8943C4.7702 66.8619 4.63504 66.8315 4.50775 66.8033C4.3857 66.7765 4.27275 66.7576 4.1689 66.7469C4.06365 66.7414 3.9752 66.7571 3.90354 66.7943L3.68172 67.6283C3.79707 67.5747 3.92065 67.543 4.05246 67.5331C4.18813 67.5299 4.32694 67.5359 4.46891 67.5512C4.61088 67.5665 4.75338 67.5904 4.89641 67.6228C5.03944 67.6552 5.18054 67.6843 5.31972 67.7101C5.46029 67.7306 5.59771 67.7419 5.73198 67.7439C5.86485 67.7512 5.9895 67.7366 6.10591 67.7001C6.22617 67.6703 6.33697 67.6127 6.43831 67.5274C6.53826 67.4472 6.62559 67.33 6.70031 67.1758L6.71605 67.18C6.71979 67.5461 6.82995 67.8393 7.04653 68.0598C7.26172 68.2856 7.5398 68.4438 7.88077 68.5344C8.33715 68.6558 8.73694 68.5993 9.08014 68.3648C9.42195 68.1355 9.664 67.7534 9.8063 67.2183L10.5094 64.5745ZM7.30753 66.1915L7.72188 64.6335L9.68115 65.1546L9.18728 67.0115C9.09381 67.363 8.93697 67.5937 8.71676 67.7036C8.49655 67.8136 8.24481 67.8309 7.96155 67.7555C7.75696 67.7011 7.59887 67.6198 7.48726 67.5115C7.37949 67.4098 7.30232 67.2881 7.25572 67.1466C7.21297 67.0116 7.19941 66.862 7.21503 66.6976C7.23066 66.5333 7.26149 66.3646 7.30753 66.1915Z" fill="white"/>
<path d="M5.18381 72.4081L7.69637 73.8255L7.69369 73.8415L4.86002 74.3517L5.18381 72.4081ZM8.45397 73.539L3.09152 70.3509L2.96173 71.1299L4.58144 72.0601L4.17736 74.4856L2.34625 74.8244L2.20576 75.6677L8.31348 74.3823L8.45397 73.539Z" fill="white"/>
<path d="M5.07988 80.1205L6.92357 80.2502L6.81503 81.7934C6.80322 81.9612 6.78135 82.1175 6.7494 82.2621C6.7225 82.4126 6.67255 82.5424 6.59958 82.6516C6.52661 82.7607 6.42827 82.8436 6.30458 82.9002C6.18089 82.9568 6.01616 82.9778 5.8104 82.9633C5.50177 82.9416 5.27579 82.8278 5.13248 82.6218C4.99419 82.4216 4.94048 82.1023 4.97133 81.6637L5.07988 80.1205ZM7.62761 79.5243L1.82849 79.1164L1.63139 81.9185C1.6112 82.2055 1.63952 82.4605 1.71633 82.6835C1.79818 82.9124 1.90977 83.1052 2.0511 83.2621C2.19746 83.4248 2.36815 83.551 2.56316 83.6409C2.75817 83.7308 2.96126 83.7832 3.17243 83.7981C3.5298 83.8232 3.83969 83.7498 4.10209 83.5778C4.3645 83.4058 4.54617 83.1438 4.64712 82.7917L4.66336 82.7929C4.75223 83.0766 4.90252 83.2994 5.11424 83.4612C5.33099 83.6289 5.59369 83.7235 5.90232 83.7452C6.19472 83.7658 6.44585 83.7154 6.65571 83.5942C6.8652 83.4783 7.03346 83.3296 7.16049 83.1481C7.22074 83.0653 7.26877 82.9625 7.30461 82.8399C7.34006 82.7227 7.36815 82.5941 7.38888 82.454C7.41503 82.3144 7.43324 82.1715 7.44353 82.0253C7.45884 81.8849 7.47088 81.7524 7.47964 81.6279L7.62761 79.5243ZM2.42398 79.9337L4.43011 80.0748L4.30614 81.8373C4.29472 81.9997 4.26743 82.1556 4.22428 82.3049C4.18654 82.4546 4.12577 82.5837 4.04196 82.692C3.96319 82.8062 3.85906 82.8941 3.72958 82.9557C3.60009 83.0174 3.44059 83.0415 3.25107 83.0282C2.92619 83.0053 2.67856 82.89 2.50817 82.6821C2.3374 82.4796 2.26401 82.2078 2.28801 81.8667L2.42398 79.9337Z" fill="white"/>
<path d="M7.28546 87.2485L1.47211 87.2814L1.47649 88.0549L7.28984 88.022L7.28546 87.2485Z" fill="white"/>
<path d="M7.40081 91.734L1.6038 92.1709L1.89322 96.0112L2.54275 95.9623L2.31145 92.8933L7.45894 92.5053L7.40081 91.734Z" fill="white"/>
<path d="M8.06931 98.39L2.31669 99.2287L2.42829 99.9941L8.18091 99.1554L8.06931 98.39Z" fill="white"/>
<path d="M8.44623 104.234L3.40578 105.348L3.57269 106.104L8.61315 104.99L9.03132 106.882L9.66734 106.741L8.66408 102.202L8.02806 102.342L8.44623 104.234Z" fill="white"/>
<path d="M10.4867 109.715L4.94338 111.467L6.16012 115.318L6.78122 115.121L5.79752 112.008L7.71517 111.402L8.62527 114.283L9.24637 114.086L8.33627 111.206L10.0986 110.649L11.075 113.739L11.6961 113.543L10.4867 109.715ZM13.0529 112.081L11.4493 111.384L11.2923 110.887L12.7855 111.235L13.0529 112.081Z" fill="white"/>
<path d="M11.5821 121.863L10.9934 122.141L11.9999 124.268L12.5887 123.989L11.5821 121.863Z" fill="white"/>
<path d="M15.4678 133.081L19.2381 130.605L19.9532 131.694C20.1499 131.993 20.2722 132.273 20.32 132.534C20.3725 132.792 20.3587 133.038 20.2788 133.272C20.2065 133.508 20.0724 133.729 19.8768 133.936C19.6887 134.144 19.4495 134.343 19.1591 134.534C18.8596 134.731 18.5824 134.867 18.3275 134.944C18.0801 135.022 17.8547 135.059 17.6515 135.056C17.4483 135.054 17.2656 135.018 17.1035 134.949C16.9443 134.884 16.8019 134.806 16.676 134.713C16.5547 134.618 16.4515 134.52 16.3664 134.42C16.2858 134.317 16.2217 134.229 16.174 134.157L15.4678 133.081ZM19.3579 129.601L14.4987 132.792L15.5938 134.46C15.859 134.863 16.1452 135.176 16.4523 135.396C16.7594 135.616 17.0821 135.752 17.4205 135.802C17.7635 135.85 18.1213 135.816 18.4939 135.701C18.8711 135.583 19.2639 135.39 19.6722 135.122C20.4526 134.61 20.9007 134.026 21.0166 133.372C21.1325 132.718 20.9446 132.017 20.453 131.268L19.3579 129.601Z" fill="white"/>
<path d="M23.6937 141.815L26.5826 139.483L26.0968 138.881L23.2078 141.213C22.8023 141.541 22.4122 141.688 22.0374 141.656C21.6702 141.624 21.3314 141.417 21.0212 141.032C20.6938 140.627 20.5467 140.233 20.5798 139.85C20.6171 139.464 20.8385 139.108 21.2439 138.78L24.1329 136.448L23.647 135.847L20.7581 138.179C20.1541 138.666 19.844 139.185 19.8278 139.735C19.8192 140.286 20.0501 140.853 20.5207 141.436C20.9809 142.006 21.4791 142.33 22.0152 142.406C22.5556 142.479 23.115 142.282 23.6937 141.815Z" fill="white"/>
<path d="M28.9258 142.089L24.7814 146.166L25.3238 146.717L27.0942 144.976L28.4188 146.322C28.552 146.458 28.6373 146.587 28.6747 146.71C28.7159 146.83 28.7265 146.949 28.7063 147.067C28.69 147.182 28.6468 147.297 28.5768 147.412C28.5106 147.523 28.4349 147.635 28.3495 147.75C28.2679 147.868 28.1768 147.98 28.0761 148.087C27.9754 148.194 27.8806 148.295 27.7915 148.39C27.7063 148.481 27.6326 148.569 27.5705 148.653C27.5122 148.741 27.4808 148.825 27.4763 148.905L28.0816 149.521C28.0941 149.394 28.1297 149.272 28.1882 149.153C28.2545 149.035 28.3303 148.918 28.4156 148.804C28.501 148.689 28.5941 148.579 28.6947 148.472C28.7954 148.366 28.8923 148.259 28.9853 148.152C29.0744 148.042 29.1541 147.929 29.2241 147.814C29.2979 147.704 29.3488 147.589 29.3766 147.47C29.4121 147.352 29.4189 147.227 29.397 147.096C29.3788 146.969 29.3224 146.835 29.2276 146.692L29.2392 146.68C29.5563 146.863 29.8648 146.918 30.1648 146.843C30.4686 146.773 30.7463 146.614 30.9978 146.367C31.3345 146.035 31.4892 145.663 31.4619 145.248C31.4384 144.837 31.2325 144.434 30.8443 144.039L28.9258 142.089ZM28.689 145.668L27.5585 144.519L29.0039 143.097L30.3513 144.467C30.6064 144.726 30.7252 144.979 30.7078 145.224C30.6905 145.47 30.5773 145.695 30.3683 145.901C30.2174 146.049 30.0669 146.144 29.9169 146.185C29.7745 146.226 29.6306 146.231 29.485 146.199C29.3471 146.167 29.2113 146.102 29.0778 146.005C28.9442 145.908 28.8147 145.796 28.689 145.668Z" fill="white"/>
<path d="M32.9611 150.658L35.4595 149.216L35.472 149.227L34.4697 151.926L32.9611 150.658ZM35.5983 148.418L30.1256 151.413L30.7303 151.921L32.3551 151L34.2377 152.582L33.5978 154.33L34.2524 154.88L36.2528 148.968L35.5983 148.418Z" fill="white"/>
<path d="M39.5479 154.672L40.5975 153.151L41.8708 154.029C42.0093 154.125 42.1327 154.223 42.241 154.324C42.3569 154.424 42.4432 154.533 42.5001 154.651C42.5569 154.77 42.5782 154.896 42.564 155.032C42.5498 155.167 42.4842 155.319 42.367 155.489C42.1913 155.744 41.9784 155.881 41.7281 155.899C41.4854 155.916 41.1831 155.8 40.8212 155.55L39.5479 154.672ZM40.3307 152.175L37.0294 156.96L39.3415 158.556C39.5783 158.719 39.8123 158.824 40.0434 158.872C40.2821 158.918 40.5049 158.92 40.7118 158.878C40.9263 158.834 41.1219 158.752 41.2985 158.63C41.4751 158.507 41.6235 158.359 41.7437 158.185C41.9471 157.89 42.0416 157.586 42.027 157.273C42.0124 156.959 41.8792 156.669 41.6275 156.403L41.6367 156.39C41.9263 156.458 42.1945 156.442 42.4415 156.342C42.6961 156.241 42.9112 156.062 43.0869 155.808C43.2534 155.567 43.3378 155.325 43.3401 155.082C43.347 154.843 43.3046 154.623 43.2129 154.421C43.1722 154.327 43.1082 154.233 43.0209 154.14C42.938 154.05 42.8416 153.96 42.7316 153.871C42.6246 153.778 42.5109 153.689 42.3902 153.606C42.2772 153.521 42.1692 153.444 42.0665 153.373L40.3307 152.175ZM38.0359 156.863L39.178 155.208L40.6323 156.211C40.7663 156.304 40.8867 156.407 40.9933 156.52C41.103 156.628 41.1831 156.746 41.2338 156.874C41.292 157 41.3147 157.134 41.3019 157.277C41.2891 157.42 41.2288 157.569 41.1209 157.726C40.9359 157.994 40.7106 158.148 40.445 158.189C40.1838 158.233 39.9125 158.158 39.631 157.964L38.0359 156.863Z" fill="white"/>
<path d="M46.8066 156.399L43.8776 161.421L44.5457 161.81L47.4747 156.789L46.8066 156.399Z" fill="white"/>
<path d="M50.7275 158.582L48.1546 163.795L51.6081 165.499L51.8964 164.915L49.1365 163.553L51.4211 158.924L50.7275 158.582Z" fill="white"/>
<path d="M56.798 161.393L54.5936 166.772L55.3093 167.065L57.5137 161.686L56.798 161.393Z" fill="white"/>
<path d="M62.0208 164.04L60.4157 168.947L61.1508 169.187L62.756 164.281L64.5977 164.884L64.8003 164.264L60.3816 162.819L60.1791 163.438L62.0208 164.04Z" fill="white"/>
<path d="M67.7777 165.072L66.4656 170.736L70.3999 171.647L70.5469 171.013L67.3662 170.276L67.82 168.317L70.7628 168.998L70.9098 168.364L67.9671 167.682L68.3842 165.881L71.5411 166.613L71.6881 165.978L67.7777 165.072ZM71.1198 164.066L69.7037 165.092L69.196 164.975L70.2552 163.866L71.1198 164.066Z" fill="white"/>
<path d="M78.7928 170.308L78.7331 170.957L81.0763 171.172L81.1359 170.524L78.7928 170.308Z" fill="white"/>
<path d="M90.4284 172.671L90.2145 168.165L91.5158 168.104C91.8736 168.087 92.177 168.124 92.4259 168.215C92.6745 168.301 92.8793 168.438 93.0404 168.626C93.2067 168.809 93.3289 169.036 93.4071 169.31C93.4904 169.578 93.5403 169.885 93.5568 170.232C93.5738 170.59 93.5504 170.898 93.4866 171.156C93.4279 171.409 93.3457 171.622 93.2398 171.796C93.1339 171.969 93.0101 172.108 92.8683 172.213C92.732 172.317 92.5919 172.4 92.4481 172.461C92.304 172.517 92.1673 172.556 92.0379 172.578C91.9083 172.595 91.8001 172.606 91.7134 172.61L90.4284 172.671ZM89.411 167.551L89.6866 173.358L91.6792 173.264C92.1617 173.241 92.576 173.153 92.922 173.001C93.268 172.849 93.5488 172.64 93.7644 172.374C93.9798 172.103 94.1328 171.778 94.2235 171.399C94.3139 171.014 94.3476 170.578 94.3244 170.09C94.2802 169.157 94.0059 168.475 93.5018 168.042C92.9976 167.609 92.2982 167.414 91.4036 167.457L89.411 167.551Z" fill="white"/>
<path d="M102.132 170.031L101.594 166.358L100.828 166.47L101.367 170.143C101.442 170.659 101.371 171.07 101.152 171.376C100.938 171.676 100.587 171.862 100.098 171.934C99.5827 172.009 99.1686 171.936 98.8562 171.713C98.5429 171.484 98.3485 171.112 98.273 170.597L97.7349 166.923L96.9696 167.035L97.5077 170.709C97.6202 171.477 97.9092 172.008 98.3746 172.302C98.8447 172.589 99.4503 172.679 100.191 172.57C100.917 172.464 101.448 172.2 101.787 171.777C102.125 171.349 102.24 170.767 102.132 170.031Z" fill="white"/>
<path d="M105.029 165.666L106.431 171.308L107.181 171.122L106.583 168.712L108.416 168.256C108.6 168.211 108.755 168.203 108.88 168.233C109.004 168.259 109.111 168.31 109.204 168.388C109.294 168.46 109.371 168.556 109.434 168.675C109.496 168.788 109.554 168.91 109.609 169.042C109.67 169.173 109.72 169.308 109.761 169.449C109.801 169.59 109.84 169.723 109.877 169.848C109.912 169.968 109.95 170.076 109.991 170.172C110.037 170.267 110.093 170.337 110.16 170.382L110.998 170.174C110.895 170.099 110.808 170.006 110.736 169.895C110.667 169.778 110.606 169.653 110.551 169.522C110.495 169.39 110.448 169.253 110.407 169.113C110.366 168.972 110.324 168.834 110.279 168.7C110.229 168.567 110.173 168.441 110.11 168.322C110.052 168.202 109.979 168.1 109.891 168.016C109.807 167.925 109.703 167.856 109.58 167.808C109.461 167.759 109.316 167.739 109.145 167.748L109.141 167.732C109.46 167.552 109.664 167.314 109.753 167.018C109.847 166.721 109.851 166.401 109.766 166.059C109.652 165.6 109.41 165.277 109.039 165.09C108.673 164.901 108.221 164.873 107.684 165.007L105.029 165.666ZM107.99 167.691L106.426 168.08L105.937 166.112L107.802 165.649C108.155 165.561 108.432 165.587 108.635 165.727C108.837 165.867 108.974 166.079 109.045 166.364C109.096 166.569 109.101 166.747 109.06 166.897C109.023 167.04 108.953 167.167 108.852 167.276C108.754 167.378 108.63 167.462 108.478 167.528C108.327 167.593 108.164 167.648 107.99 167.691Z" fill="white"/>
<path d="M114.46 166.552L114.49 163.668L114.505 163.662L116.319 165.898L114.46 166.552ZM113.873 163.142L113.668 169.377L114.413 169.115L114.446 167.248L116.766 166.432L117.946 167.872L118.752 167.588L114.68 162.858L113.873 163.142Z" fill="white"/>
<path d="M121.266 162.923L120.491 161.245L121.895 160.596C122.047 160.525 122.195 160.469 122.337 160.427C122.482 160.378 122.62 160.359 122.75 160.371C122.881 160.382 123.001 160.428 123.11 160.509C123.22 160.59 123.318 160.724 123.404 160.911C123.534 161.192 123.543 161.445 123.432 161.67C123.323 161.888 123.07 162.089 122.67 162.273L121.266 162.923ZM119.515 160.979L121.955 166.255L124.505 165.076C124.766 164.955 124.976 164.808 125.134 164.633C125.295 164.451 125.41 164.26 125.479 164.06C125.551 163.854 125.579 163.643 125.564 163.429C125.549 163.215 125.497 163.012 125.408 162.82C125.258 162.494 125.044 162.258 124.766 162.111C124.489 161.965 124.172 161.932 123.815 162.013L123.808 161.998C124.014 161.784 124.136 161.545 124.176 161.281C124.218 161.01 124.175 160.735 124.045 160.454C123.922 160.188 123.756 159.992 123.549 159.867C123.346 159.739 123.135 159.663 122.915 159.64C122.813 159.627 122.7 159.634 122.575 159.662C122.455 159.688 122.329 159.725 122.197 159.775C122.062 159.819 121.928 159.872 121.795 159.933C121.664 159.988 121.542 160.041 121.429 160.094L119.515 160.979ZM122.384 165.339L121.54 163.514L123.143 162.772C123.291 162.704 123.441 162.653 123.593 162.618C123.742 162.579 123.884 162.57 124.02 162.591C124.158 162.605 124.285 162.654 124.401 162.738C124.518 162.822 124.616 162.95 124.696 163.122C124.832 163.418 124.851 163.69 124.751 163.94C124.656 164.187 124.453 164.382 124.143 164.526L122.384 165.339Z" fill="white"/>
<path d="M126.446 157.552L129.279 162.628L129.955 162.251L127.121 157.175L126.446 157.552Z" fill="white"/>
<path d="M130.32 155.287L133.499 160.154L136.723 158.048L136.367 157.503L133.79 159.186L130.967 154.864L130.32 155.287Z" fill="white"/>
<path d="M135.828 151.49L139.337 156.125L139.954 155.658L136.444 151.023L135.828 151.49Z" fill="white"/>
<path d="M140.764 148.341L144.172 152.219L144.753 151.708L141.345 147.83L142.801 146.551L142.371 146.062L138.879 149.131L139.309 149.62L140.764 148.341Z" fill="white"/>
<path d="M144.581 143.91L148.79 147.92L151.576 144.997L151.104 144.548L148.852 146.911L147.396 145.524L149.48 143.337L149.008 142.888L146.924 145.074L145.586 143.799L147.822 141.453L147.351 141.004L144.581 143.91ZM145.415 140.521L145.578 142.262L145.219 142.639L144.803 141.163L145.415 140.521Z" fill="white"/>
<path d="M154.693 137.09L155.221 137.471L156.599 135.564L156.071 135.182L154.693 137.09Z" fill="white"/>
<path d="M162.646 128.274L158.658 126.166L159.267 125.015C159.434 124.698 159.621 124.456 159.826 124.288C160.027 124.118 160.249 124.011 160.493 123.968C160.734 123.918 160.993 123.928 161.268 124C161.541 124.065 161.831 124.178 162.138 124.34C162.455 124.508 162.708 124.685 162.898 124.871C163.086 125.05 163.227 125.229 163.323 125.409C163.418 125.588 163.475 125.765 163.493 125.941C163.513 126.111 163.513 126.274 163.493 126.429C163.467 126.581 163.432 126.719 163.385 126.842C163.334 126.962 163.288 127.06 163.247 127.137L162.646 128.274ZM157.721 126.546L162.86 129.263L163.793 127.499C164.018 127.072 164.154 126.671 164.199 126.295C164.244 125.92 164.207 125.572 164.088 125.251C163.964 124.928 163.762 124.631 163.481 124.36C163.196 124.086 162.838 123.835 162.406 123.607C161.58 123.171 160.853 123.059 160.224 123.274C159.595 123.488 159.072 123.99 158.653 124.782L157.721 126.546Z" fill="white"/>
<path d="M166.328 116.856L162.891 115.45L162.598 116.166L166.035 117.572C166.517 117.769 166.834 118.04 166.987 118.383C167.137 118.72 167.118 119.117 166.931 119.574C166.734 120.057 166.46 120.376 166.109 120.531C165.753 120.685 165.333 120.663 164.851 120.466L161.415 119.06L161.122 119.776L164.558 121.181C165.277 121.475 165.881 121.497 166.371 121.245C166.858 120.987 167.243 120.511 167.526 119.818C167.804 119.14 167.847 118.547 167.655 118.041C167.458 117.532 167.016 117.137 166.328 116.856Z" fill="white"/>
<path d="M164.044 112.141L169.614 113.805L169.835 113.064L167.456 112.353L167.996 110.543C168.051 110.361 168.123 110.224 168.213 110.132C168.297 110.038 168.396 109.971 168.51 109.932C168.619 109.891 168.74 109.873 168.874 109.879C169.003 109.884 169.139 109.896 169.28 109.915C169.423 109.93 169.565 109.955 169.707 109.992C169.849 110.029 169.984 110.063 170.11 110.095C170.231 110.126 170.344 110.148 170.447 110.162C170.552 110.171 170.641 110.157 170.714 110.123L170.961 109.296C170.844 109.346 170.719 109.374 170.587 109.379C170.452 109.379 170.313 109.368 170.171 109.349C170.03 109.329 169.888 109.301 169.746 109.264C169.604 109.228 169.464 109.194 169.326 109.164C169.186 109.139 169.049 109.124 168.915 109.118C168.782 109.107 168.657 109.117 168.54 109.15C168.419 109.177 168.306 109.231 168.202 109.313C168.1 109.39 168.009 109.505 167.93 109.656L167.914 109.652C167.921 109.286 167.82 108.989 167.61 108.762C167.402 108.53 167.129 108.364 166.791 108.263C166.338 108.128 165.937 108.172 165.587 108.396C165.238 108.615 164.985 108.989 164.826 109.52L164.044 112.141ZM167.293 110.622L166.832 112.167L164.889 111.586L165.439 109.745C165.543 109.397 165.707 109.171 165.93 109.068C166.154 108.965 166.406 108.955 166.687 109.039C166.889 109.099 167.045 109.185 167.153 109.297C167.258 109.402 167.331 109.526 167.374 109.669C167.412 109.805 167.421 109.955 167.401 110.119C167.38 110.283 167.344 110.45 167.293 110.622Z" fill="white"/>
<path d="M169.604 104.472L167.135 102.98L167.139 102.964L169.986 102.54L169.604 104.472ZM166.369 103.243L171.633 106.592L171.786 105.817L170.195 104.839L170.673 102.426L172.513 102.143L172.679 101.305L166.535 102.404L166.369 103.243Z" fill="white"/>
<path d="M169.942 96.766L168.103 96.5806L168.258 95.0414C168.275 94.874 168.301 94.7184 168.338 94.5748C168.369 94.4252 168.423 94.297 168.499 94.1901C168.575 94.0832 168.676 94.0034 168.802 93.9506C168.927 93.8977 169.092 93.8817 169.297 93.9024C169.605 93.9334 169.828 94.054 169.965 94.2643C170.097 94.4685 170.141 94.7894 170.097 95.2269L169.942 96.766ZM167.377 97.2848L173.161 97.8682L173.443 95.0733C173.472 94.7871 173.451 94.5313 173.381 94.3061C173.306 94.0748 173.201 93.8787 173.064 93.7176C172.923 93.5506 172.756 93.4192 172.564 93.3234C172.371 93.2277 172.17 93.1692 171.959 93.1479C171.603 93.112 171.291 93.176 171.024 93.34C170.756 93.5039 170.567 93.7603 170.455 94.1091L170.439 94.1075C170.359 93.8212 170.215 93.5939 170.008 93.4258C169.797 93.2517 169.537 93.1491 169.229 93.1181C168.938 93.0887 168.685 93.1314 168.472 93.2462C168.259 93.3557 168.086 93.4992 167.954 93.6768C167.891 93.7578 167.84 93.859 167.8 93.9805C167.761 94.0966 167.729 94.2243 167.704 94.3636C167.674 94.5024 167.651 94.6447 167.637 94.7905C167.617 94.9304 167.601 95.0624 167.588 95.1867L167.377 97.2848ZM172.591 97.0332L170.59 96.8314L170.767 95.0735C170.783 94.9115 170.815 94.7565 170.863 94.6085C170.905 94.46 170.97 94.3329 171.057 94.2271C171.139 94.1154 171.246 94.0307 171.377 93.973C171.508 93.9153 171.669 93.896 171.858 93.9151C172.182 93.9478 172.426 94.0706 172.59 94.2835C172.754 94.4911 172.819 94.7649 172.785 95.1052L172.591 97.0332Z" fill="white"/>
<path d="M167.953 89.575L173.764 89.7182L173.783 88.9449L167.972 88.8017L167.953 89.575Z" fill="white"/>
<path d="M167.973 85.0872L173.781 84.8261L173.608 80.9788L172.957 81.008L173.095 84.0826L167.939 84.3145L167.973 85.0872Z" fill="white"/>
<path d="M167.507 78.4144L173.282 77.7503L173.194 76.9819L167.418 77.646L167.507 78.4144Z" fill="white"/>
<path d="M167.307 72.5621L172.379 71.6013L172.235 70.8413L167.163 71.8021L166.802 69.8982L166.162 70.0194L167.028 74.5873L167.668 74.4661L167.307 72.5621Z" fill="white"/>
<path d="M165.433 67.0214L171.027 65.4386L169.928 61.5527L169.301 61.73L170.19 64.8716L168.255 65.4192L167.432 62.5126L166.806 62.6899L167.628 65.5965L165.85 66.0997L164.967 62.9816L164.341 63.159L165.433 67.0214ZM162.94 64.5791L164.522 65.3247L164.664 65.8261L163.182 65.4331L162.94 64.5791Z" fill="white"/>
<path d="M164.706 54.847L165.303 54.5864L164.362 52.4299L163.765 52.6906L164.706 54.847Z" fill="white"/>
<path d="M161.163 43.5149L157.319 45.8758L156.637 44.7658C156.45 44.4605 156.336 44.1768 156.296 43.9147C156.251 43.6554 156.273 43.4099 156.36 43.1781C156.439 42.9446 156.58 42.7276 156.781 42.5272C156.976 42.325 157.221 42.133 157.517 41.9512C157.822 41.7637 158.103 41.6355 158.361 41.5667C158.61 41.4962 158.837 41.4654 159.04 41.4745C159.243 41.4836 159.424 41.525 159.584 41.5987C159.741 41.6678 159.881 41.7506 160.004 41.8471C160.123 41.9464 160.223 42.0473 160.305 42.1498C160.382 42.2551 160.444 42.3447 160.489 42.4188L161.163 43.5149ZM157.169 46.8758L162.122 43.8331L161.078 42.1333C160.826 41.7217 160.549 41.4011 160.249 41.1715C159.948 40.9418 159.63 40.7967 159.293 40.7359C158.952 40.678 158.593 40.7009 158.217 40.8044C157.837 40.9108 157.438 41.0918 157.022 41.3475C156.226 41.8361 155.761 42.4056 155.625 43.0559C155.489 43.7062 155.656 44.4129 156.125 45.1761L157.169 46.8758Z" fill="white"/>
<path d="M153.205 34.536L150.247 36.7796L150.714 37.3959L153.672 35.1523C154.087 34.8375 154.482 34.7018 154.856 34.7454C155.222 34.788 155.554 35.006 155.852 35.3996C156.167 35.8148 156.302 36.213 156.258 36.5943C156.209 36.9789 155.977 37.3286 155.561 37.6435L152.603 39.887L153.071 40.5033L156.029 38.2598C156.647 37.7908 156.973 37.2815 157.006 36.732C157.031 36.1815 156.818 35.6078 156.365 35.0109C155.922 34.427 155.434 34.0888 154.9 33.9961C154.363 33.9067 153.797 34.0867 153.205 34.536Z" fill="white"/>
<path d="M147.984 34.1047L152.25 30.1554L151.724 29.5878L149.902 31.2748L148.619 29.8886C148.49 29.7492 148.408 29.6174 148.375 29.4932C148.337 29.3727 148.33 29.2533 148.354 29.1352C148.374 29.0207 148.42 28.9073 148.494 28.7949C148.563 28.6862 148.642 28.5759 148.731 28.4641C148.816 28.3483 148.911 28.2386 149.015 28.1351C149.119 28.0315 149.216 27.9335 149.308 27.841C149.396 27.7522 149.473 27.6668 149.537 27.5848C149.598 27.4988 149.632 27.4156 149.639 27.3352L149.053 26.7019C149.036 26.828 148.997 26.9494 148.935 27.0661C148.865 27.1825 148.786 27.2966 148.697 27.4084C148.608 27.5202 148.512 27.6279 148.408 27.7314C148.304 27.835 148.204 27.9387 148.108 28.0425C148.015 28.1503 147.932 28.2605 147.859 28.3729C147.782 28.4813 147.728 28.5944 147.696 28.7123C147.657 28.8298 147.646 28.9543 147.664 29.0856C147.679 29.2129 147.731 29.3493 147.821 29.4949L147.81 29.506C147.498 29.3135 147.191 29.2498 146.889 29.3149C146.583 29.3761 146.301 29.5266 146.042 29.7663C145.696 30.0871 145.53 30.4552 145.544 30.8706C145.555 31.282 145.749 31.6909 146.125 32.0972L147.984 34.1047ZM148.329 30.5343L149.424 31.7173L147.936 33.0946L146.631 31.6845C146.384 31.4177 146.273 31.1618 146.297 30.9169C146.322 30.672 146.442 30.45 146.657 30.2509C146.813 30.1071 146.966 30.017 147.117 29.9806C147.261 29.9438 147.405 29.9436 147.549 29.9799C147.686 30.0159 147.82 30.0845 147.95 30.1855C148.081 30.2866 148.207 30.4028 148.329 30.5343Z" fill="white"/>
<path d="M144.21 25.4163L141.669 26.782L141.657 26.7712L142.74 24.1036L144.21 25.4163ZM141.506 27.5755L147.067 24.7477L146.478 24.2216L144.826 25.0932L142.992 23.4551L143.684 21.7265L143.047 21.157L140.868 27.0059L141.506 27.5755Z" fill="white"/>
<path d="M137.747 21.2044L136.652 22.6933L135.406 21.7766C135.27 21.6769 135.15 21.5749 135.045 21.4705C134.932 21.3674 134.849 21.2558 134.796 21.1358C134.743 21.0157 134.725 20.8883 134.743 20.7536C134.762 20.6188 134.832 20.4683 134.954 20.3021C135.138 20.0529 135.355 19.9228 135.605 19.9118C135.848 19.9019 136.147 20.0272 136.501 20.2878L137.747 21.2044ZM136.889 23.6763L140.334 18.9934L138.071 17.3289C137.839 17.1584 137.609 17.046 137.379 16.9917C137.142 16.9385 136.919 16.9297 136.711 16.9653C136.496 17.0021 136.298 17.0788 136.117 17.1956C135.937 17.3123 135.784 17.456 135.659 17.6265C135.447 17.9151 135.343 18.2162 135.348 18.5299C135.353 18.8436 135.478 19.1372 135.721 19.4107L135.711 19.4239C135.424 19.3473 135.155 19.3552 134.906 19.4476C134.648 19.5412 134.428 19.7126 134.244 19.9619C134.071 20.198 133.979 20.4371 133.969 20.6793C133.955 20.9183 133.991 21.14 134.076 21.3444C134.114 21.4396 134.175 21.5351 134.26 21.6309C134.34 21.7235 134.434 21.816 134.541 21.9084C134.645 22.0051 134.756 22.0969 134.874 22.1838C134.984 22.2718 135.09 22.3528 135.19 22.4267L136.889 23.6763ZM139.325 19.0597L138.133 20.6797L136.71 19.6328C136.579 19.5363 136.462 19.4299 136.359 19.3136C136.252 19.2017 136.176 19.0814 136.129 18.9526C136.074 18.825 136.056 18.69 136.073 18.5476C136.09 18.4053 136.155 18.2575 136.267 18.1045C136.46 17.8422 136.69 17.6945 136.957 17.6617C137.22 17.6256 137.488 17.7088 137.764 17.9115L139.325 19.0597Z" fill="white"/>
<path d="M130.544 19.2586L133.624 14.328L132.968 13.9182L129.888 18.8488L130.544 19.2586Z" fill="white"/>
<path d="M126.691 16.9579L129.421 11.8252L126.021 10.0169L125.715 10.592L128.432 12.0371L126.008 16.5947L126.691 16.9579Z" fill="white"/>
<path d="M120.709 13.9656L123.075 8.65556L122.368 8.34072L120.002 13.6508L120.709 13.9656Z" fill="white"/>
<path d="M115.569 11.1607L117.322 6.30535L116.594 6.04268L114.841 10.898L113.018 10.2399L112.797 10.8526L117.17 12.4314L117.391 11.8187L115.569 11.1607Z" fill="white"/>
<path d="M109.846 9.95437L111.329 4.33326L107.424 3.30305L107.258 3.93287L110.415 4.76576L109.901 6.71032L106.981 5.93974L106.815 6.56955L109.735 7.34013L109.264 9.12724L106.13 8.30058L105.964 8.93039L109.846 9.95437ZM106.475 10.8586L107.921 9.87609L108.425 10.009L107.333 11.085L106.475 10.8586Z" fill="white"/>
<path d="M98.9941 4.38698L99.0734 3.74046L96.7378 3.45412L96.6585 4.10065L98.9941 4.38698Z" fill="white"/>
</g>
</svg>
