<svg width="175" height="175" viewBox="0 0 175 175" fill="none" xmlns="http://www.w3.org/2000/svg">
<g opacity="0.5">
<path d="M84.0374 6.92688L83.6594 1.12574L79.6295 1.38835L79.6718 2.03834L82.9299 1.82602L83.0607 3.83286L80.0463 4.0293L80.0887 4.67929L83.103 4.48285L83.2232 6.32719L79.9895 6.53792L80.0319 7.18791L84.0374 6.92688Z" fill="white"/>
<path d="M72.6617 6.4532L71.898 6.57638C71.9902 6.87492 72.1245 7.12816 72.301 7.33612C72.4784 7.54943 72.6841 7.71693 72.9181 7.83862C73.1522 7.96032 73.4097 8.03974 73.6906 8.0769C73.9715 8.11406 74.262 8.10844 74.5621 8.06003C75.0015 7.98915 75.3797 7.84566 75.6968 7.62958C76.0093 7.41972 76.2587 7.15955 76.4451 6.84908C76.6261 6.53948 76.7457 6.19029 76.8039 5.80152C76.863 5.4181 76.8589 5.0174 76.7915 4.59942C76.724 4.18143 76.6073 3.79888 76.4414 3.45177C76.2701 3.10553 76.053 2.81616 75.79 2.58366C75.5271 2.35116 75.217 2.18401 74.8597 2.0822C74.5032 1.98575 74.1026 1.97339 73.6578 2.04514C72.9237 2.16357 72.3773 2.45788 72.0188 2.92808C71.6603 3.39827 71.5019 4.00114 71.5436 4.73668L72.3072 4.6135C72.2852 4.37512 72.298 4.14763 72.3455 3.93103C72.3931 3.71443 72.4771 3.51944 72.5976 3.34605C72.7136 3.17889 72.8638 3.03645 73.0482 2.91872C73.2282 2.80722 73.4441 2.73116 73.6959 2.69053C74.0389 2.63521 74.344 2.65197 74.6113 2.74082C74.8785 2.82966 75.1098 2.9683 75.3051 3.15672C75.496 3.35136 75.6523 3.58731 75.774 3.86459C75.8965 4.14722 75.9842 4.45198 76.0369 4.77886C76.0853 5.07895 76.0945 5.37438 76.0644 5.66514C76.0343 5.9559 75.9589 6.22099 75.8381 6.46041C75.7127 6.70605 75.5399 6.91263 75.3195 7.08014C75.0937 7.24851 74.8094 7.36036 74.4664 7.41568C74.0645 7.48051 73.7024 7.43445 73.3802 7.2775C73.0526 7.12141 72.8131 6.84664 72.6617 6.4532Z" fill="white"/>
<path d="M67.7968 6.30851C67.8725 6.59169 67.91 6.87943 67.9095 7.17174C67.9103 7.4693 67.8615 7.74922 67.763 8.01151C67.6646 8.2738 67.5096 8.50342 67.2982 8.70038C67.0881 8.90259 66.8127 9.04923 66.4718 9.14032C66.131 9.2314 65.8191 9.2417 65.5362 9.17121C65.2547 9.10597 65.0058 8.98424 64.7897 8.80603C64.5735 8.62782 64.3916 8.40955 64.2439 8.15124C64.0976 7.89816 63.9866 7.63004 63.9109 7.34686C63.8353 7.06368 63.797 6.77331 63.7962 6.47576C63.7967 6.18345 63.8462 5.90615 63.9447 5.64386C64.0432 5.38157 64.1974 5.14932 64.4074 4.94712C64.6189 4.75016 64.895 4.60613 65.2359 4.51505C65.5768 4.42397 65.8879 4.41105 66.1695 4.47629C66.4524 4.54677 66.7019 4.67112 66.9181 4.84934C67.1342 5.02755 67.3155 5.24319 67.4618 5.49626C67.6094 5.75458 67.7211 6.02533 67.7968 6.30851ZM68.5441 6.10883C68.4418 5.72601 68.2879 5.37102 68.0825 5.04385C67.8733 4.72332 67.6194 4.45684 67.3211 4.24441C67.0227 4.03197 66.684 3.88931 66.305 3.81643C65.9273 3.74879 65.5156 3.77452 65.0698 3.89363C64.6241 4.01274 64.2544 4.19579 63.9609 4.4428C63.6687 4.69505 63.4463 4.98764 63.2936 5.32059C63.141 5.65354 63.0566 6.0104 63.0403 6.39118C63.0203 6.7786 63.0614 7.16372 63.1637 7.54654C63.266 7.92936 63.4217 8.28103 63.631 8.60155C63.8364 8.92872 64.0883 9.19852 64.3866 9.41096C64.685 9.6234 65.0237 9.76606 65.4028 9.83894C65.7818 9.91183 66.1942 9.88871 66.64 9.7696C67.0857 9.65049 67.4547 9.46482 67.7469 9.21257C68.0391 8.96032 68.2615 8.66772 68.4141 8.33478C68.5667 8.00183 68.6531 7.64165 68.6732 7.25422C68.6894 6.87344 68.6464 6.49164 68.5441 6.10883Z" fill="white"/>
<path d="M60.2402 8.20865L60.019 7.59599L57.8058 8.39507L58.027 9.00773L60.2402 8.20865Z" fill="white"/>
<path d="M55.9489 13.2961L53.5324 8.00866L52.8289 8.33019L53.8611 10.5888L52.1431 11.374C51.9703 11.453 51.8197 11.489 51.6912 11.4821C51.5649 11.4801 51.4494 11.4493 51.3446 11.3898C51.2421 11.3352 51.1489 11.2555 51.0652 11.1505C50.9836 11.0505 50.9037 10.9408 50.8253 10.8215C50.7419 10.7044 50.6673 10.5804 50.6015 10.4493C50.5356 10.3183 50.4731 10.1946 50.414 10.0784C50.3572 9.96712 50.2999 9.86796 50.2423 9.78093C50.1796 9.69615 50.1112 9.6379 50.0371 9.60615L49.2521 9.96491C49.3668 10.0199 49.4698 10.0952 49.5612 10.1907C49.6499 10.2934 49.7334 10.4044 49.8119 10.5237C49.8903 10.6431 49.9624 10.7682 50.0283 10.8993C50.0941 11.0303 50.1613 11.1578 50.2299 11.2816C50.3033 11.4032 50.382 11.5165 50.4657 11.6214C50.5446 11.7286 50.635 11.8156 50.7372 11.8823C50.8366 11.9562 50.9515 12.0052 51.0818 12.0292C51.2072 12.0554 51.3532 12.0484 51.5198 12.008L51.5265 12.0229C51.2462 12.2584 51.0898 12.5298 51.0572 12.8372C51.0196 13.1468 51.0742 13.462 51.2209 13.7829C51.4172 14.2124 51.7149 14.4851 52.114 14.6011C52.5083 14.7194 52.9572 14.6634 53.4607 14.4333L55.9489 13.2961ZM52.6656 11.8514L54.1319 11.1812L54.9746 13.0252L53.227 13.8239C52.8962 13.9751 52.6184 14.0006 52.3936 13.9004C52.1688 13.8003 51.9954 13.6169 51.8736 13.3503C51.7856 13.1578 51.748 12.984 51.7607 12.829C51.7707 12.6811 51.8156 12.5443 51.8953 12.4183C51.9723 12.2996 52.0792 12.194 52.216 12.1016C52.3529 12.0092 52.5027 11.9258 52.6656 11.8514Z" fill="white"/>
<path d="M49.0805 16.6278L46.1899 11.5839L42.6861 13.5919L43.0099 14.157L45.8427 12.5336L46.8427 14.2785L44.2218 15.7804L44.5457 16.3456L47.1665 14.8436L48.0855 16.4472L45.2739 18.0585L45.5978 18.6236L49.0805 16.6278Z" fill="white"/>
<path d="M39.2665 20.8283L38.6667 21.2493C38.8596 21.5052 39.0682 21.6937 39.2925 21.8148C39.5154 21.9434 39.7505 22.0138 39.9978 22.0259C40.2406 22.0412 40.4867 22.0044 40.7361 21.9155C40.9854 21.8267 41.2322 21.6965 41.4766 21.525C41.6943 21.3722 41.8873 21.1936 42.0555 20.9893C42.2224 20.7925 42.3476 20.5786 42.4308 20.3477C42.5128 20.1244 42.5403 19.8896 42.5133 19.6432C42.4894 19.4014 42.3932 19.1605 42.2248 18.9206C42.072 18.7029 41.9019 18.5504 41.7146 18.463C41.5259 18.3832 41.3278 18.3466 41.1201 18.3531C40.9111 18.3672 40.6953 18.4093 40.4726 18.4794C40.253 18.5539 40.0343 18.6345 39.8166 18.7211C39.5975 18.8152 39.3828 18.9062 39.1726 18.9941C38.9624 19.082 38.7628 19.1425 38.5738 19.1757C38.3836 19.2164 38.2104 19.2153 38.0542 19.1724C37.8936 19.1326 37.7557 19.0305 37.6403 18.8661C37.5186 18.6928 37.4544 18.5257 37.4475 18.3647C37.4406 18.2038 37.4715 18.0494 37.5402 17.9017C37.6121 17.7584 37.7119 17.622 37.8398 17.4924C37.9633 17.366 38.0961 17.2528 38.2383 17.153C38.416 17.0283 38.6048 16.9289 38.8048 16.8548C39.0048 16.7807 39.202 16.7451 39.3963 16.7479C39.5862 16.7539 39.771 16.7999 39.9508 16.8859C40.1293 16.9795 40.2887 17.1262 40.429 17.3261L41.0288 16.9051C40.826 16.6163 40.5987 16.4012 40.3468 16.2597C40.0936 16.1257 39.8298 16.0523 39.5555 16.0393C39.2797 16.0339 39.0008 16.0805 38.7185 16.1792C38.4318 16.281 38.1552 16.4254 37.8887 16.6125C37.671 16.7654 37.472 16.9448 37.2917 17.151C37.1039 17.3558 36.9601 17.5761 36.8604 17.8119C36.7638 18.0522 36.7223 18.3001 36.736 18.5558C36.7484 18.8191 36.8434 19.0773 37.0212 19.3305C37.1865 19.566 37.3682 19.7303 37.5662 19.8234C37.7597 19.9196 37.9657 19.9674 38.184 19.9666C38.3979 19.969 38.6162 19.9351 38.8389 19.865C39.0647 19.7993 39.2887 19.7217 39.511 19.632C39.7287 19.5454 39.9412 19.456 40.1483 19.3636C40.3585 19.2757 40.5572 19.2092 40.7443 19.164C40.927 19.122 41.094 19.1142 41.2452 19.1407C41.3951 19.1747 41.5216 19.265 41.6245 19.4117C41.7336 19.5671 41.7952 19.7163 41.8092 19.859C41.8218 20.0093 41.8011 20.1498 41.7471 20.2806C41.6885 20.4146 41.6042 20.5401 41.4941 20.6572C41.384 20.7743 41.2623 20.8796 41.129 20.9732C40.8002 21.204 40.4769 21.3149 40.1589 21.306C39.8396 21.3046 39.5421 21.1454 39.2665 20.8283Z" fill="white"/>
<path d="M34.4602 23.1899L35.8457 24.8119L34.6942 25.7955C34.3599 26.0811 34.0565 26.2189 33.7839 26.209C33.5107 26.2068 33.2613 26.0736 33.0357 25.8095C32.81 25.5453 32.7157 25.2761 32.7527 25.0018C32.7855 24.7311 32.9709 24.4549 33.3087 24.1735L34.4602 23.1899ZM36.8569 24.8047L33.0811 20.3845L32.4929 20.8869L34.0371 22.6946L32.6875 23.8475C32.2382 24.2241 31.9988 24.6249 31.9693 25.05C31.9356 25.4785 32.095 25.8992 32.4476 26.3119C32.8001 26.7246 33.1889 26.9458 33.6139 26.9753C34.0384 27.0125 34.4735 26.8408 34.9192 26.46L36.8569 24.8047Z" fill="white"/>
<path d="M28.7715 28.1749C28.9828 28.378 29.1638 28.6048 29.3146 28.8553C29.4693 29.1094 29.5724 29.3742 29.6238 29.6496C29.6753 29.925 29.6615 30.2017 29.5825 30.4797C29.5074 30.7614 29.3475 31.0294 29.103 31.2837C28.8584 31.538 28.5969 31.7082 28.3183 31.7943C28.0437 31.8841 27.7677 31.9087 27.4905 31.868C27.2133 31.8274 26.9447 31.7348 26.6847 31.5901C26.4285 31.4493 26.1948 31.2772 25.9836 31.0741C25.7723 30.8709 25.5893 30.6422 25.4346 30.388C25.2838 30.1376 25.1827 29.8747 25.1313 29.5993C25.0798 29.3239 25.0916 29.0454 25.1667 28.7636C25.2458 28.4857 25.4076 28.2196 25.6521 27.9652C25.8967 27.7109 26.1563 27.5389 26.4309 27.449C26.7095 27.363 26.9874 27.3402 27.2646 27.3809C27.5418 27.4215 27.8084 27.5123 28.0645 27.6532C28.3246 27.7978 28.5602 27.9717 28.7715 28.1749ZM29.3077 27.6173C29.022 27.3427 28.7067 27.1185 28.3616 26.9448C28.0167 26.7788 27.6617 26.6821 27.2964 26.6547C26.9312 26.6273 26.5675 26.6805 26.2054 26.8143C25.8473 26.9518 25.5083 27.1868 25.1885 27.5194C24.8687 27.852 24.6471 28.1999 24.5236 28.5632C24.4041 28.9302 24.3652 29.2957 24.4069 29.6595C24.4486 30.0234 24.561 30.3725 24.7441 30.7067C24.9274 31.0487 25.1618 31.357 25.4474 31.6316C25.733 31.9063 26.0483 32.1266 26.3932 32.2926C26.7383 32.4663 27.0934 32.5668 27.4587 32.5942C27.8239 32.6216 28.1876 32.5685 28.5497 32.4347C28.9117 32.3009 29.2527 32.0678 29.5725 31.7352C29.8923 31.4026 30.1119 31.0528 30.2315 30.6858C30.351 30.3187 30.3899 29.9533 30.3482 29.5894C30.3065 29.2255 30.1941 28.8726 30.0108 28.5307C29.8277 28.1964 29.5933 27.892 29.3077 27.6173Z" fill="white"/>
<path d="M25.6767 35.843L21.1008 32.2573L20.6488 32.8341L24.3211 35.7117L24.311 35.7245L18.7656 35.2374L18.2433 35.9039L22.8192 39.4896L23.2712 38.9128L19.5605 36.0051L19.5705 35.9923L25.1695 36.4903L25.6767 35.843Z" fill="white"/>
<path d="M17.5567 44.295L17.1634 44.9133C17.4394 45.076 17.7042 45.1705 17.9577 45.1967C18.2129 45.2304 18.4571 45.2056 18.6902 45.1223C18.9204 45.0436 19.1338 44.9156 19.3303 44.7382C19.5267 44.5609 19.7051 44.3462 19.8654 44.0944C20.0081 43.8699 20.1182 43.6312 20.1957 43.3781C20.2747 43.1324 20.3086 42.887 20.2974 42.6418C20.2878 42.4041 20.2234 42.1766 20.1044 41.9593C19.9898 41.7449 19.8089 41.559 19.5616 41.4017C19.3372 41.2589 19.1218 41.1829 18.9153 41.1738C18.7105 41.1721 18.5133 41.214 18.3239 41.2994C18.1362 41.3922 17.9528 41.5136 17.7738 41.6635C17.5994 41.8163 17.4281 41.9743 17.2599 42.1375C17.0934 42.3082 16.9298 42.4743 16.7691 42.6359C16.6084 42.7974 16.4471 42.9296 16.2852 43.0325C16.1249 43.1428 15.9644 43.208 15.8037 43.228C15.6401 43.2525 15.4736 43.2109 15.3042 43.1031C15.1255 42.9895 15.0023 42.8596 14.9344 42.7135C14.8666 42.5673 14.8362 42.4129 14.8432 42.2501C14.8549 42.0903 14.895 41.926 14.9637 41.7574C15.0295 41.5934 15.109 41.4381 15.2022 41.2915C15.3188 41.1083 15.4553 40.9443 15.6118 40.7994C15.7683 40.6545 15.9369 40.5463 16.1176 40.4746C16.2954 40.4076 16.4837 40.3795 16.6827 40.3903C16.8834 40.4086 17.0868 40.4833 17.2929 40.6144L17.6862 39.9962C17.3886 39.8068 17.0963 39.6948 16.8094 39.6603C16.5243 39.6332 16.2524 39.6661 15.9939 39.759C15.737 39.8594 15.4971 40.009 15.2739 40.2081C15.0479 40.4117 14.8475 40.6509 14.6726 40.9256C14.5299 41.15 14.4146 41.3919 14.3267 41.6513C14.2314 41.9123 14.1827 42.1709 14.1807 42.4269C14.1832 42.6858 14.2396 42.9308 14.35 43.1619C14.462 43.4004 14.6485 43.6027 14.9096 43.7688C15.1523 43.9233 15.3829 44.0057 15.6015 44.0161C15.8171 44.031 16.0257 43.9964 16.2272 43.9123C16.4258 43.8328 16.6146 43.7181 16.7936 43.5682C16.9771 43.4212 17.1545 43.2638 17.3256 43.0961C17.4937 42.9328 17.6559 42.769 17.812 42.6046C17.9727 42.443 18.1309 42.3056 18.2865 42.1924C18.4393 42.0837 18.5906 42.0127 18.7405 41.9794C18.892 41.9536 19.0434 41.9887 19.1945 42.0849C19.3548 42.1869 19.4687 42.3011 19.5361 42.4277C19.6052 42.5617 19.6398 42.6995 19.6398 42.8411C19.6369 42.9872 19.607 43.1354 19.5499 43.2857C19.4929 43.436 19.4207 43.5798 19.3333 43.7172C19.1177 44.0561 18.8612 44.2822 18.564 44.3955C18.2684 44.5162 17.9327 44.4827 17.5567 44.295Z" fill="white"/>
<path d="M13.3552 48.2318L15.3226 50.3416L15.3152 50.3561L12.4598 49.987L13.3552 48.2318ZM16.1314 50.2972L11.9817 45.6389L11.6228 46.3424L12.8861 47.7182L11.7685 49.9085L9.92059 49.6786L9.53205 50.4402L15.7428 51.0587L16.1314 50.2972Z" fill="white"/>
<path d="M10.9272 55.5535L12.6457 56.2338L12.0763 57.6722C12.0144 57.8286 11.9463 57.971 11.8722 58.0993C11.8011 58.2346 11.7143 58.3433 11.6118 58.4253C11.5093 58.5073 11.3905 58.5566 11.2555 58.5732C11.1205 58.5898 10.9571 58.5602 10.7653 58.4843C10.4777 58.3704 10.2966 58.1936 10.2222 57.954C10.1508 57.7214 10.196 57.4007 10.3578 56.9919L10.9272 55.5535ZM13.536 55.7543L8.1307 53.6146L7.0968 56.2264C6.99092 56.4939 6.94091 56.7456 6.9468 56.9814C6.95573 57.2243 7.00388 57.4419 7.09126 57.6341C7.18168 57.8333 7.30628 58.0053 7.46504 58.1498C7.62381 58.2944 7.80161 58.4057 7.99845 58.4836C8.33155 58.6154 8.64915 58.639 8.95123 58.5543C9.25332 58.4695 9.50563 58.2746 9.70814 57.9694L9.72328 57.9754C9.72233 58.2728 9.79835 58.5306 9.95133 58.7487C10.1074 58.974 10.3292 59.1435 10.6169 59.2574C10.8894 59.3653 11.1441 59.3931 11.3807 59.3409C11.6154 59.2936 11.8207 59.2027 11.9966 59.068C12.0791 59.0072 12.1559 58.9238 12.2271 58.8177C12.2963 58.7167 12.3619 58.6025 12.4239 58.4753C12.491 58.3501 12.5515 58.2193 12.6055 58.0831C12.6625 57.9538 12.7139 57.8312 12.7599 57.7151L13.536 55.7543ZM8.45165 54.5736L10.3216 55.3138L9.67125 56.9566C9.61132 57.108 9.53824 57.2483 9.45202 57.3777C9.37084 57.509 9.27395 57.6137 9.16133 57.6917C9.05177 57.7768 8.92596 57.8291 8.78391 57.8488C8.64185 57.8684 8.4825 57.8433 8.30586 57.7734C8.00304 57.6535 7.80179 57.4688 7.70211 57.2191C7.60044 56.9746 7.61254 56.6933 7.73841 56.3753L8.45165 54.5736Z" fill="white"/>
<path d="M10.8915 62.9281L5.31809 61.2747L4.22276 64.9669L4.84723 65.1521L5.72257 62.2015L10.6715 63.6697L10.8915 62.9281Z" fill="white"/>
<path d="M9.15285 69.2881L3.4588 68.1159L2.64452 72.0715L3.28251 72.2028L3.94083 69.0049L5.91062 69.4104L5.30155 72.369L5.93954 72.5004L6.54861 69.5417L8.3589 69.9144L7.7055 73.0884L8.34349 73.2197L9.15285 69.2881Z" fill="white"/>
<path d="M4.18936 80.4276L3.53946 80.384L3.38177 82.7318L4.03168 82.7754L4.18936 80.4276Z" fill="white"/>
<path d="M7.21447 90.9883L1.41481 91.3886L1.69284 95.4174L2.34266 95.3726L2.11789 92.1154L4.12421 91.9769L4.33217 94.9905L4.98199 94.9456L4.77403 91.9321L6.6179 91.8048L6.84099 95.0377L7.49082 94.9929L7.21447 90.9883Z" fill="white"/>
<path d="M6.78388 102.365L6.90998 103.128C7.20816 103.035 7.46089 102.9 7.66816 102.723C7.8808 102.544 8.04751 102.338 8.16831 102.104C8.2891 101.869 8.36754 101.611 8.40363 101.33C8.43972 101.049 8.43298 100.759 8.38343 100.459C8.31086 100.02 8.16593 99.6419 7.94864 99.3257C7.73758 99.014 7.47646 98.7655 7.16528 98.5804C6.85499 98.4006 6.50535 98.2823 6.11635 98.2256C5.73272 98.1679 5.33203 98.1736 4.91431 98.2426C4.49659 98.3116 4.11449 98.4298 3.76802 98.5971C3.42243 98.7697 3.13389 98.9879 2.9024 99.2518C2.67091 99.5156 2.50494 99.8263 2.4045 100.184C2.30941 100.541 2.29859 100.942 2.37204 101.386C2.49327 102.12 2.78967 102.665 3.26124 103.022C3.7328 103.378 4.33627 103.534 5.07164 103.49L4.94554 102.727C4.70725 102.75 4.47971 102.738 4.26293 102.691C4.04615 102.644 3.85084 102.561 3.67699 102.441C3.50939 102.326 3.36637 102.176 3.24794 101.992C3.13576 101.813 3.05887 101.597 3.01728 101.345C2.96064 101.003 2.97624 100.698 3.06406 100.43C3.15189 100.162 3.28963 99.9305 3.4773 99.7344C3.67122 99.5429 3.90657 99.3857 4.18338 99.2629C4.46554 99.1393 4.76996 99.0505 5.09664 98.9965C5.39655 98.9469 5.69193 98.9366 5.98281 98.9656C6.27368 98.9945 6.53905 99.069 6.77893 99.1889C7.02505 99.3133 7.23229 99.4853 7.40064 99.7051C7.56988 99.9302 7.68281 100.214 7.73945 100.557C7.80582 100.959 7.76114 101.321 7.60542 101.644C7.45058 101.972 7.17673 102.212 6.78388 102.365Z" fill="white"/>
<path d="M6.65766 107.23C6.94055 107.154 7.22815 107.115 7.52046 107.114C7.818 107.112 8.09811 107.16 8.36077 107.258C8.62344 107.355 8.85365 107.509 9.05142 107.72C9.25443 107.929 9.40213 108.204 9.49451 108.545C9.5869 108.885 9.59839 109.197 9.52899 109.48C9.46482 109.762 9.34405 110.011 9.16666 110.228C8.98928 110.445 8.77171 110.628 8.51396 110.776C8.26145 110.924 7.99375 111.036 7.71086 111.112C7.42797 111.189 7.13776 111.228 6.84021 111.23C6.5479 111.231 6.27041 111.183 6.00775 111.085C5.74508 110.988 5.51225 110.834 5.30924 110.625C5.11147 110.414 4.96639 110.139 4.87401 109.798C4.78162 109.458 4.76751 109.147 4.83168 108.865C4.90108 108.582 5.02447 108.332 5.20186 108.115C5.37924 107.898 5.59419 107.716 5.8467 107.569C6.10445 107.42 6.37477 107.307 6.65766 107.23ZM6.45512 106.484C6.0727 106.588 5.7183 106.743 5.39191 106.95C5.07219 107.16 4.80669 107.415 4.59539 107.714C4.3841 108.013 4.24273 108.352 4.1713 108.732C4.10511 109.11 4.13241 109.521 4.25323 109.967C4.37404 110.412 4.55851 110.781 4.80663 111.074C5.06 111.365 5.35344 111.586 5.68697 111.737C6.0205 111.889 6.37768 111.972 6.75852 111.987C7.14602 112.005 7.53098 111.963 7.9134 111.859C8.29582 111.755 8.6469 111.598 8.96662 111.387C9.293 111.181 9.56184 110.928 9.77313 110.629C9.98442 110.33 10.1258 109.99 10.1972 109.611C10.2687 109.232 10.244 108.819 10.1232 108.374C10.0023 107.929 9.81525 107.56 9.56189 107.269C9.30853 106.978 9.01508 106.757 8.68155 106.605C8.34802 106.454 7.98751 106.369 7.60001 106.35C7.21917 106.336 6.83754 106.38 6.45512 106.484Z" fill="white"/>
<path d="M8.5865 114.78L7.97469 115.004L8.78223 117.214L9.39404 116.99L8.5865 114.78Z" fill="white"/>
<path d="M13.6907 119.052L8.41262 121.489L8.73683 122.191L10.9915 121.15L11.7833 122.865C11.8629 123.038 11.8995 123.188 11.8931 123.317C11.8916 123.443 11.8612 123.559 11.8021 123.664C11.7479 123.766 11.6685 123.86 11.5639 123.944C11.4642 124.026 11.3548 124.106 11.2358 124.185C11.119 124.269 10.9952 124.344 10.8645 124.41C10.7337 124.477 10.6103 124.54 10.4943 124.599C10.3832 124.657 10.2843 124.714 10.1975 124.772C10.1129 124.835 10.0549 124.904 10.0235 124.978L10.3852 125.762C10.4398 125.647 10.5147 125.544 10.6098 125.452C10.7122 125.363 10.8229 125.279 10.9419 125.2C11.0609 125.121 11.1858 125.048 11.3166 124.982C11.4474 124.916 11.5746 124.848 11.6982 124.779C11.8195 124.705 11.9324 124.626 12.0371 124.542C12.144 124.462 12.2306 124.372 12.2969 124.269C12.3705 124.17 12.419 124.055 12.4425 123.924C12.4682 123.799 12.4606 123.653 12.4197 123.486L12.4345 123.479C12.671 123.759 12.9431 123.914 13.2505 123.946C13.5603 123.982 13.8753 123.926 14.1956 123.778C14.6244 123.58 14.896 123.282 15.0105 122.882C15.1272 122.487 15.0695 122.039 14.8374 121.536L13.6907 119.052ZM12.2586 122.341L11.5829 120.877L13.4236 120.027L14.229 121.772C14.3814 122.102 14.408 122.38 14.3087 122.605C14.2094 122.83 14.0267 123.004 13.7605 123.127C13.5683 123.216 13.3947 123.254 13.2397 123.242C13.0918 123.233 12.9548 123.188 12.8285 123.109C12.7095 123.033 12.6035 122.926 12.5106 122.79C12.4177 122.653 12.3337 122.504 12.2586 122.341Z" fill="white"/>
<path d="M17.0491 125.908L12.0163 128.818L14.0377 132.314L14.6016 131.988L12.9674 129.162L14.7084 128.155L16.2204 130.77L16.7843 130.444L15.2723 127.829L16.8724 126.904L18.4944 129.709L19.0583 129.383L17.0491 125.908Z" fill="white"/>
<path d="M21.2867 135.706L21.71 136.304C21.9651 136.11 22.1528 135.901 22.273 135.676C22.4009 135.452 22.4703 135.217 22.4815 134.97C22.4958 134.727 22.4581 134.481 22.3683 134.232C22.2785 133.983 22.1474 133.737 21.9749 133.493C21.8213 133.276 21.6419 133.084 21.437 132.916C21.2396 132.75 21.0252 132.626 20.794 132.543C20.5704 132.462 20.3354 132.435 20.0892 132.463C19.8474 132.488 19.6069 132.585 19.3677 132.755C19.1506 132.908 18.9987 133.079 18.9121 133.267C18.833 133.456 18.7971 133.654 18.8044 133.862C18.8193 134.07 18.8622 134.286 18.9332 134.509C19.0086 134.728 19.09 134.946 19.1774 135.164C19.2723 135.382 19.3641 135.597 19.4528 135.807C19.5415 136.016 19.6028 136.216 19.6367 136.405C19.6782 136.595 19.6777 136.768 19.6354 136.924C19.5962 137.085 19.4946 137.223 19.3307 137.339C19.1579 137.462 18.991 137.527 18.8301 137.534C18.6692 137.542 18.5147 137.511 18.3667 137.443C18.2231 137.372 18.0863 137.272 17.9563 137.145C17.8293 137.022 17.7157 136.89 17.6154 136.748C17.4899 136.571 17.3898 136.382 17.3149 136.183C17.2401 135.983 17.2037 135.786 17.2058 135.591C17.2111 135.402 17.2563 135.217 17.3417 135.036C17.4346 134.858 17.5807 134.698 17.7801 134.557L17.3568 133.958C17.0688 134.162 16.8545 134.39 16.714 134.643C16.581 134.897 16.5085 135.161 16.4966 135.435C16.4923 135.711 16.54 135.99 16.6397 136.271C16.7426 136.558 16.8881 136.834 17.0762 137.1C17.2299 137.317 17.4101 137.515 17.6169 137.694C17.8225 137.882 18.0433 138.024 18.2795 138.123C18.5201 138.219 18.7683 138.259 19.0239 138.245C19.2871 138.231 19.5449 138.135 19.7975 137.957C20.0323 137.79 20.1959 137.608 20.2883 137.41C20.3838 137.216 20.4307 137.01 20.4291 136.791C20.4307 136.578 20.396 136.359 20.325 136.137C20.2585 135.911 20.18 135.688 20.0894 135.466C20.002 135.248 19.9118 135.036 19.8186 134.829C19.73 134.62 19.6627 134.421 19.6168 134.234C19.574 134.052 19.5656 133.885 19.5915 133.733C19.625 133.583 19.7148 133.457 19.861 133.353C20.0161 133.243 20.165 133.181 20.3076 133.167C20.4579 133.153 20.5985 133.174 20.7295 133.227C20.8637 133.285 20.9895 133.369 21.107 133.479C21.2246 133.588 21.3303 133.71 21.4244 133.843C21.6565 134.17 21.7686 134.493 21.761 134.811C21.7608 135.131 21.6027 135.429 21.2867 135.706Z" fill="white"/>
<path d="M23.6664 140.503L25.283 139.112L26.2711 140.259C26.5579 140.593 26.6969 140.896 26.6881 141.168C26.6869 141.441 26.5547 141.691 26.2914 141.918C26.0281 142.145 25.7593 142.24 25.4848 142.204C25.2139 142.172 24.9371 141.988 24.6544 141.651L23.6664 140.503ZM25.2721 138.101L20.8663 141.893L21.3709 142.48L23.1727 140.928L24.3307 142.274C24.7091 142.721 25.1108 142.959 25.536 142.987C25.9646 143.019 26.3847 142.858 26.796 142.504C27.2074 142.15 27.4271 141.76 27.455 141.335C27.4906 140.911 27.3172 140.476 26.9347 140.032L25.2721 138.101Z" fill="white"/>
<path d="M28.6736 146.173C28.8759 145.961 29.102 145.779 29.3519 145.627C29.6054 145.471 29.8698 145.367 30.145 145.315C30.4202 145.262 30.697 145.275 30.9752 145.353C31.2572 145.427 31.5258 145.586 31.7811 145.829C32.0363 146.073 32.2075 146.334 32.2947 146.612C32.3855 146.886 32.4112 147.162 32.3716 147.44C32.332 147.717 32.2404 147.986 32.0968 148.246C31.9569 148.503 31.7858 148.737 31.5834 148.95C31.381 149.162 31.1531 149.345 30.8995 149.501C30.6496 149.653 30.3871 149.755 30.1119 149.807C29.8367 149.86 29.5581 149.849 29.2761 149.775C28.9979 149.697 28.7311 149.536 28.4759 149.293C28.2206 149.049 28.0475 148.79 27.9567 148.516C27.8695 148.238 27.8458 147.96 27.8853 147.683C27.9249 147.405 28.0147 147.138 28.1546 146.882C28.2982 146.621 28.4712 146.385 28.6736 146.173ZM28.114 145.639C27.8404 145.925 27.6174 146.242 27.4451 146.587C27.2804 146.933 27.1851 147.288 27.159 147.654C27.133 148.019 27.1876 148.382 27.3228 148.744C27.4617 149.102 27.698 149.44 28.0318 149.758C28.3656 150.077 28.7143 150.297 29.0781 150.419C29.4456 150.537 29.8112 150.575 30.1749 150.532C30.5386 150.489 30.8873 150.375 31.2208 150.19C31.562 150.006 31.8694 149.77 32.143 149.484C32.4165 149.197 32.6357 148.881 32.8003 148.535C32.9727 148.189 33.0719 147.834 33.0979 147.469C33.1239 147.103 33.0693 146.74 32.9342 146.378C32.799 146.017 32.5646 145.677 32.2308 145.358C31.897 145.04 31.5464 144.821 31.1789 144.703C30.8114 144.585 30.4458 144.548 30.082 144.591C29.7183 144.634 29.3658 144.747 29.0246 144.932C28.6911 145.116 28.3875 145.352 28.114 145.639Z" fill="white"/>
<path d="M36.353 149.238L32.7849 153.827L33.3634 154.277L36.2269 150.594L36.2398 150.604L35.7739 156.151L36.4424 156.671L40.0106 152.081L39.4321 151.632L36.5386 155.353L36.5257 155.343L37.0023 149.743L36.353 149.238Z" fill="white"/>
<path d="M44.8362 157.326L45.456 157.717C45.6177 157.44 45.7111 157.175 45.7364 156.921C45.7691 156.666 45.7434 156.422 45.6592 156.189C45.5796 155.959 45.4508 155.746 45.2726 155.551C45.0945 155.355 44.8792 155.177 44.6267 155.018C44.4018 154.876 44.1626 154.767 43.9092 154.69C43.6632 154.612 43.4177 154.579 43.1725 154.591C42.9348 154.602 42.7076 154.667 42.4907 154.787C42.2768 154.902 42.0916 155.084 41.9352 155.332C41.7933 155.557 41.7182 155.773 41.7098 155.979C41.7089 156.184 41.7516 156.381 41.8376 156.57C41.9312 156.757 42.0533 156.94 42.2039 157.119C42.3573 157.293 42.516 157.463 42.6798 157.631C42.8512 157.797 43.0179 157.96 43.1801 158.12C43.3422 158.28 43.475 158.441 43.5785 158.602C43.6895 158.762 43.7552 158.922 43.7759 159.083C43.8011 159.246 43.7601 159.413 43.6529 159.583C43.54 159.762 43.4106 159.886 43.2647 159.954C43.1188 160.023 42.9645 160.054 42.8017 160.047C42.6418 160.036 42.4774 159.997 42.3085 159.928C42.1442 159.863 41.9886 159.784 41.8417 159.692C41.6581 159.576 41.4935 159.44 41.3481 159.284C41.2026 159.128 41.0937 158.96 41.0214 158.779C40.9536 158.602 40.9248 158.414 40.9348 158.215C40.9524 158.014 41.0263 157.81 41.1566 157.604L40.5369 157.213C40.3486 157.511 40.2378 157.804 40.2043 158.091C40.1784 158.376 40.2124 158.648 40.3062 158.906C40.4075 159.162 40.5581 159.402 40.758 159.624C40.9625 159.849 41.2024 160.049 41.4779 160.223C41.7028 160.365 41.9452 160.479 42.2049 160.566C42.4663 160.66 42.725 160.708 42.981 160.709C43.24 160.705 43.4847 160.648 43.7153 160.537C43.9535 160.424 44.1551 160.237 44.3201 159.975C44.4736 159.732 44.5552 159.501 44.5647 159.282C44.5789 159.066 44.5435 158.858 44.4586 158.657C44.3783 158.458 44.2629 158.27 44.1123 158.092C43.9646 157.909 43.8066 157.732 43.6381 157.562C43.4743 157.394 43.3098 157.232 43.1448 157.077C42.9826 156.917 42.8446 156.759 42.7308 156.604C42.6215 156.452 42.5499 156.301 42.5161 156.151C42.4897 155.999 42.5242 155.848 42.6198 155.696C42.7212 155.536 42.835 155.421 42.9613 155.354C43.0951 155.284 43.2328 155.249 43.3743 155.248C43.5204 155.251 43.6688 155.28 43.8193 155.336C43.9698 155.393 44.1139 155.465 44.2516 155.551C44.5913 155.766 44.8184 156.021 44.9328 156.318C45.0547 156.613 45.0225 156.949 44.8362 157.326Z" fill="white"/>
<path d="M48.7892 161.512L50.8915 159.537L50.906 159.544L50.5478 162.401L48.7892 161.512ZM50.844 158.728L46.2016 162.896L46.9064 163.252L48.2774 161.983L50.4719 163.093L50.2491 164.941L51.0121 165.327L51.607 159.114L50.844 158.728Z" fill="white"/>
<path d="M56.1198 163.911L56.7935 162.19L58.234 162.754C58.3907 162.815 58.5334 162.883 58.6619 162.957C58.7975 163.027 58.9065 163.113 58.9889 163.216C59.0713 163.318 59.1211 163.436 59.1382 163.571C59.1553 163.706 59.1263 163.87 59.0511 164.062C58.9383 164.35 58.7623 164.532 58.5229 164.607C58.2906 164.679 57.9698 164.635 57.5603 164.475L56.1198 163.911ZM56.3106 161.302L54.1916 166.715L56.8073 167.739C57.0752 167.844 57.3271 167.893 57.5629 167.886C57.8058 167.876 58.0231 167.827 58.215 167.739C58.4139 167.648 58.5853 167.523 58.7293 167.363C58.8733 167.204 58.9839 167.026 59.061 166.829C59.1916 166.495 59.2139 166.178 59.128 165.876C59.0422 165.574 58.8463 165.322 58.5403 165.121L58.5463 165.106C58.8436 165.106 59.1011 165.029 59.3187 164.875C59.5433 164.718 59.712 164.496 59.8248 164.207C59.9317 163.934 59.9585 163.68 59.9053 163.443C59.8572 163.209 59.7655 163.004 59.6301 162.828C59.5691 162.746 59.4853 162.67 59.379 162.599C59.2777 162.53 59.1633 162.465 59.0358 162.403C58.9103 162.337 58.7793 162.277 58.6429 162.223C58.5134 162.167 58.3906 162.116 58.2743 162.07L56.3106 161.302ZM55.1493 166.391L55.8823 164.518L57.5276 165.162C57.6793 165.221 57.8199 165.294 57.9496 165.379C58.0812 165.46 58.1862 165.557 58.2647 165.669C58.3502 165.778 58.403 165.904 58.4232 166.046C58.4434 166.188 58.4189 166.347 58.3496 166.524C58.2309 166.827 58.0469 167.029 57.7977 167.13C57.5535 167.233 57.2722 167.222 56.9538 167.097L55.1493 166.391Z" fill="white"/>
<path d="M63.4957 163.919L61.8636 169.499L65.5599 170.58L65.7428 169.955L62.7888 169.091L64.2381 164.136L63.4957 163.919Z" fill="white"/>
<path d="M69.8608 165.634L68.7104 171.332L72.669 172.131L72.7979 171.493L69.5975 170.847L69.9955 168.875L72.9565 169.473L73.0853 168.835L70.1244 168.237L70.4901 166.425L73.6666 167.067L73.7955 166.428L69.8608 165.634Z" fill="white"/>
<path d="M81.0205 170.555L80.9793 171.205L83.3277 171.354L83.3688 170.703L81.0205 170.555Z" fill="white"/>
<path d="M91.5687 167.49L91.9911 173.288L96.0189 172.994L95.9716 172.345L92.7152 172.582L92.5691 170.576L95.5818 170.357L95.5345 169.707L92.5218 169.926L92.3875 168.083L95.6195 167.848L95.5721 167.198L91.5687 167.49Z" fill="white"/>
<path d="M102.948 167.876L103.711 167.747C103.616 167.449 103.48 167.197 103.302 166.99C103.123 166.778 102.916 166.612 102.681 166.492C102.446 166.372 102.188 166.295 101.907 166.26C101.625 166.225 101.335 166.233 101.035 166.284C100.596 166.358 100.219 166.504 99.9038 166.723C99.5929 166.935 99.3455 167.197 99.1615 167.509C98.9829 167.82 98.866 168.17 98.8107 168.559C98.7545 168.943 98.7617 169.344 98.8324 169.761C98.903 170.179 99.0226 170.56 99.1912 170.906C99.3651 171.251 99.5845 171.539 99.8492 171.769C100.114 172 100.425 172.164 100.783 172.263C101.141 172.357 101.541 172.366 101.985 172.291C102.719 172.167 103.263 171.869 103.618 171.396C103.973 170.923 104.126 170.319 104.079 169.584L103.316 169.713C103.34 169.951 103.329 170.178 103.283 170.395C103.237 170.612 103.155 170.808 103.036 170.982C102.921 171.15 102.772 171.294 102.588 171.413C102.409 171.526 102.194 171.604 101.942 171.646C101.6 171.704 101.295 171.69 101.027 171.603C100.759 171.516 100.526 171.379 100.33 171.192C100.137 170.999 99.9793 170.764 99.8554 170.488C99.7307 170.206 99.6407 169.902 99.5855 169.576C99.5348 169.276 99.5234 168.981 99.5512 168.69C99.5791 168.399 99.6525 168.133 99.7715 167.893C99.8949 167.646 100.066 167.438 100.285 167.269C100.51 167.099 100.793 166.985 101.136 166.927C101.537 166.859 101.9 166.902 102.223 167.057C102.552 167.211 102.793 167.483 102.948 167.876Z" fill="white"/>
<path d="M107.814 167.984C107.736 167.701 107.696 167.414 107.694 167.122C107.691 166.824 107.738 166.544 107.834 166.281C107.931 166.018 108.084 165.787 108.294 165.588C108.502 165.385 108.777 165.236 109.117 165.142C109.457 165.048 109.769 165.036 110.052 165.104C110.334 165.167 110.584 165.287 110.801 165.464C111.019 165.64 111.203 165.857 111.352 166.114C111.5 166.366 111.613 166.633 111.691 166.916C111.769 167.199 111.81 167.489 111.813 167.786C111.814 168.078 111.767 168.356 111.671 168.619C111.574 168.882 111.422 169.116 111.213 169.319C111.003 169.518 110.728 169.664 110.388 169.758C110.048 169.851 109.737 169.867 109.455 169.804C109.171 169.735 108.921 169.613 108.703 169.436C108.486 169.26 108.303 169.046 108.155 168.794C108.005 168.536 107.891 168.267 107.814 167.984ZM107.068 168.189C107.173 168.571 107.33 168.925 107.537 169.251C107.749 169.57 108.005 169.834 108.305 170.044C108.605 170.255 108.945 170.395 109.324 170.465C109.703 170.529 110.114 170.5 110.559 170.378C111.004 170.255 111.372 170.07 111.664 169.82C111.954 169.566 112.174 169.272 112.324 168.937C112.474 168.603 112.556 168.246 112.569 167.865C112.586 167.477 112.542 167.093 112.437 166.711C112.332 166.329 112.173 165.978 111.962 165.659C111.754 165.334 111.5 165.066 111.2 164.856C110.9 164.645 110.56 164.505 110.18 164.435C109.801 164.365 109.389 164.392 108.944 164.514C108.499 164.637 108.131 164.825 107.841 165.08C107.551 165.334 107.331 165.628 107.181 165.962C107.031 166.297 106.947 166.657 106.93 167.045C106.917 167.426 106.963 167.807 107.068 168.189Z" fill="white"/>
<path d="M115.356 166.026L115.581 166.637L117.788 165.821L117.563 165.21L115.356 166.026Z" fill="white"/>
<path d="M119.608 160.906L122.065 166.175L122.766 165.848L121.716 163.597L123.428 162.799C123.6 162.719 123.751 162.682 123.879 162.687C124.005 162.689 124.121 162.718 124.226 162.777C124.329 162.831 124.423 162.91 124.508 163.014C124.59 163.114 124.671 163.223 124.75 163.341C124.834 163.458 124.91 163.581 124.977 163.712C125.044 163.842 125.107 163.966 125.167 164.081C125.225 164.192 125.283 164.291 125.341 164.378C125.404 164.462 125.473 164.52 125.548 164.551L126.33 164.186C126.215 164.132 126.111 164.057 126.019 163.963C125.93 163.861 125.845 163.75 125.766 163.631C125.687 163.513 125.613 163.388 125.547 163.258C125.48 163.127 125.412 163 125.342 162.877C125.268 162.756 125.188 162.643 125.104 162.539C125.024 162.432 124.933 162.346 124.83 162.28C124.73 162.207 124.615 162.159 124.484 162.136C124.359 162.11 124.213 162.119 124.047 162.16L124.04 162.145C124.318 161.908 124.473 161.635 124.503 161.328C124.538 161.018 124.481 160.703 124.332 160.383C124.132 159.955 123.833 159.685 123.433 159.572C123.037 159.457 122.589 159.516 122.087 159.75L119.608 160.906ZM122.902 162.326L121.441 163.007L120.584 161.17L122.326 160.357C122.655 160.204 122.933 160.176 123.158 160.275C123.384 160.373 123.559 160.555 123.683 160.821C123.772 161.013 123.811 161.186 123.799 161.341C123.791 161.489 123.747 161.626 123.668 161.753C123.592 161.872 123.486 161.979 123.35 162.072C123.214 162.165 123.064 162.25 122.902 162.326Z" fill="white"/>
<path d="M126.451 157.52L129.38 162.542L132.868 160.507L132.54 159.945L129.72 161.59L128.706 159.852L131.316 158.33L130.987 157.768L128.378 159.29L127.447 157.693L130.246 156.061L129.918 155.498L126.451 157.52Z" fill="white"/>
<path d="M136.232 153.246L136.828 152.821C136.634 152.566 136.424 152.379 136.198 152.26C135.974 152.133 135.739 152.064 135.491 152.054C135.248 152.041 135.003 152.08 134.754 152.17C134.505 152.261 134.26 152.393 134.017 152.566C133.8 152.721 133.608 152.901 133.442 153.107C133.276 153.305 133.153 153.519 133.071 153.751C132.991 153.975 132.965 154.21 132.994 154.456C133.02 154.698 133.118 154.938 133.288 155.177C133.443 155.393 133.614 155.544 133.802 155.63C133.991 155.709 134.19 155.744 134.397 155.736C134.606 155.72 134.822 155.676 135.044 155.604C135.263 155.528 135.481 155.446 135.698 155.358C135.916 155.262 136.13 155.169 136.34 155.08C136.549 154.99 136.748 154.928 136.937 154.894C137.127 154.851 137.3 154.851 137.457 154.893C137.618 154.931 137.756 155.032 137.873 155.196C137.996 155.368 138.062 155.535 138.07 155.696C138.078 155.857 138.048 156.011 137.98 156.16C137.91 156.303 137.811 156.441 137.684 156.571C137.562 156.699 137.43 156.813 137.288 156.914C137.111 157.04 136.923 157.141 136.724 157.216C136.524 157.292 136.328 157.329 136.133 157.328C135.943 157.323 135.758 157.278 135.578 157.194C135.399 157.102 135.238 156.956 135.096 156.757L134.5 157.183C134.705 157.47 134.934 157.683 135.186 157.823C135.441 157.955 135.705 158.026 135.98 158.037C136.255 158.041 136.534 157.992 136.815 157.891C137.101 157.787 137.377 157.641 137.642 157.451C137.858 157.297 138.056 157.116 138.235 156.908C138.421 156.702 138.563 156.481 138.661 156.244C138.756 156.003 138.795 155.755 138.78 155.499C138.765 155.236 138.668 154.979 138.489 154.727C138.321 154.493 138.139 154.33 137.94 154.238C137.746 154.143 137.539 154.097 137.321 154.1C137.107 154.099 136.889 154.134 136.667 154.206C136.442 154.274 136.218 154.353 135.997 154.444C135.779 154.533 135.568 154.624 135.361 154.718C135.152 154.807 134.954 154.875 134.767 154.922C134.584 154.965 134.418 154.974 134.266 154.949C134.116 154.916 133.989 154.827 133.885 154.681C133.774 154.526 133.712 154.378 133.697 154.235C133.683 154.085 133.703 153.944 133.756 153.813C133.813 153.679 133.896 153.552 134.006 153.434C134.115 153.316 134.236 153.21 134.368 153.116C134.695 152.882 135.018 152.769 135.336 152.775C135.655 152.774 135.954 152.931 136.232 153.246Z" fill="white"/>
<path d="M141.02 150.848L139.622 149.237L140.766 148.245C141.098 147.956 141.401 147.816 141.673 147.824C141.947 147.824 142.197 147.955 142.425 148.218C142.652 148.48 142.749 148.749 142.714 149.023C142.683 149.294 142.5 149.572 142.164 149.856L141.02 150.848ZM138.611 149.252L142.421 153.643L143.005 153.136L141.447 151.34L142.788 150.177C143.234 149.797 143.47 149.394 143.497 148.969C143.527 148.54 143.365 148.121 143.009 147.711C142.653 147.301 142.263 147.083 141.837 147.057C141.413 147.023 140.979 147.198 140.536 147.582L138.611 149.252Z" fill="white"/>
<path d="M146.671 145.819C146.458 145.618 146.275 145.392 146.122 145.143C145.966 144.89 145.861 144.626 145.807 144.351C145.754 144.076 145.765 143.799 145.842 143.521C145.915 143.239 146.073 142.969 146.315 142.713C146.558 142.457 146.818 142.285 147.096 142.197C147.37 142.105 147.646 142.078 147.923 142.116C148.201 142.155 148.47 142.246 148.731 142.388C148.989 142.527 149.224 142.697 149.436 142.899C149.649 143.1 149.834 143.328 149.991 143.581C150.143 143.83 150.246 144.092 150.3 144.367C150.353 144.642 150.344 144.921 150.271 145.203C150.194 145.482 150.034 145.749 149.792 146.005C149.549 146.261 149.291 146.435 149.017 146.527C148.739 146.615 148.461 146.64 148.184 146.602C147.906 146.563 147.639 146.474 147.382 146.336C147.12 146.193 146.883 146.021 146.671 145.819ZM146.139 146.381C146.426 146.653 146.744 146.875 147.09 147.046C147.436 147.21 147.792 147.304 148.157 147.328C148.523 147.353 148.886 147.297 149.247 147.16C149.604 147.02 149.941 146.782 150.259 146.447C150.576 146.112 150.795 145.763 150.915 145.399C151.032 145.031 151.068 144.665 151.024 144.301C150.979 143.938 150.864 143.59 150.679 143.257C150.493 142.916 150.256 142.61 149.968 142.337C149.68 142.065 149.364 141.847 149.017 141.684C148.671 141.512 148.315 141.415 147.95 141.39C147.584 141.365 147.221 141.421 146.86 141.558C146.499 141.694 146.16 141.93 145.842 142.265C145.525 142.6 145.308 142.952 145.192 143.32C145.075 143.688 145.039 144.053 145.083 144.417C145.128 144.78 145.243 145.132 145.429 145.473C145.614 145.806 145.851 146.108 146.139 146.381Z" fill="white"/>
<path d="M149.707 138.128L154.31 141.678L154.757 141.098L151.063 138.249L151.073 138.236L156.622 138.681L157.139 138.01L152.536 134.459L152.089 135.04L155.822 137.919L155.812 137.932L150.209 137.477L149.707 138.128Z" fill="white"/>
<path d="M157.762 129.614L158.15 128.993C157.873 128.832 157.608 128.74 157.354 128.715C157.098 128.684 156.854 128.71 156.622 128.795C156.392 128.876 156.18 129.005 155.985 129.184C155.79 129.363 155.613 129.579 155.455 129.832C155.314 130.058 155.205 130.297 155.13 130.551C155.053 130.797 155.021 131.043 155.034 131.288C155.045 131.526 155.111 131.753 155.232 131.969C155.348 132.183 155.531 132.367 155.779 132.523C156.005 132.664 156.221 132.738 156.427 132.745C156.632 132.746 156.829 132.702 157.018 132.615C157.205 132.521 157.387 132.398 157.565 132.247C157.738 132.093 157.908 131.934 158.075 131.769C158.24 131.597 158.403 131.43 158.562 131.267C158.721 131.104 158.882 130.971 159.043 130.867C159.202 130.755 159.362 130.689 159.523 130.668C159.686 130.642 159.853 130.682 160.023 130.789C160.203 130.901 160.327 131.03 160.396 131.175C160.465 131.321 160.497 131.475 160.491 131.638C160.48 131.798 160.442 131.963 160.374 132.132C160.31 132.296 160.231 132.452 160.139 132.599C160.024 132.783 159.889 132.949 159.733 133.095C159.578 133.241 159.41 133.35 159.23 133.423C159.053 133.492 158.865 133.521 158.666 133.512C158.465 133.495 158.261 133.422 158.054 133.292L157.665 133.914C157.964 134.101 158.257 134.211 158.544 134.243C158.83 134.268 159.101 134.233 159.359 134.138C159.615 134.036 159.854 133.884 160.076 133.683C160.3 133.478 160.499 133.237 160.672 132.961C160.813 132.736 160.926 132.493 161.012 132.233C161.105 131.971 161.152 131.712 161.152 131.456C161.148 131.197 161.089 130.953 160.977 130.723C160.863 130.485 160.675 130.284 160.413 130.12C160.169 129.967 159.938 129.887 159.719 129.878C159.503 129.865 159.295 129.901 159.094 129.986C158.896 130.068 158.708 130.184 158.53 130.335C158.348 130.483 158.172 130.642 158.002 130.811C157.835 130.976 157.674 131.141 157.519 131.306C157.36 131.469 157.203 131.608 157.048 131.722C156.896 131.832 156.745 131.904 156.596 131.939C156.444 131.966 156.293 131.932 156.141 131.837C155.98 131.736 155.865 131.622 155.797 131.496C155.727 131.363 155.691 131.225 155.69 131.084C155.692 130.938 155.72 130.789 155.776 130.638C155.832 130.488 155.903 130.343 155.99 130.205C156.203 129.865 156.457 129.637 156.754 129.521C157.048 129.398 157.384 129.429 157.762 129.614Z" fill="white"/>
<path d="M161.933 125.645L159.95 123.55L159.957 123.536L162.815 123.883L161.933 125.645ZM159.141 123.601L163.326 128.227L163.68 127.521L162.406 126.155L163.507 123.956L165.357 124.172L165.739 123.407L159.524 122.836L159.141 123.601Z" fill="white"/>
<path d="M164.305 118.305L162.581 117.638L163.14 116.195C163.2 116.038 163.267 115.896 163.34 115.767C163.41 115.631 163.496 115.522 163.598 115.439C163.7 115.356 163.819 115.306 163.953 115.288C164.088 115.27 164.252 115.299 164.444 115.373C164.733 115.485 164.915 115.66 164.992 115.899C165.065 116.131 165.022 116.452 164.863 116.862L164.305 118.305ZM161.695 118.124L167.116 120.223L168.13 117.603C168.234 117.335 168.282 117.083 168.274 116.847C168.263 116.604 168.214 116.387 168.125 116.195C168.033 115.997 167.907 115.826 167.747 115.682C167.587 115.539 167.409 115.429 167.211 115.353C166.877 115.223 166.559 115.202 166.258 115.289C165.956 115.376 165.706 115.573 165.505 115.88L165.49 115.874C165.489 115.577 165.411 115.32 165.256 115.103C165.099 114.879 164.875 114.711 164.587 114.599C164.314 114.493 164.059 114.467 163.822 114.521C163.588 114.57 163.383 114.663 163.209 114.799C163.127 114.86 163.05 114.944 162.98 115.051C162.912 115.153 162.847 115.267 162.786 115.395C162.72 115.521 162.66 115.652 162.607 115.789C162.551 115.918 162.501 116.041 162.456 116.158L161.695 118.124ZM166.788 119.266L164.912 118.54L165.55 116.893C165.609 116.741 165.681 116.6 165.766 116.47C165.846 116.338 165.942 116.232 166.054 116.154C166.163 116.068 166.289 116.014 166.431 115.994C166.572 115.973 166.732 115.997 166.909 116.065C167.213 116.183 167.416 116.366 167.517 116.615C167.621 116.859 167.611 117.14 167.487 117.459L166.788 119.266Z" fill="white"/>
<path d="M164.284 110.93L169.87 112.54L170.937 108.84L170.311 108.659L169.459 111.617L164.499 110.186L164.284 110.93Z" fill="white"/>
<path d="M165.974 104.558L171.677 105.686L172.461 101.725L171.822 101.598L171.188 104.801L169.215 104.411L169.802 101.447L169.163 101.321L168.576 104.284L166.763 103.925L167.392 100.746L166.753 100.62L165.974 104.558Z" fill="white"/>
<path d="M170.852 93.3799L171.502 93.4185L171.642 91.0696L170.992 91.031L170.852 93.3799Z" fill="white"/>
<path d="M167.747 82.8429L173.543 82.3983L173.234 78.3717L172.585 78.4215L172.835 81.6769L170.829 81.8307L170.598 78.8188L169.949 78.8686L170.18 81.8805L168.337 82.0218L168.089 78.7908L167.44 78.8406L167.747 82.8429Z" fill="white"/>
<path d="M168.09 71.4624L167.958 70.7002C167.661 70.7958 167.409 70.933 167.203 71.1119C166.992 71.2917 166.827 71.4993 166.708 71.7347C166.589 71.9702 166.512 72.2285 166.478 72.5098C166.444 72.7912 166.453 73.0816 166.505 73.3811C166.581 73.8197 166.729 74.1962 166.948 74.5108C167.162 74.8209 167.425 75.0673 167.737 75.2501C168.049 75.4275 168.4 75.5431 168.789 75.5969C169.173 75.6516 169.574 75.6428 169.991 75.5706C170.408 75.4984 170.789 75.3773 171.135 75.2074C171.479 75.0321 171.766 74.8117 171.995 74.5461C172.225 74.2805 172.388 73.9685 172.486 73.6101C172.578 73.2525 172.586 72.8518 172.509 72.4079C172.382 71.6751 172.082 71.1322 171.607 70.7791C171.133 70.426 170.529 70.2745 169.793 70.3246L169.925 71.0868C170.164 71.0621 170.391 71.0723 170.608 71.1173C170.825 71.1624 171.021 71.2441 171.196 71.3626C171.365 71.4767 171.509 71.6253 171.629 71.8083C171.742 71.987 171.821 72.202 171.864 72.4534C171.923 72.7957 171.91 73.101 171.824 73.3692C171.739 73.6375 171.603 73.8704 171.417 74.0678C171.224 74.2609 170.99 74.4199 170.714 74.5448C170.433 74.6706 170.129 74.7617 169.803 74.8182C169.503 74.87 169.208 74.8826 168.917 74.8558C168.626 74.8291 168.36 74.7567 168.119 74.6386C167.872 74.5161 167.664 74.3456 167.494 74.1272C167.323 73.9034 167.207 73.6203 167.148 73.278C167.079 72.8769 167.121 72.5143 167.274 72.1903C167.426 71.861 167.698 71.6183 168.09 71.4624Z" fill="white"/>
<path d="M168.179 66.5966C167.897 66.6755 167.61 66.7164 167.317 66.7192C167.02 66.7234 166.739 66.6779 166.476 66.5824C166.213 66.4869 165.981 66.3346 165.782 66.1255C165.577 65.9178 165.427 65.644 165.332 65.3042C165.237 64.9644 165.223 64.6527 165.291 64.369C165.353 64.0868 165.472 63.8365 165.647 63.6183C165.823 63.4001 166.039 63.2157 166.296 63.0651C166.547 62.9159 166.814 62.8018 167.096 62.7229C167.379 62.644 167.669 62.6024 167.966 62.5982C168.258 62.5954 168.536 62.6417 168.8 62.7371C169.063 62.8326 169.297 62.9842 169.502 63.1919C169.701 63.401 169.848 63.6755 169.943 64.0153C170.038 64.3551 170.055 64.6661 169.993 64.9484C169.925 65.232 169.804 65.483 169.628 65.7012C169.452 65.9194 169.239 66.1031 168.988 66.2523C168.731 66.4029 168.461 66.5177 168.179 66.5966ZM168.387 67.3415C168.769 67.2349 169.122 67.077 169.447 66.8678C169.765 66.6549 170.029 66.398 170.238 66.0973C170.447 65.7965 170.585 65.4561 170.654 65.0763C170.717 64.6979 170.687 64.2865 170.563 63.8421C170.438 63.3978 170.251 63.0303 170.001 62.7395C169.745 62.4503 169.45 62.2312 169.115 62.0824C168.781 61.9336 168.423 61.8533 168.042 61.8414C167.654 61.8258 167.27 61.8713 166.888 61.978C166.506 62.0847 166.157 62.2445 165.838 62.4574C165.514 62.6665 165.247 62.9215 165.038 63.2223C164.829 63.5231 164.69 63.8634 164.622 64.2433C164.553 64.6231 164.581 65.0352 164.705 65.4796C164.829 65.9239 165.019 66.2907 165.275 66.58C165.53 66.8693 165.825 67.0883 166.16 67.2371C166.495 67.3859 166.856 67.4681 167.244 67.4838C167.625 67.4956 168.006 67.4482 168.387 67.3415Z" fill="white"/>
<path d="M166.192 59.0617L166.803 58.8335L165.978 56.6296L165.368 56.8578L166.192 59.0617Z" fill="white"/>
<path d="M161.056 54.8294L166.315 52.3523L165.986 51.6525L163.739 52.7107L162.934 51.0018C162.853 50.8299 162.815 50.6797 162.821 50.5511C162.821 50.4248 162.851 50.309 162.909 50.2035C162.962 50.1004 163.041 50.0063 163.145 49.9213C163.244 49.8387 163.353 49.7574 163.471 49.6777C163.588 49.593 163.711 49.517 163.841 49.4496C163.971 49.3822 164.094 49.3184 164.21 49.2579C164.32 49.1998 164.419 49.1414 164.505 49.0828C164.589 49.0192 164.647 48.9501 164.678 48.8756L164.31 48.0948C164.256 48.2101 164.182 48.3139 164.088 48.4064C163.986 48.4963 163.876 48.5811 163.758 48.6609C163.639 48.7407 163.515 48.8143 163.384 48.8816C163.254 48.949 163.128 49.0176 163.004 49.0876C162.884 49.1625 162.771 49.2424 162.667 49.3273C162.561 49.4074 162.475 49.4989 162.41 49.6017C162.337 49.702 162.289 49.8174 162.267 49.948C162.242 50.0737 162.251 50.2196 162.293 50.3857L162.278 50.3927C162.039 50.1151 161.766 49.9618 161.459 49.9327C161.149 49.8987 160.834 49.9569 160.515 50.1072C160.088 50.3084 159.818 50.6093 159.707 51.0097C159.593 51.4053 159.654 51.8535 159.89 52.3544L161.056 54.8294ZM162.463 51.5297L163.15 52.9882L161.315 53.852L160.497 52.1137C160.342 51.7847 160.313 51.5072 160.411 51.2812C160.508 51.0553 160.69 50.8798 160.955 50.7549C161.146 50.6647 161.32 50.6251 161.475 50.636C161.623 50.6444 161.76 50.6877 161.887 50.7659C162.007 50.8416 162.113 50.9473 162.207 51.083C162.301 51.2188 162.386 51.3677 162.463 51.5297Z" fill="white"/>
<path d="M157.645 47.999L162.655 45.0508L160.607 41.5702L160.046 41.9005L161.702 44.7145L159.968 45.7344L158.437 43.131L157.875 43.4613L159.407 46.0647L157.814 47.0021L156.171 44.2091L155.609 44.5395L157.645 47.999Z" fill="white"/>
<path d="M153.333 38.2346L152.905 37.6397C152.651 37.8356 152.465 38.0463 152.347 38.272C152.221 38.4964 152.153 38.7323 152.144 38.9797C152.131 39.2226 152.171 39.4683 152.263 39.7166C152.354 39.9649 152.487 40.2103 152.662 40.4526C152.817 40.6685 152.998 40.8594 153.204 41.0253C153.403 41.19 153.618 41.3127 153.85 41.3933C154.074 41.4727 154.309 41.4975 154.555 41.4676C154.797 41.441 155.036 41.342 155.274 41.1709C155.49 41.0156 155.641 40.8438 155.726 40.6554C155.804 40.4659 155.838 40.2673 155.829 40.0598C155.813 39.8509 155.768 39.6356 155.695 39.4137C155.618 39.195 155.535 38.9773 155.446 38.7605C155.35 38.5425 155.256 38.3289 155.166 38.1197C155.076 37.9105 155.013 37.7117 154.977 37.5231C154.935 37.3333 154.934 37.1601 154.975 37.0035C155.013 36.8424 155.113 36.7033 155.276 36.586C155.448 36.4624 155.614 36.3962 155.775 36.3875C155.936 36.3788 156.091 36.4079 156.239 36.4749C156.384 36.5451 156.521 36.6434 156.652 36.7698C156.78 36.8918 156.895 37.0233 156.996 37.1643C157.123 37.3406 157.224 37.5283 157.301 37.7274C157.377 37.9266 157.415 38.1233 157.414 38.3177C157.411 38.5076 157.367 38.693 157.283 38.8737C157.191 39.0532 157.046 39.2143 156.848 39.3569L157.276 39.9518C157.562 39.7458 157.775 39.516 157.914 39.2625C158.045 39.0078 158.115 38.7432 158.125 38.4687C158.127 38.1929 158.077 37.9145 157.975 37.6334C157.87 37.3479 157.723 37.073 157.533 36.8086C157.377 36.5926 157.195 36.3957 156.987 36.2179C156.78 36.0324 156.558 35.8912 156.321 35.7941C156.08 35.7003 155.832 35.6617 155.576 35.6783C155.313 35.6937 155.056 35.7917 154.805 35.9724C154.571 36.1403 154.409 36.3239 154.318 36.5229C154.224 36.7176 154.179 36.9241 154.182 37.1424C154.182 37.3563 154.218 37.5742 154.291 37.7961C154.359 38.0211 154.44 38.2442 154.532 38.4654C154.621 38.6822 154.713 38.8936 154.808 39.0996C154.898 39.3088 154.967 39.5067 155.014 39.6933C155.058 39.8755 155.068 40.0424 155.043 40.1939C155.011 40.3442 154.922 40.4716 154.776 40.5762C154.622 40.6872 154.474 40.7505 154.331 40.7661C154.181 40.7804 154.04 40.7613 153.909 40.7088C153.774 40.6518 153.648 40.5689 153.53 40.4602C153.411 40.3514 153.304 40.2309 153.209 40.0987C152.975 39.7726 152.86 39.4506 152.865 39.1325C152.863 38.8132 153.019 38.5139 153.333 38.2346Z" fill="white"/>
<path d="M150.916 33.4552L149.31 34.8593L148.314 33.7191C148.024 33.3881 147.883 33.0863 147.89 32.8136C147.889 32.5404 148.019 32.2895 148.281 32.0608C148.542 31.8322 148.81 31.7348 149.085 31.7686C149.356 31.7983 149.634 31.9805 149.92 32.315L150.916 33.4552ZM149.329 35.8703L153.706 32.044L153.197 31.4616L151.407 33.0265L150.238 31.6902C149.857 31.2453 149.453 31.0105 149.028 30.9858C148.599 30.957 148.18 31.1212 147.771 31.4785C147.363 31.8358 147.146 32.2271 147.121 32.6524C147.089 33.0773 147.266 33.5103 147.652 33.9517L149.329 35.8703Z" fill="white"/>
<path d="M145.866 27.8241C145.665 28.0377 145.441 28.2213 145.192 28.375C144.939 28.5326 144.676 28.6387 144.401 28.6933C144.126 28.7479 143.849 28.7373 143.571 28.6615C143.288 28.5896 143.018 28.4329 142.761 28.1912C142.504 27.9496 142.331 27.69 142.242 27.4125C142.149 27.1389 142.121 26.8632 142.158 26.5856C142.196 26.3079 142.285 26.0383 142.427 25.7766C142.565 25.5189 142.734 25.2832 142.935 25.0696C143.136 24.856 143.362 24.6704 143.615 24.5128C143.863 24.3592 144.125 24.2551 144.4 24.2005C144.675 24.1458 144.953 24.1545 145.236 24.2263C145.515 24.3022 145.783 24.4609 146.04 24.7025C146.297 24.9441 146.472 25.2018 146.565 25.4754C146.654 25.7529 146.68 26.0305 146.643 26.3082C146.605 26.5858 146.517 26.8535 146.38 27.1112C146.238 27.3729 146.067 27.6105 145.866 27.8241ZM146.43 28.3538C146.701 28.0651 146.922 27.7472 147.091 27.4002C147.253 27.0534 147.346 26.6972 147.369 26.3317C147.392 25.9662 147.335 25.6031 147.197 25.2426C147.055 24.886 146.816 24.5498 146.48 24.2338C146.144 23.9178 145.794 23.7002 145.429 23.581C145.061 23.4657 144.695 23.431 144.331 23.4768C143.968 23.5227 143.62 23.639 143.288 23.826C142.948 24.0132 142.643 24.2512 142.371 24.5399C142.1 24.8287 141.883 25.1464 141.721 25.4932C141.552 25.8403 141.455 26.1965 141.432 26.5621C141.409 26.9276 141.466 27.2906 141.604 27.6511C141.742 28.0117 141.979 28.3499 142.315 28.6659C142.651 28.9819 143.004 29.1975 143.372 29.3128C143.74 29.4281 144.106 29.4628 144.47 29.4169C144.833 29.3711 145.185 29.2546 145.524 29.0674C145.857 28.8804 146.158 28.6426 146.43 28.3538Z" fill="white"/>
<path d="M138.163 24.8172L141.696 20.2005L141.114 19.7551L138.279 23.4602L138.266 23.4503L138.689 17.8996L138.017 17.385L134.484 22.0018L135.066 22.4471L137.931 18.7032L137.944 18.7131L137.51 24.3175L138.163 24.8172Z" fill="white"/>
<path d="M129.619 16.7951L128.996 16.4089C128.836 16.6867 128.745 16.9526 128.721 17.2064C128.691 17.462 128.718 17.7058 128.804 17.938C128.886 18.1673 129.016 18.3792 129.196 18.5736C129.375 18.768 129.592 18.9439 129.846 19.1013C130.072 19.2415 130.312 19.3488 130.566 19.4233C130.812 19.4996 131.058 19.5307 131.303 19.5166C131.541 19.5043 131.767 19.4373 131.983 19.3158C132.196 19.1988 132.38 19.0158 132.535 18.7667C132.675 18.5407 132.748 18.3244 132.755 18.1178C132.754 17.9129 132.71 17.7163 132.623 17.5279C132.528 17.3412 132.404 17.1592 132.252 16.982C132.098 16.8093 131.938 16.6398 131.772 16.4736C131.6 16.309 131.432 16.1473 131.269 15.9885C131.105 15.8297 130.971 15.6699 130.866 15.5092C130.754 15.3502 130.687 15.1904 130.665 15.03C130.639 14.8667 130.679 14.6997 130.785 14.529C130.896 14.3491 131.025 14.2244 131.17 14.1548C131.315 14.0853 131.469 14.0531 131.632 14.0583C131.792 14.0681 131.957 14.1064 132.126 14.1731C132.291 14.237 132.447 14.3147 132.595 14.4063C132.779 14.5207 132.945 14.6554 133.092 14.8102C133.238 14.9651 133.348 15.1324 133.422 15.3122C133.491 15.4892 133.521 15.6773 133.513 15.8764C133.497 16.0772 133.425 16.2815 133.296 16.489L133.919 16.8753C134.105 16.5754 134.213 16.2819 134.244 15.9947C134.268 15.7092 134.232 15.4378 134.136 15.1803C134.033 14.9246 133.881 14.6864 133.679 14.4656C133.473 14.2419 133.231 14.0442 132.955 13.8725C132.729 13.7323 132.485 13.6198 132.225 13.535C131.963 13.4427 131.704 13.397 131.448 13.3978C131.189 13.4033 130.945 13.4626 130.715 13.5756C130.478 13.6903 130.277 13.8791 130.114 14.1421C129.963 14.3865 129.883 14.6181 129.875 14.8368C129.863 15.0526 129.9 15.2608 129.986 15.4613C130.068 15.6589 130.185 15.8464 130.337 16.0236C130.486 16.2055 130.645 16.381 130.815 16.5502C130.98 16.7165 131.146 16.8767 131.312 17.0309C131.475 17.1898 131.614 17.3464 131.729 17.5007C131.84 17.6523 131.913 17.8028 131.948 17.9522C131.975 18.1035 131.942 18.2552 131.847 18.4074C131.747 18.5689 131.634 18.684 131.508 18.7529C131.375 18.8236 131.238 18.8597 131.096 18.8614C130.95 18.8602 130.802 18.8319 130.651 18.7766C130.5 18.7213 130.355 18.6507 130.217 18.5649C129.875 18.3532 129.646 18.0994 129.53 17.8035C129.405 17.5093 129.435 17.1732 129.619 16.7951Z" fill="white"/>
<path d="M125.634 12.6389L123.546 14.6304L123.532 14.6232L123.868 11.7636L125.634 12.6389ZM123.6 15.4386L128.21 11.2357L127.503 10.8849L126.142 12.1639L123.939 11.0716L124.147 9.2211L123.381 8.84132L122.834 15.0588L123.6 15.4386Z" fill="white"/>
<path d="M118.285 10.2958L117.624 12.022L116.18 11.4692C116.022 11.409 115.879 11.3426 115.75 11.27C115.614 11.2004 115.504 11.1149 115.421 11.0133C115.338 10.9118 115.287 10.7936 115.269 10.6588C115.251 10.5239 115.279 10.3602 115.353 10.1676C115.463 9.8786 115.638 9.69553 115.877 9.61834C116.108 9.54429 116.429 9.58583 116.84 9.74295L118.285 10.2958ZM118.114 12.9068L120.192 7.47725L117.568 6.47338C117.299 6.37057 117.047 6.32346 116.811 6.33205C116.569 6.34377 116.352 6.39441 116.16 6.48398C115.962 6.57669 115.792 6.70325 115.649 6.86366C115.506 7.02408 115.397 7.20315 115.321 7.40086C115.193 7.73545 115.174 8.0533 115.262 8.35439C115.35 8.65549 115.548 8.90554 115.855 9.10455L115.849 9.11975C115.552 9.12221 115.295 9.20118 115.079 9.35666C114.855 9.51527 114.688 9.73905 114.578 10.028C114.473 10.3018 114.448 10.5567 114.503 10.7928C114.553 11.0269 114.646 11.2311 114.783 11.4055C114.845 11.4872 114.929 11.5631 115.036 11.633C115.138 11.7011 115.253 11.7654 115.381 11.8259C115.506 11.8916 115.638 11.9506 115.775 12.003C115.905 12.0585 116.028 12.1085 116.145 12.1532L118.114 12.9068ZM119.236 7.80917L118.518 9.68746L116.868 9.05604C116.715 8.99784 116.574 8.92638 116.444 8.84165C116.312 8.76198 116.206 8.6663 116.127 8.55458C116.04 8.446 115.987 8.3208 115.965 8.17898C115.944 8.03717 115.967 7.87754 116.035 7.7001C116.152 7.39593 116.334 7.19257 116.582 7.09004C116.826 6.98557 117.107 6.99444 117.427 7.11665L119.236 7.80917Z" fill="white"/>
<path d="M110.909 10.3443L112.499 4.75237L108.794 3.69947L108.616 4.32602L111.576 5.16745L110.165 10.1329L110.909 10.3443Z" fill="white"/>
<path d="M104.531 8.67833L105.638 2.97121L101.673 2.20236L101.549 2.84181L104.755 3.4634L104.372 5.43772L101.406 4.86263L101.282 5.50208L104.248 6.07717L103.896 7.89162L100.715 7.27468L100.591 7.91413L104.531 8.67833Z" fill="white"/>
<path d="M93.334 3.84299L93.3702 3.19263L91.0208 3.06189L90.9846 3.71225L93.334 3.84299Z" fill="white"/>
</g>
</svg>
