<svg width="40" height="40" viewBox="0 0 40 40" fill="none" xmlns="http://www.w3.org/2000/svg">
<path d="M20 26.6666C23.6818 26.6666 26.6667 23.6818 26.6667 19.9999C26.6667 16.318 23.6818 13.3333 20 13.3333C16.3181 13.3333 13.3333 16.318 13.3333 19.9999C13.3333 23.6818 16.3181 26.6666 20 26.6666Z" stroke="white" stroke-width="1.5" stroke-linecap="round" stroke-linejoin="round"/>
<path d="M5 26.6667V13.3333C5 8.73097 8.73097 5 13.3333 5H26.6667C31.269 5 35 8.73097 35 13.3333V26.6667C35 31.269 31.269 35 26.6667 35H13.3333C8.73097 35 5 31.269 5 26.6667Z" stroke="white" stroke-width="1.5"/>
<path d="M29.1667 10.8501L29.1833 10.8315" stroke="white" stroke-width="1.5" stroke-linecap="round" stroke-linejoin="round"/>
</svg>
