<svg width="175" height="175" viewBox="0 0 175 175" fill="none" xmlns="http://www.w3.org/2000/svg">
<g opacity="0.5">
<path d="M82.0905 7.51812L81.5914 1.72613L77.7545 2.05671L77.8104 2.70567L80.8767 2.44149L81.3198 7.58452L82.0905 7.51812Z" fill="white"/>
<path d="M74.2051 5.47696C74.2587 5.76514 74.2739 6.05492 74.2508 6.34632C74.2286 6.64304 74.1583 6.91836 74.0399 7.17225C73.9214 7.42615 73.7492 7.64311 73.5232 7.82314C73.2981 8.00851 73.0122 8.13343 72.6653 8.1979C72.3184 8.26236 72.0067 8.24853 71.73 8.15639C71.4544 8.06959 71.2157 7.92899 71.014 7.73461C70.8122 7.54022 70.6477 7.30855 70.5204 7.03959C70.3941 6.77597 70.3042 6.50007 70.2507 6.21189C70.1971 5.92371 70.1814 5.63125 70.2035 5.33452C70.2267 5.04313 70.2975 4.77049 70.4159 4.51659C70.5344 4.2627 70.7061 4.04306 70.9311 3.8577C71.1572 3.67766 71.4436 3.55541 71.7905 3.49095C72.1374 3.42648 72.4486 3.43765 72.7243 3.52445C73.0009 3.61659 73.2401 3.75985 73.4418 3.95423C73.6436 4.14862 73.8076 4.37763 73.9339 4.64125C74.0612 4.91021 74.1516 5.18878 74.2051 5.47696ZM74.9656 5.33562C74.8932 4.94605 74.7673 4.58022 74.5877 4.23816C74.4039 3.90242 74.1714 3.61712 73.8904 3.38226C73.6093 3.1474 73.2827 2.97899 72.9104 2.87703C72.5391 2.78041 72.1266 2.77425 71.673 2.85855C71.2194 2.94285 70.8367 3.09679 70.5249 3.32037C70.2141 3.54928 69.9697 3.82382 69.7918 4.14397C69.6139 4.46413 69.5021 4.8134 69.4565 5.19178C69.4066 5.5765 69.4178 5.96364 69.4902 6.35322C69.5626 6.7428 69.6907 7.10545 69.8746 7.44119C70.0541 7.78326 70.2844 8.07172 70.5654 8.30658C70.8465 8.54144 71.1731 8.70985 71.5454 8.81181C71.9177 8.91377 72.3307 8.9226 72.7843 8.8383C73.2379 8.75399 73.6201 8.59738 73.9309 8.36847C74.2417 8.13956 74.4861 7.86503 74.664 7.54487C74.8419 7.22472 74.9558 6.87228 75.0058 6.48757C75.0514 6.10918 75.038 5.7252 74.9656 5.33562Z" fill="white"/>
<path d="M62.3281 9.51685L61.5872 9.73928C61.7178 10.0231 61.8842 10.2565 62.0865 10.4395C62.2903 10.6277 62.5163 10.7667 62.7643 10.8566C63.0123 10.9465 63.278 10.9914 63.5614 10.9913C63.8447 10.9913 64.132 10.9475 64.4231 10.8601C64.8494 10.7321 65.2055 10.5402 65.4914 10.2843C65.7736 10.0352 65.9867 9.74455 66.1307 9.41229C66.2694 9.08159 66.3421 8.71972 66.3488 8.32666C66.357 7.9388 66.3003 7.54212 66.1785 7.13662C66.0568 6.73111 65.8909 6.36721 65.6807 6.04491C65.4654 5.72417 65.2122 5.46583 64.921 5.26988C64.6298 5.07394 64.3004 4.94897 63.9328 4.89498C63.5668 4.84619 63.168 4.88657 62.7365 5.01613C62.0243 5.22997 61.5213 5.5935 61.2277 6.10672C60.9341 6.61994 60.8562 7.23839 60.9941 7.96208L61.735 7.73966C61.6819 7.50623 61.6647 7.27903 61.6833 7.05806C61.702 6.83709 61.7597 6.63275 61.8563 6.44504C61.9494 6.26409 62.0796 6.10315 62.2469 5.96222C62.4107 5.82804 62.6147 5.72428 62.8591 5.65092C63.1918 5.55102 63.4965 5.52756 63.7731 5.58053C64.0497 5.6335 64.2972 5.74054 64.5156 5.90167C64.7303 6.06955 64.9163 6.28294 65.0733 6.54182C65.232 6.8059 65.3589 7.0965 65.4541 7.41363C65.5415 7.70476 65.5894 7.99642 65.5978 8.28861C65.6062 8.5808 65.5662 8.85351 65.4779 9.10672C65.3859 9.3667 65.2417 9.5942 65.0452 9.78921C64.8435 9.98578 64.5763 10.134 64.2436 10.2339C63.8537 10.351 63.4887 10.3529 63.1486 10.2396C62.8034 10.1279 62.5299 9.88698 62.3281 9.51685Z" fill="white"/>
<path d="M56.3031 9.93454L56.4406 12.816L56.4256 12.8223L54.4854 10.695L56.3031 9.93454ZM57.0864 13.3049L56.9309 7.06825L56.2023 7.37306L56.277 9.23937L54.0086 10.1884L52.7471 8.81856L51.9585 9.14851L56.2978 13.6348L57.0864 13.3049Z" fill="white"/>
<path d="M51.1466 16.0069L48.4072 10.8793L45.0104 12.6941L45.3173 13.2686L48.0319 11.8183L50.4643 16.3714L51.1466 16.0069Z" fill="white"/>
<path d="M45.0626 19.4337L41.8683 14.5765L38.4941 16.7955L38.852 17.3397L41.5799 15.5457L42.685 17.226L40.1611 18.8858L40.519 19.43L43.0429 17.7702L44.0584 19.3145L41.3509 21.095L41.7088 21.6393L45.0626 19.4337Z" fill="white"/>
<path d="M33.1064 24.2556L32.6736 23.7688L30.9151 25.3323L31.3479 25.8191L33.1064 24.2556Z" fill="white"/>
<path d="M27.4481 34.3602L23.0107 30.6045L20.5226 33.5441L21.0198 33.9649L23.0081 31.6157L26.9483 34.9506L27.4481 34.3602Z" fill="white"/>
<path d="M20.4162 38.4714C20.6573 38.638 20.8724 38.8328 21.0615 39.0558C21.255 39.2818 21.3992 39.5266 21.4942 39.7902C21.5892 40.0538 21.62 40.3291 21.5867 40.6161C21.5578 40.9062 21.443 41.1964 21.2425 41.4867C21.0419 41.777 20.8111 41.9869 20.55 42.1166C20.2933 42.2494 20.0249 42.318 19.7448 42.3223C19.4647 42.3267 19.1847 42.2784 18.9048 42.1774C18.6293 42.0795 18.3711 41.9472 18.1299 41.7806C17.8887 41.614 17.6714 41.4177 17.4779 41.1916C17.2889 40.9687 17.1469 40.7254 17.0519 40.4618C16.9569 40.1983 16.9238 39.9214 16.9527 39.6313C16.9861 39.3443 17.103 39.0556 17.3036 38.7654C17.5041 38.4751 17.7328 38.2635 17.9894 38.1308C18.2505 38.0011 18.5212 37.9341 18.8013 37.9297C19.0814 37.9253 19.3592 37.9721 19.6346 38.07C19.9145 38.171 20.175 38.3048 20.4162 38.4714ZM20.8559 37.835C20.5299 37.6098 20.1826 37.4392 19.8141 37.3231C19.447 37.2147 19.0811 37.1762 18.7162 37.2078C18.3513 37.2394 18.0009 37.3503 17.6649 37.5405C17.3335 37.7337 17.0366 38.0201 16.7744 38.3997C16.5121 38.7793 16.3493 39.1583 16.2858 39.5367C16.2267 39.9182 16.247 40.2851 16.3466 40.6376C16.4461 40.9901 16.6131 41.3166 16.8475 41.6171C17.0833 41.9251 17.3642 42.1918 17.6902 42.417C18.0162 42.6422 18.3628 42.8091 18.7299 42.9176C19.0984 43.0336 19.465 43.0758 19.8299 43.0442C20.1948 43.0126 20.5452 42.9018 20.8811 42.7116C21.2171 42.5214 21.5161 42.2365 21.7784 41.8569C22.0407 41.4773 22.2013 41.0968 22.2603 40.7153C22.3194 40.3339 22.2991 39.9669 22.1995 39.6144C22.1 39.262 21.9323 38.9317 21.6965 38.6236C21.4621 38.3231 21.1819 38.0603 20.8559 37.835Z" fill="white"/>
<path d="M14.8416 49.7104L14.4731 50.3905C14.7658 50.4997 15.0484 50.5479 15.3208 50.5351C15.598 50.5248 15.8563 50.4641 16.0955 50.353C16.3348 50.2419 16.5549 50.0864 16.7558 49.8866C16.9567 49.6868 17.1296 49.4532 17.2744 49.186C17.4865 48.7947 17.6037 48.4075 17.6261 48.0245C17.6506 47.6488 17.5968 47.2924 17.4647 46.9553C17.3299 46.623 17.1263 46.3151 16.8539 46.0316C16.5863 45.7508 16.2664 45.5095 15.8942 45.3077C15.5219 45.106 15.1477 44.9649 14.7715 44.8845C14.3926 44.8088 14.0309 44.8042 13.6862 44.8705C13.3416 44.9368 13.0199 45.0804 12.7211 45.3013C12.4271 45.5248 12.1728 45.8346 11.9581 46.2307C11.6038 46.8844 11.5034 47.4968 11.657 48.0678C11.8106 48.6388 12.1914 49.1323 12.7995 49.5483L13.168 48.8682C12.9658 48.7401 12.7934 48.5911 12.6509 48.4213C12.5083 48.2514 12.4052 48.0658 12.3414 47.8645C12.2798 47.6706 12.2586 47.4647 12.278 47.2467C12.2995 47.0361 12.3711 46.8187 12.4926 46.5944C12.6582 46.289 12.8577 46.0575 13.0912 45.9001C13.3247 45.7426 13.5757 45.6441 13.8442 45.6044C14.1148 45.572 14.3971 45.5923 14.691 45.6651C14.9897 45.7406 15.2846 45.8572 15.5757 46.0149C15.843 46.1598 16.0826 46.3328 16.2945 46.5341C16.5065 46.7355 16.6704 46.957 16.7863 47.1989C16.9043 47.4481 16.9624 47.7111 16.9606 47.9879C16.9561 48.2695 16.8711 48.563 16.7056 48.8685C16.5116 49.2264 16.2541 49.485 15.9331 49.6445C15.6095 49.8087 15.2457 49.8306 14.8416 49.7104Z" fill="white"/>
<path d="M10.863 54.2545L12.9921 56.201L12.9859 56.216L10.1101 56.0753L10.863 54.2545ZM13.7947 56.0924L9.28743 51.7791L8.98563 52.509L10.3544 53.7799L9.41478 56.0521L7.5544 55.9701L7.22771 56.7601L13.468 56.8824L13.7947 56.0924Z" fill="white"/>
<path d="M11.4877 62.1968L5.92996 60.4918L4.80043 64.1736L5.42315 64.3647L6.32582 61.4223L11.2609 62.9363L11.4877 62.1968Z" fill="white"/>
<path d="M9.58905 68.9157L3.89923 67.7231L3.07078 71.6757L3.70829 71.8093L4.37807 68.6138L6.3464 69.0264L5.72673 71.9828L6.36424 72.1164L6.98391 69.16L8.79286 69.5391L8.12809 72.7108L8.7656 72.8444L9.58905 68.9157Z" fill="white"/>
<path d="M4.50969 80.7652L3.85956 80.7251L3.71474 83.0737L4.36487 83.1138L4.50969 80.7652Z" fill="white"/>
<path d="M7.62101 91.9207L1.82619 92.3857L2.13423 96.2246L2.78351 96.1725L2.53733 93.1046L7.68288 92.6918L7.62101 91.9207Z" fill="white"/>
<path d="M5.53246 99.7937C5.82095 99.7418 6.11082 99.7283 6.40207 99.7532C6.69867 99.7771 6.97356 99.849 7.22676 99.9689C7.47995 100.089 7.6959 100.262 7.8746 100.489C8.05864 100.716 8.18188 101.002 8.24431 101.349C8.30674 101.697 8.29107 102.008 8.19731 102.284C8.10889 102.56 7.9669 102.797 7.77133 102.998C7.57577 103.199 7.34313 103.362 7.07343 103.488C6.80907 103.612 6.53265 103.701 6.24416 103.752C5.95567 103.804 5.66312 103.818 5.36653 103.794C5.07528 103.77 4.80306 103.697 4.54986 103.577C4.29667 103.457 4.07805 103.284 3.894 103.058C3.7153 102.831 3.59474 102.544 3.53231 102.197C3.46988 101.849 3.48287 101.538 3.57129 101.263C3.66505 100.987 3.80972 100.749 4.00528 100.548C4.20085 100.347 4.43081 100.185 4.69517 100.06C4.96487 99.9343 5.24397 99.8456 5.53246 99.7937ZM5.3956 99.0324C5.0056 99.1025 4.63904 99.2263 4.29593 99.4038C3.95912 99.5857 3.67246 99.8165 3.43595 100.096C3.19945 100.376 3.02912 100.701 2.92498 101.073C2.82617 101.444 2.81759 101.856 2.89923 102.31C2.98087 102.765 3.13256 103.148 3.3543 103.461C3.58138 103.773 3.85448 104.019 4.17358 104.199C4.49269 104.379 4.8413 104.493 5.21941 104.541C5.60382 104.593 5.99103 104.584 6.38102 104.514C6.77102 104.444 7.13442 104.318 7.47123 104.136C7.81435 103.958 8.10416 103.73 8.34066 103.45C8.57717 103.17 8.74749 102.845 8.85164 102.473C8.95578 102.101 8.96704 101.688 8.8854 101.234C8.80376 100.78 8.6494 100.397 8.42232 100.085C8.19523 99.7727 7.92214 99.5268 7.60303 99.347C7.28393 99.1672 6.93217 99.0512 6.54776 98.999C6.16964 98.9511 5.78559 98.9623 5.3956 99.0324Z" fill="white"/>
<path d="M9.50297 111.694L9.72104 112.436C10.0056 112.307 10.24 112.142 10.4242 111.941C10.6135 111.738 10.7539 111.513 10.8452 111.266C10.9366 111.018 10.983 110.753 10.9847 110.469C10.9863 110.186 10.9442 109.899 10.8585 109.607C10.733 109.18 10.5432 108.823 10.289 108.535C10.0416 108.252 9.75215 108.037 9.42074 107.891C9.09087 107.75 8.72942 107.675 8.33641 107.666C7.94861 107.656 7.5516 107.71 7.14539 107.83C6.73918 107.949 6.37431 108.113 6.05078 108.321C5.72878 108.534 5.46895 108.786 5.2713 109.076C5.07365 109.366 4.94676 109.695 4.89061 110.062C4.83967 110.428 4.87771 110.827 5.00472 111.259C5.21438 111.973 5.57495 112.478 6.08644 112.774C6.59792 113.071 7.21591 113.153 7.9404 113.019L7.72232 112.277C7.48859 112.328 7.26129 112.344 7.04044 112.324C6.81958 112.304 6.61559 112.245 6.42845 112.148C6.24805 112.054 6.08787 111.922 5.94792 111.754C5.81471 111.59 5.71215 111.385 5.64022 111.14C5.54228 110.807 5.52061 110.502 5.5752 110.226C5.62979 109.95 5.73829 109.703 5.9007 109.485C6.06984 109.272 6.28431 109.087 6.54411 108.931C6.80912 108.774 7.10046 108.649 7.41814 108.556C7.70979 108.47 8.00172 108.424 8.29396 108.417C8.58619 108.411 8.85865 108.452 9.11135 108.542C9.37078 108.635 9.59742 108.781 9.79128 108.979C9.98666 109.181 10.1333 109.449 10.2313 109.783C10.346 110.173 10.3458 110.538 10.2305 110.878C10.1168 111.222 9.87428 111.494 9.50297 111.694Z" fill="white"/>
<path d="M9.88499 117.722L12.7672 117.601L12.7734 117.616L10.6348 119.544L9.88499 117.722ZM13.2599 116.958L7.02244 117.077L7.32296 117.807L9.18968 117.744L10.1253 120.018L8.74815 121.271L9.07346 122.062L13.5852 117.749L13.2599 116.958Z" fill="white"/>
<path d="M15.9275 122.914L10.784 125.623L12.5787 129.031L13.155 128.727L11.7207 126.004L16.288 123.598L15.9275 122.914Z" fill="white"/>
<path d="M19.3183 129.018L14.4424 132.184L16.6416 135.571L17.1879 135.216L15.4099 132.478L17.0967 131.382L18.7416 133.916L19.288 133.561L17.643 131.028L19.1932 130.021L20.9579 132.739L21.5042 132.384L19.3183 129.018Z" fill="white"/>
<path d="M24.0702 141.003L23.5809 141.433L25.134 143.2L25.6233 142.77L24.0702 141.003Z" fill="white"/>
<path d="M34.1413 146.72L30.3595 151.135L33.2845 153.64L33.7082 153.146L31.3707 151.144L34.7287 147.223L34.1413 146.72Z" fill="white"/>
<path d="M38.211 153.775C38.3791 153.535 38.5751 153.321 38.7992 153.133C39.0264 152.941 39.272 152.798 39.5361 152.705C39.8003 152.611 40.0757 152.582 40.3626 152.617C40.6525 152.648 40.942 152.764 41.2311 152.966C41.5202 153.169 41.7288 153.401 41.857 153.663C41.9882 153.92 42.0552 154.189 42.058 154.469C42.0607 154.749 42.0108 155.029 41.9081 155.308C41.8086 155.583 41.6748 155.841 41.5068 156.081C41.3388 156.321 41.1411 156.537 40.914 156.729C40.6899 156.917 40.4458 157.058 40.1817 157.151C39.9176 157.244 39.6405 157.276 39.3506 157.245C39.0638 157.21 38.7758 157.092 38.4867 156.889C38.1976 156.687 37.9874 156.457 37.8562 156.2C37.728 155.938 37.6626 155.667 37.6599 155.387C37.6571 155.107 37.7055 154.829 37.805 154.554C37.9077 154.275 38.043 154.015 38.211 153.775ZM37.5773 153.332C37.3501 153.656 37.1774 154.003 37.0593 154.37C36.9486 154.737 36.908 155.103 36.9375 155.468C36.9669 155.833 37.0758 156.184 37.2639 156.521C37.4553 156.853 37.7399 157.152 38.118 157.416C38.496 157.681 38.8741 157.846 39.2521 157.912C39.6332 157.973 40.0003 157.955 40.3533 157.857C40.7064 157.76 41.0338 157.595 41.3357 157.362C41.6451 157.128 41.9134 156.849 42.1406 156.524C42.3677 156.199 42.5366 155.854 42.6472 155.487C42.7654 155.12 42.8098 154.753 42.7803 154.388C42.7509 154.023 42.6421 153.672 42.4539 153.335C42.2657 152.998 41.9826 152.697 41.6045 152.433C41.2265 152.168 40.8469 152.005 40.4658 151.944C40.0847 151.883 39.7176 151.901 39.3645 151.998C39.0115 152.096 38.6802 152.262 38.3708 152.496C38.0689 152.728 37.8044 153.007 37.5773 153.332Z" fill="white"/>
<path d="M49.4173 159.416L50.0952 159.789C50.2062 159.497 50.256 159.214 50.2448 158.942C50.2361 158.665 50.1769 158.406 50.0672 158.166C49.9575 157.926 49.8034 157.705 49.6047 157.503C49.4061 157.301 49.1736 157.127 48.9072 156.98C48.5171 156.766 48.1306 156.647 47.7478 156.622C47.3723 156.595 47.0156 156.647 46.6777 156.777C46.3445 156.91 46.0355 157.112 45.7504 157.382C45.468 157.648 45.2248 157.967 45.0209 158.338C44.817 158.709 44.6737 159.082 44.591 159.458C44.5132 159.836 44.5064 160.198 44.5707 160.543C44.635 160.888 44.7767 161.211 44.9958 161.511C45.2176 161.806 45.5258 162.062 45.9207 162.279C46.5724 162.637 47.1842 162.741 47.7561 162.591C48.3279 162.441 48.8236 162.063 49.2432 161.457L48.5653 161.085C48.436 161.286 48.286 161.458 48.1153 161.599C47.9446 161.741 47.7584 161.843 47.5568 161.906C47.3625 161.966 47.1565 161.986 46.9386 161.965C46.7282 161.943 46.5111 161.87 46.2876 161.747C45.9831 161.58 45.7529 161.379 45.5968 161.144C45.4407 160.91 45.3436 160.658 45.3055 160.39C45.2747 160.119 45.2966 159.837 45.3712 159.543C45.4484 159.245 45.5667 158.951 45.7262 158.66C45.8726 158.394 46.0471 158.156 46.2496 157.945C46.4522 157.734 46.6747 157.571 46.9172 157.457C47.1671 157.34 47.4305 157.284 47.7073 157.287C47.9889 157.293 48.2819 157.38 48.5863 157.547C48.9431 157.743 49.2002 158.002 49.3578 158.324C49.5201 158.649 49.5399 159.013 49.4173 159.416Z" fill="white"/>
<path d="M53.9377 163.421L55.8967 161.303L55.9117 161.31L55.7541 164.184L53.9377 163.421ZM55.7928 160.5L51.4532 164.982L52.1812 165.288L53.4601 163.927L55.7269 164.88L55.6339 166.739L56.422 167.071L56.5809 160.831L55.7928 160.5Z" fill="white"/>
<path d="M61.8831 162.843L60.1455 168.391L63.8206 169.542L64.0153 168.921L61.0783 168.001L62.6213 163.075L61.8831 162.843Z" fill="white"/>
<path d="M68.5916 164.782L67.3656 170.464L71.3133 171.316L71.4506 170.679L68.2591 169.991L68.6832 168.025L71.636 168.662L71.7733 168.025L68.8206 167.388L69.2103 165.581L72.378 166.265L72.5154 165.628L68.5916 164.782Z" fill="white"/>
<path d="M80.4106 169.931L80.3667 170.581L82.7144 170.739L82.7583 170.089L80.4106 169.931Z" fill="white"/>
<path d="M91.584 166.885L92.015 172.682L95.8556 172.397L95.8073 171.747L92.738 171.975L92.3554 166.828L91.584 166.885Z" fill="white"/>
<path d="M99.4448 169.019C99.3946 168.73 99.3828 168.44 99.4094 168.149C99.435 167.853 99.5085 167.578 99.6299 167.326C99.7514 167.073 99.9261 166.858 100.154 166.681C100.381 166.498 100.669 166.377 101.016 166.316C101.364 166.256 101.676 166.273 101.951 166.369C102.226 166.459 102.463 166.602 102.662 166.799C102.862 166.996 103.023 167.229 103.148 167.5C103.271 167.765 103.357 168.042 103.408 168.33C103.458 168.619 103.47 168.912 103.444 169.208C103.418 169.499 103.344 169.771 103.222 170.024C103.101 170.276 102.927 170.494 102.7 170.676C102.471 170.854 102.184 170.973 101.836 171.033C101.488 171.093 101.177 171.079 100.903 170.989C100.627 170.893 100.39 170.747 100.19 170.55C99.9907 170.354 99.8294 170.123 99.7062 169.858C99.5821 169.587 99.495 169.308 99.4448 169.019ZM98.6827 169.151C98.7505 169.542 98.8722 169.909 99.0477 170.253C99.2276 170.591 99.4566 170.879 99.7349 171.117C100.013 171.355 100.338 171.527 100.709 171.634C101.079 171.735 101.491 171.746 101.946 171.667C102.401 171.588 102.785 171.438 103.099 171.218C103.413 170.993 103.661 170.722 103.842 170.404C104.024 170.085 104.14 169.738 104.19 169.36C104.244 168.976 104.238 168.588 104.17 168.198C104.102 167.808 103.978 167.443 103.798 167.106C103.623 166.761 103.396 166.47 103.117 166.232C102.839 165.994 102.515 165.822 102.143 165.715C101.772 165.609 101.36 165.595 100.905 165.674C100.45 165.753 100.066 165.905 99.7529 166.131C99.4395 166.356 99.1919 166.628 99.0103 166.946C98.8286 167.264 98.7105 167.615 98.6561 167.999C98.606 168.377 98.6149 168.761 98.6827 169.151Z" fill="white"/>
<path d="M111.369 165.119L112.112 164.905C111.985 164.62 111.821 164.384 111.621 164.199C111.419 164.008 111.195 163.867 110.948 163.774C110.701 163.681 110.436 163.633 110.153 163.63C109.869 163.627 109.582 163.667 109.289 163.751C108.862 163.874 108.503 164.062 108.214 164.314C107.929 164.56 107.713 164.848 107.565 165.179C107.422 165.508 107.345 165.869 107.334 166.262C107.321 166.649 107.373 167.047 107.49 167.454C107.607 167.86 107.769 168.226 107.975 168.551C108.187 168.874 108.437 169.136 108.726 169.335C109.015 169.534 109.343 169.663 109.71 169.721C110.075 169.775 110.474 169.739 110.907 169.614C111.622 169.409 112.129 169.051 112.429 168.542C112.728 168.032 112.814 167.414 112.684 166.689L111.941 166.903C111.991 167.137 112.006 167.364 111.984 167.585C111.963 167.806 111.903 168.009 111.804 168.196C111.709 168.376 111.577 168.535 111.408 168.674C111.243 168.806 111.037 168.908 110.792 168.978C110.458 169.074 110.153 169.094 109.877 169.038C109.601 168.982 109.355 168.872 109.139 168.708C108.926 168.538 108.743 168.322 108.589 168.061C108.433 167.795 108.31 167.503 108.218 167.185C108.134 166.893 108.09 166.601 108.085 166.308C108.08 166.016 108.123 165.744 108.214 165.492C108.309 165.233 108.456 165.007 108.655 164.814C108.859 164.62 109.128 164.475 109.462 164.379C109.853 164.267 110.218 164.269 110.557 164.386C110.9 164.502 111.171 164.746 111.369 165.119Z" fill="white"/>
<path d="M117.398 164.772L117.294 161.889L117.309 161.883L119.225 164.033L117.398 164.772ZM116.654 161.393L116.737 167.631L117.469 167.334L117.416 165.467L119.695 164.545L120.941 165.929L121.733 165.609L117.447 161.072L116.654 161.393Z" fill="white"/>
<path d="M122.625 158.76L125.304 163.92L128.722 162.145L128.422 161.567L125.691 162.985L123.312 158.404L122.625 158.76Z" fill="white"/>
<path d="M128.749 155.405L131.886 160.299L135.286 158.12L134.935 157.572L132.186 159.334L131.101 157.64L133.644 156.01L133.292 155.462L130.749 157.092L129.752 155.536L132.48 153.787L132.129 153.239L128.749 155.405Z" fill="white"/>
<path d="M140.761 150.724L141.188 151.216L142.965 149.673L142.538 149.181L140.761 150.724Z" fill="white"/>
<path d="M146.538 140.687L150.931 144.494L153.453 141.584L152.961 141.157L150.945 143.483L147.045 140.102L146.538 140.687Z" fill="white"/>
<path d="M153.618 136.658C153.378 136.489 153.166 136.291 152.979 136.066C152.788 135.838 152.647 135.591 152.555 135.327C152.463 135.062 152.436 134.786 152.472 134.5C152.505 134.21 152.623 133.921 152.827 133.633C153.031 133.345 153.264 133.138 153.527 133.012C153.785 132.882 154.054 132.816 154.334 132.815C154.614 132.814 154.894 132.866 155.172 132.97C155.447 133.071 155.703 133.207 155.943 133.376C156.182 133.545 156.397 133.744 156.588 133.973C156.774 134.198 156.913 134.443 157.005 134.707C157.097 134.972 157.127 135.249 157.094 135.539C157.058 135.826 156.937 136.113 156.733 136.401C156.529 136.689 156.298 136.897 156.04 137.027C155.778 137.154 155.506 137.218 155.226 137.219C154.946 137.22 154.669 137.17 154.394 137.069C154.116 136.964 153.857 136.828 153.618 136.658ZM153.17 137.289C153.494 137.518 153.839 137.693 154.206 137.813C154.572 137.926 154.937 137.969 155.303 137.942C155.668 137.914 156.02 137.808 156.358 137.621C156.691 137.432 156.992 137.149 157.258 136.773C157.525 136.396 157.692 136.019 157.76 135.641C157.824 135.261 157.808 134.894 157.712 134.54C157.617 134.186 157.454 133.858 157.223 133.555C156.991 133.244 156.713 132.974 156.39 132.745C156.066 132.516 155.722 132.345 155.356 132.232C154.989 132.112 154.623 132.065 154.257 132.093C153.892 132.12 153.541 132.227 153.202 132.413C152.864 132.599 152.562 132.88 152.295 133.257C152.029 133.633 151.863 134.012 151.8 134.393C151.736 134.773 151.752 135.141 151.848 135.494C151.943 135.848 152.107 136.18 152.339 136.491C152.57 136.794 152.847 137.06 153.17 137.289Z" fill="white"/>
<path d="M159.324 125.485L159.7 124.809C159.409 124.696 159.127 124.645 158.854 124.655C158.577 124.662 158.318 124.719 158.077 124.828C157.837 124.936 157.615 125.089 157.412 125.286C157.208 125.484 157.033 125.715 156.885 125.981C156.668 126.369 156.546 126.755 156.52 127.138C156.491 127.513 156.54 127.87 156.668 128.209C156.799 128.543 156.999 128.853 157.268 129.14C157.533 129.424 157.85 129.669 158.219 129.875C158.589 130.081 158.962 130.226 159.337 130.311C159.715 130.391 160.077 130.4 160.422 130.338C160.768 130.276 161.091 130.136 161.392 129.918C161.689 129.698 161.947 129.392 162.166 128.998C162.528 128.349 162.636 127.737 162.489 127.165C162.342 126.592 161.967 126.094 161.364 125.671L160.987 126.347C161.188 126.477 161.359 126.628 161.499 126.8C161.64 126.971 161.741 127.158 161.802 127.36C161.861 127.554 161.88 127.761 161.858 127.978C161.834 128.189 161.76 128.405 161.636 128.628C161.467 128.932 161.265 129.161 161.029 129.315C160.794 129.47 160.542 129.566 160.273 129.602C160.002 129.631 159.72 129.608 159.427 129.532C159.129 129.453 158.835 129.333 158.546 129.171C158.281 129.023 158.043 128.848 157.834 128.644C157.624 128.44 157.463 128.216 157.35 127.973C157.234 127.723 157.179 127.459 157.185 127.182C157.192 126.901 157.281 126.608 157.45 126.305C157.648 125.949 157.909 125.694 158.231 125.538C158.557 125.377 158.921 125.36 159.324 125.485Z" fill="white"/>
<path d="M163.355 120.989L161.249 119.017L161.256 119.003L164.13 119.177L163.355 120.989ZM160.445 119.117L164.902 123.483L165.212 122.756L163.858 121.469L164.825 119.208L166.684 119.312L167.02 118.526L160.781 118.331L160.445 119.117Z" fill="white"/>
<path d="M162.824 113.04L168.361 114.81L169.534 111.142L168.914 110.943L167.976 113.875L163.059 112.303L162.824 113.04Z" fill="white"/>
<path d="M164.802 106.342L170.477 107.602L171.352 103.659L170.716 103.518L170.009 106.705L168.045 106.27L168.7 103.321L168.064 103.18L167.409 106.129L165.605 105.728L166.307 102.565L165.671 102.424L164.802 106.342Z" fill="white"/>
<path d="M170.02 94.5544L170.669 94.6021L170.842 92.2553L170.192 92.2076L170.02 94.5544Z" fill="white"/>
<path d="M167.04 83.3636L172.84 82.9667L172.577 79.1245L171.927 79.1689L172.137 82.2395L166.987 82.5919L167.04 83.3636Z" fill="white"/>
<path d="M169.22 75.515C168.931 75.5635 168.641 75.5736 168.35 75.5453C168.054 75.518 167.78 75.4428 167.528 75.3199C167.276 75.197 167.063 75.021 166.886 74.7918C166.705 74.5636 166.585 74.2754 166.527 73.9275C166.469 73.5795 166.488 73.2681 166.585 72.9931C166.677 72.7191 166.821 72.4829 167.019 72.2846C167.217 72.0863 167.452 71.9259 167.723 71.8034C167.989 71.6817 168.266 71.5967 168.555 71.5482C168.844 71.4997 169.137 71.4892 169.433 71.5166C169.724 71.5448 169.995 71.6204 170.247 71.7433C170.499 71.8662 170.716 72.0418 170.897 72.2701C171.073 72.4992 171.19 72.7878 171.249 73.1358C171.307 73.4837 171.29 73.7947 171.199 74.0688C171.102 74.3437 170.954 74.5803 170.756 74.7786C170.558 74.9769 170.326 75.1369 170.061 75.2585C169.789 75.3811 169.509 75.4666 169.22 75.515ZM169.348 76.2779C169.739 76.2123 170.107 76.0928 170.452 75.9194C170.791 75.7415 171.08 75.5141 171.32 75.2372C171.56 74.9603 171.734 74.6367 171.843 74.2662C171.946 73.8967 171.959 73.4844 171.883 73.0294C171.807 72.5744 171.659 72.189 171.441 71.8733C171.218 71.5585 170.948 71.3094 170.631 71.1259C170.314 70.9423 169.967 70.8245 169.589 70.7722C169.205 70.7154 168.818 70.7198 168.427 70.7854C168.036 70.8509 167.672 70.9726 167.333 71.1505C166.987 71.324 166.695 71.5492 166.455 71.826C166.215 72.1029 166.041 72.4266 165.933 72.797C165.824 73.1674 165.808 73.5802 165.884 74.0352C165.961 74.4902 166.111 74.8751 166.334 75.1899C166.557 75.5047 166.828 75.7539 167.145 75.9374C167.462 76.1209 167.812 76.241 168.196 76.2977C168.573 76.35 168.957 76.3434 169.348 76.2779Z" fill="white"/>
<path d="M165.39 63.5689L165.181 62.8243C164.895 62.9499 164.658 63.1121 164.472 63.3112C164.28 63.5117 164.137 63.7351 164.043 63.9815C163.949 64.2279 163.899 64.4928 163.894 64.7761C163.889 65.0594 163.928 65.3474 164.01 65.64C164.131 66.0685 164.316 66.4279 164.567 66.7183C164.811 67.0049 165.098 67.2231 165.428 67.3728C165.756 67.5174 166.116 67.5964 166.509 67.61C166.897 67.6251 167.294 67.5753 167.702 67.4608C168.11 67.3462 168.476 67.1867 168.802 66.9823C169.127 66.7726 169.39 66.524 169.591 66.2363C169.792 65.9486 169.922 65.6214 169.983 65.2549C170.038 64.8897 170.005 64.4903 169.883 64.0566C169.682 63.3407 169.327 62.8315 168.819 62.5288C168.311 62.2262 167.694 62.1375 166.968 62.2626L167.177 63.0073C167.412 62.9583 167.639 62.9451 167.86 62.9676C168.08 62.9902 168.284 63.0515 168.47 63.1514C168.649 63.2476 168.808 63.3806 168.946 63.5505C169.077 63.7166 169.177 63.9224 169.246 64.168C169.34 64.5024 169.358 64.8074 169.3 65.0831C169.242 65.3587 169.131 65.6043 168.966 65.8198C168.794 66.0316 168.578 66.2137 168.316 66.3662C168.049 66.5202 167.757 66.6419 167.438 66.7316C167.145 66.8138 166.853 66.8566 166.56 66.8598C166.268 66.863 165.996 66.8183 165.745 66.7255C165.486 66.629 165.261 66.4807 165.07 66.2809C164.877 66.0757 164.733 65.806 164.639 65.4715C164.529 65.0796 164.534 64.7147 164.653 64.3767C164.771 64.0334 165.016 63.7642 165.39 63.5689Z" fill="white"/>
<path d="M165.079 57.5371L162.195 57.6238L162.189 57.6087L164.35 55.7062L165.079 57.5371ZM161.695 58.2609L167.933 58.2153L167.641 57.4814L165.774 57.5233L164.865 55.2385L166.257 54.0013L165.941 53.207L161.379 57.4666L161.695 58.2609Z" fill="white"/>
<path d="M159.098 52.2744L164.273 49.6258L162.518 46.1975L161.938 46.4943L163.341 49.234L158.745 51.5858L159.098 52.2744Z" fill="white"/>
<path d="M155.779 46.1312L160.691 43.0229L158.532 39.6101L157.982 39.9584L159.727 42.7175L158.028 43.7928L156.413 41.2401L155.862 41.5883L157.478 44.141L155.916 45.1292L154.183 42.3908L153.633 42.739L155.779 46.1312Z" fill="white"/>
<path d="M151.168 34.0915L151.662 33.6673L150.13 31.8815L149.636 32.3057L151.168 34.0915Z" fill="white"/>
<path d="M141.165 28.2562L144.998 23.8857L142.103 21.3462L141.673 21.8359L143.987 23.8653L140.583 27.7462L141.165 28.2562Z" fill="white"/>
<path d="M137.178 21.1534C137.007 21.3916 136.809 21.6032 136.582 21.7883C136.353 21.9778 136.106 22.1177 135.841 22.208C135.575 22.2984 135.3 22.3244 135.013 22.2859C134.724 22.2519 134.435 22.1321 134.149 21.9265C133.862 21.7208 133.656 21.4863 133.531 21.223C133.403 20.964 133.339 20.6944 133.34 20.4143C133.34 20.1341 133.393 19.855 133.499 19.5769C133.602 19.3033 133.739 19.0474 133.91 18.8092C134.081 18.571 134.281 18.3572 134.51 18.1677C134.736 17.9826 134.982 17.8449 135.247 17.7546C135.512 17.6642 135.79 17.636 136.079 17.67C136.366 17.7085 136.652 17.8305 136.939 18.0361C137.226 18.2418 137.433 18.4741 137.561 18.733C137.686 18.9964 137.749 19.2682 137.748 19.5483C137.748 19.8285 137.696 20.1054 137.593 20.379C137.487 20.6571 137.349 20.9152 137.178 21.1534ZM137.807 21.6042C138.038 21.2822 138.214 20.9381 138.337 20.5717C138.452 20.2066 138.497 19.8413 138.471 19.4759C138.446 19.1105 138.342 18.7582 138.157 18.419C137.97 18.0842 137.689 17.7823 137.314 17.5134C136.939 17.2445 136.563 17.075 136.186 17.0049C135.805 16.9391 135.438 16.9529 135.084 17.0463C134.73 17.1396 134.4 17.3008 134.096 17.5299C133.784 17.7602 133.512 18.0364 133.281 18.3584C133.05 18.6804 132.877 19.0239 132.762 19.389C132.64 19.7554 132.591 20.1213 132.616 20.4867C132.642 20.8521 132.746 21.2044 132.93 21.5436C133.115 21.8828 133.394 22.1869 133.769 22.4558C134.144 22.7247 134.522 22.892 134.902 22.9577C135.282 23.0235 135.65 23.0097 136.004 22.9163C136.358 22.823 136.691 22.6612 137.003 22.4308C137.308 22.2018 137.576 21.9262 137.807 21.6042Z" fill="white"/>
<path d="M126.039 15.381L125.366 15.0005C125.251 15.2913 125.198 15.573 125.206 15.8456C125.211 16.123 125.268 16.3822 125.374 16.6234C125.481 16.8646 125.633 17.0874 125.829 17.2918C126.025 17.4962 126.256 17.6732 126.52 17.8227C126.908 18.0416 127.293 18.1657 127.676 18.1948C128.051 18.2259 128.408 18.1784 128.747 18.0522C129.082 17.9233 129.394 17.7252 129.682 17.4578C129.967 17.1952 130.214 16.8796 130.422 16.511C130.631 16.1424 130.778 15.7707 130.865 15.3959C130.948 15.0185 130.959 14.6569 130.899 14.3111C130.838 13.9653 130.7 13.6411 130.485 13.3385C130.267 13.0407 129.961 12.7809 129.569 12.5593C128.922 12.1935 128.311 12.0824 127.737 12.2259C127.164 12.3694 126.664 12.7414 126.237 13.3421L126.911 13.7225C127.042 13.5226 127.194 13.3529 127.367 13.2134C127.539 13.0738 127.726 12.9739 127.929 12.9137C128.124 12.8555 128.33 12.838 128.547 12.8612C128.758 12.8864 128.974 12.9618 129.196 13.0873C129.498 13.2582 129.726 13.4617 129.88 13.698C130.033 13.9342 130.127 14.1869 130.162 14.4561C130.19 14.7273 130.164 15.0091 130.086 15.3017C130.006 15.599 129.884 15.8918 129.721 16.1801C129.571 16.4448 129.394 16.6813 129.189 16.8896C128.984 17.098 128.76 17.258 128.516 17.3696C128.265 17.4833 128.001 17.5367 127.724 17.53C127.442 17.5206 127.15 17.4305 126.848 17.2596C126.494 17.0593 126.239 16.7973 126.086 16.4735C125.927 16.1471 125.912 15.7829 126.039 15.381Z" fill="white"/>
<path d="M121.566 11.3232L119.582 13.4176L119.567 13.4112L119.759 10.5383L121.566 11.3232ZM119.677 14.2221L124.069 9.79147L123.344 9.47685L122.05 10.823L119.794 9.84352L119.909 7.98488L119.125 7.64432L118.893 13.8815L119.677 14.2221Z" fill="white"/>
<path d="M113.614 11.8083L115.417 6.28139L111.755 5.08718L111.553 5.70644L114.479 6.6608L112.879 11.5684L113.614 11.8083Z" fill="white"/>
<path d="M106.929 9.79094L108.222 4.12302L104.284 3.22507L104.139 3.86013L107.323 4.58609L106.875 6.54684L103.93 5.87519L103.786 6.51025L106.731 7.18191L106.32 8.98389L103.16 8.26336L103.015 8.89842L106.929 9.79094Z" fill="white"/>
<path d="M95.1712 4.50411L95.2227 3.85479L92.877 3.66862L92.8255 4.31795L95.1712 4.50411Z" fill="white"/>
</g>
</svg>
