<svg width="175" height="175" viewBox="0 0 175 175" fill="none" xmlns="http://www.w3.org/2000/svg">
<g opacity="0.5">
<path d="M83.8311 6.57589L83.4085 0.777822L82.6371 0.8341L82.8176 3.31087L80.9336 3.4483C80.7442 3.46213 80.5904 3.44341 80.4724 3.39215C80.3548 3.34631 80.2572 3.27723 80.1797 3.18492C80.1026 3.09802 80.0431 2.99079 80.0012 2.86323C79.9596 2.74109 79.9229 2.61043 79.891 2.47125C79.8536 2.33247 79.8269 2.19019 79.8109 2.04441C79.7948 1.89864 79.7793 1.76099 79.7644 1.63145C79.7499 1.50733 79.7308 1.39443 79.7071 1.29276C79.6779 1.19148 79.6341 1.11304 79.5756 1.05744L78.7149 1.12023C78.8032 1.21175 78.8735 1.31819 78.9259 1.43955C78.9733 1.56671 79.0129 1.69988 79.0448 1.83906C79.0767 1.97823 79.1007 2.12071 79.1168 2.26648C79.1329 2.41226 79.1514 2.55513 79.1725 2.6951C79.199 2.83467 79.2333 2.96823 79.2752 3.09579C79.3118 3.22375 79.3663 3.33678 79.4387 3.4349C79.5062 3.53883 79.5968 3.62475 79.7106 3.69264C79.819 3.76093 79.9582 3.80519 80.1284 3.82543L80.1296 3.84167C79.7848 3.96479 79.5436 4.16471 79.4059 4.44143C79.2629 4.71855 79.2042 5.03306 79.2298 5.38495C79.2641 5.85594 79.4482 6.21532 79.7819 6.4631C80.1102 6.71128 80.5504 6.81522 81.1026 6.77494L83.8311 6.57589ZM81.2571 4.07781L82.865 3.96051L83.0123 5.98252L81.0959 6.12233C80.7332 6.14879 80.4639 6.07591 80.2881 5.9037C80.1123 5.73148 80.0137 5.4992 79.9924 5.20686C79.977 4.99573 80.0023 4.81972 80.0682 4.67885C80.1291 4.54379 80.2188 4.43111 80.3374 4.34082C80.451 4.25634 80.588 4.19465 80.7485 4.15573C80.9089 4.11681 81.0784 4.09084 81.2571 4.07781Z" fill="white"/>
<path d="M76.5082 7.27492L75.5777 1.53641L71.5914 2.18336L71.6957 2.82632L74.9185 2.30329L75.2404 4.28846L72.2587 4.77236L72.3629 5.41533L75.3446 4.93143L75.6404 6.75586L72.4417 7.27498L72.546 7.91794L76.5082 7.27492Z" fill="white"/>
<path d="M65.3929 7.82637L64.6439 8.01923C64.763 8.30805 64.92 8.54789 65.1148 8.73875C65.311 8.93486 65.5312 9.08276 65.7754 9.18243C66.0196 9.28209 66.2833 9.33752 66.5664 9.34871C66.8495 9.35989 67.1383 9.32759 67.4326 9.2518C67.8637 9.14083 68.2271 8.96318 68.523 8.71885C68.8149 8.48114 69.0394 8.19913 69.1965 7.87284C69.3483 7.54789 69.4354 7.18917 69.4577 6.79667C69.4814 6.40942 69.4405 6.01078 69.3351 5.60074C69.2296 5.1907 69.0783 4.82048 68.8812 4.49007C68.6789 4.16102 68.4362 3.89282 68.153 3.68546C67.8699 3.4781 67.5458 3.34015 67.1806 3.27161C66.8169 3.20833 66.4168 3.23285 65.9805 3.34518C65.2604 3.53059 64.7434 3.87389 64.4295 4.37507C64.1156 4.87626 64.0132 5.49117 64.1222 6.2198L64.8712 6.02694C64.8275 5.79158 64.8194 5.56387 64.8468 5.3438C64.8743 5.12374 64.9401 4.92184 65.0441 4.7381C65.1443 4.56098 65.2808 4.40532 65.4537 4.27114C65.6226 4.14356 65.8306 4.04797 66.0777 3.98436C66.4141 3.89775 66.7194 3.8864 66.9937 3.95031C67.268 4.01422 67.511 4.13101 67.7228 4.30069C67.9307 4.47697 68.1079 4.69758 68.2545 4.96251C68.4025 5.23269 68.5177 5.52812 68.6002 5.84879C68.6759 6.14318 68.7122 6.43653 68.7089 6.72883C68.7056 7.02114 68.6548 7.29206 68.5564 7.54158C68.4542 7.79772 68.301 8.01932 68.0969 8.20639C67.8876 8.39481 67.6147 8.53233 67.2782 8.61894C66.884 8.72044 66.5192 8.70785 66.184 8.58117C65.8435 8.45585 65.5798 8.20425 65.3929 7.82637Z" fill="white"/>
<path d="M58.8102 8.21139L57.8839 12.198L58.7111 11.8997L59.3735 8.71797L61.951 10.7313L62.8165 10.4191L59.5378 7.94898L58.7319 5.71225L58.0042 5.97466L58.8102 8.21139Z" fill="white"/>
<path d="M50.9451 13.416L50.2454 13.7456C50.4164 14.007 50.6155 14.2133 50.8426 14.3643C51.0719 14.5203 51.3159 14.6243 51.5744 14.6765C51.833 14.7288 52.1024 14.7339 52.3825 14.6919C52.6627 14.6499 52.9403 14.5641 53.2153 14.4346C53.618 14.2449 53.9418 14.0024 54.1867 13.707C54.429 13.4188 54.5968 13.0998 54.6901 12.7498C54.7784 12.4022 54.7969 12.0335 54.7454 11.6437C54.6962 11.2589 54.5815 10.8749 54.4012 10.4918C54.2209 10.1087 54.0031 9.77334 53.7477 9.48564C53.4874 9.20025 53.1988 8.98219 52.8819 8.83147C52.565 8.68075 52.2208 8.60589 51.8493 8.60688C51.4801 8.61279 51.0917 8.71174 50.6842 8.90374C50.0114 9.22065 49.5678 9.65465 49.3532 10.2057C49.1387 10.7568 49.153 11.3801 49.3963 12.0755L50.0961 11.7459C50.0091 11.5228 49.9585 11.3006 49.9443 11.0793C49.9302 10.858 49.957 10.6473 50.0249 10.4474C50.0901 10.2546 50.1951 10.0762 50.3398 9.91198C50.4819 9.75504 50.6684 9.62221 50.8992 9.51348C51.2134 9.36544 51.5112 9.29714 51.7926 9.30861C52.074 9.32007 52.3345 9.38932 52.5743 9.51638C52.8115 9.65066 53.0268 9.83421 53.2204 10.067C53.4163 10.3048 53.5847 10.5734 53.7257 10.873C53.8552 11.148 53.9456 11.4294 53.9971 11.7172C54.0486 12.005 54.0493 12.2806 53.9994 12.5442C53.9468 12.8149 53.8378 13.0613 53.6723 13.2833C53.5019 13.5075 53.2596 13.6937 52.9453 13.8418C52.577 14.0152 52.2164 14.0711 51.8634 14.0094C51.5055 13.95 51.1994 13.7522 50.9451 13.416Z" fill="white"/>
<path d="M48.3506 16.7806L45.4222 11.7586L42.0961 13.6998L42.4242 14.2625L45.0823 12.7112L47.6826 17.1705L48.3506 16.7806Z" fill="white"/>
<path d="M40.1564 17.873L40.9104 20.6579L40.897 20.6673L38.5451 19.0071L40.1564 17.873ZM41.646 20.9964L40.153 14.9382L39.5071 15.3928L39.9814 17.1996L37.9707 18.6149L36.4443 17.5485L35.7452 18.0406L40.9469 21.4884L41.646 20.9964Z" fill="white"/>
<path d="M34.8159 23.0391L36.0122 24.448L34.8333 25.4498C34.7051 25.5587 34.5781 25.6524 34.4524 25.7308C34.3261 25.8168 34.1984 25.8718 34.0693 25.896C33.9403 25.9202 33.8124 25.9078 33.6854 25.859C33.5585 25.8101 33.4283 25.7071 33.2948 25.5498C33.0945 25.314 33.0179 25.0728 33.065 24.8263C33.1114 24.5874 33.3021 24.3256 33.6371 24.0409L34.8159 23.0391ZM37.0232 24.4437L33.2606 20.0121L31.1201 21.8311C30.9008 22.0174 30.7384 22.216 30.6326 22.4269C30.5263 22.6455 30.4665 22.8602 30.4531 23.071C30.4392 23.2894 30.4683 23.4997 30.5404 23.702C30.6124 23.9044 30.717 24.0862 30.854 24.2476C31.0859 24.5207 31.355 24.6909 31.6614 24.7582C31.9677 24.8255 32.282 24.7721 32.6042 24.5981L32.6147 24.6105C32.474 24.8725 32.4199 25.1358 32.4522 25.4003C32.484 25.6726 32.6 25.9266 32.8002 26.1624C32.9899 26.3859 33.2015 26.5302 33.4349 26.5954C33.6641 26.6642 33.888 26.6805 34.1066 26.6444C34.2079 26.6295 34.3149 26.592 34.4276 26.5318C34.5362 26.4752 34.6477 26.4053 34.7623 26.3222C34.8804 26.2432 34.9953 26.1563 35.1069 26.0614C35.218 25.9741 35.3211 25.8901 35.4162 25.8092L37.0232 24.4437ZM33.0927 21.0095L34.3944 22.5425L33.048 23.6867C32.9239 23.7921 32.7934 23.8816 32.6565 23.9552C32.5232 24.033 32.3884 24.0798 32.2524 24.0957C32.1157 24.1192 31.9801 24.1062 31.8455 24.0568C31.711 24.0073 31.5822 23.9101 31.4592 23.7653C31.2484 23.517 31.1578 23.2593 31.1872 22.9921C31.2126 22.7284 31.3555 22.4858 31.6161 22.2643L33.0927 21.0095Z" fill="white"/>
<path d="M31.4704 29.4093L27.3952 25.2633L26.8438 25.8058L30.919 29.9518L31.4704 29.4093Z" fill="white"/>
<path d="M28.4456 32.504L24.1028 28.6392L21.5438 31.5172L22.0304 31.9503L24.0755 29.6503L27.9316 33.0821L28.4456 32.504Z" fill="white"/>
<path d="M24.2797 37.4241L19.6887 33.8577L19.2144 34.4688L23.8054 38.0351L24.2797 37.4241Z" fill="white"/>
<path d="M20.4213 41.6149L16.1338 38.7403L15.7033 39.3829L19.9909 42.2576L18.9124 43.8675L19.4534 44.2303L22.0408 40.3677L21.4998 40.0049L20.4213 41.6149Z" fill="white"/>
<path d="M18.0047 46.6601L12.9186 43.8444L10.964 47.3783L11.5338 47.6938L13.1141 44.8368L14.8736 45.8108L13.4115 48.4541L13.9814 48.7696L15.4434 46.1263L17.0604 47.0215L15.492 49.8572L16.0618 50.1727L18.0047 46.6601ZM18.0559 50.1506L17.4576 48.5071L17.7098 48.0511L18.4855 49.3739L18.0559 50.1506Z" fill="white"/>
<path d="M10.1252 55.4131L9.51916 55.1745L8.65784 57.3642L9.26393 57.6029L10.1252 55.4131Z" fill="white"/>
<path d="M9.90746 66.0349L4.26264 64.6449L4.07785 65.396L6.48915 65.9897L6.03786 67.824C5.99247 68.0085 5.92717 68.1489 5.84196 68.2453C5.76202 68.3431 5.66619 68.4145 5.55446 68.4596C5.448 68.5061 5.32763 68.5296 5.19336 68.53C5.06435 68.5318 4.92874 68.5264 4.78652 68.5137C4.643 68.5063 4.49944 68.4877 4.35583 68.458C4.21223 68.4282 4.07653 68.4004 3.94874 68.3745C3.82622 68.3499 3.71295 68.3332 3.60891 68.3243C3.50358 68.3208 3.41545 68.3382 3.3445 68.3766L3.13831 69.2147C3.25263 69.159 3.37559 69.125 3.50719 69.1127C3.64276 69.1069 3.78166 69.1104 3.92388 69.123C4.06611 69.1357 4.20902 69.1569 4.35262 69.1867C4.49623 69.2165 4.63784 69.243 4.77747 69.2662C4.9184 69.2841 5.056 69.2928 5.19027 69.2924C5.32325 69.2971 5.44759 69.2802 5.5633 69.2417C5.68297 69.2096 5.79267 69.15 5.8924 69.0628C5.99083 68.9808 6.07595 68.862 6.14778 68.7064L6.16359 68.7103C6.17417 69.0762 6.28978 69.3675 6.51044 69.5839C6.72979 69.8056 7.01076 69.9587 7.35335 70.043C7.81189 70.156 8.21054 70.092 8.54928 69.8512C8.88673 69.6156 9.12159 69.2291 9.25387 68.6914L9.90746 66.0349ZM6.73647 67.7109L7.12162 66.1455L9.09019 66.6303L8.63112 68.4961C8.54424 68.8493 8.39174 69.0829 8.17364 69.1969C7.95553 69.3109 7.70417 69.3328 7.41956 69.2627C7.21401 69.2121 7.05442 69.1337 6.94081 69.0274C6.83118 68.9278 6.75174 68.8076 6.70251 68.6669C6.65725 68.5328 6.6409 68.3834 6.65345 68.2188C6.666 68.0542 6.69368 67.8849 6.73647 67.7109Z" fill="white"/>
<path d="M8.3098 73.219L2.5646 72.3308L1.94812 76.3219L2.59184 76.4214L3.09025 73.1947L5.07773 73.502L4.61661 76.4873L5.26033 76.5868L5.72145 73.6015L7.548 73.8839L7.05333 77.0865L7.69705 77.186L8.3098 73.219Z" fill="white"/>
<path d="M5.39881 83.9636L5.3507 84.7356C5.6622 84.7115 5.93882 84.6363 6.18055 84.51C6.4277 84.384 6.63641 84.2202 6.80668 84.0187C6.97695 83.8173 7.11116 83.5836 7.2093 83.3178C7.30744 83.052 7.36596 82.7674 7.38487 82.464C7.41255 82.0198 7.35593 81.6192 7.215 81.2624C7.07916 80.9113 6.88035 80.6106 6.61857 80.3604C6.35646 80.1157 6.04221 79.922 5.67582 79.7795C5.31486 79.6374 4.92309 79.5531 4.50052 79.5268C4.07796 79.5004 3.6791 79.5299 3.30396 79.6153C2.92848 79.7061 2.59838 79.8541 2.31366 80.0593C2.02894 80.2645 1.79757 80.5302 1.61953 80.8563C1.44691 81.1827 1.34659 81.5708 1.31857 82.0204C1.27233 82.7626 1.43903 83.3604 1.81868 83.8137C2.19832 84.267 2.75147 84.5544 3.47811 84.6759L3.52621 83.9039C3.28885 83.8728 3.06977 83.8102 2.86897 83.7161C2.66817 83.622 2.49648 83.497 2.3539 83.3413C2.2164 83.1913 2.11056 83.0134 2.03637 82.8076C1.96726 82.6075 1.94064 82.3801 1.9565 82.1255C1.9781 81.7787 2.06168 81.4848 2.20723 81.2437C2.35278 81.0026 2.53897 80.8076 2.76579 80.6586C2.9977 80.5153 3.26229 80.4149 3.55957 80.3573C3.86226 80.3 4.17884 80.2817 4.50931 80.3023C4.81269 80.3212 5.10287 80.3774 5.37986 80.4708C5.65684 80.5642 5.89879 80.6962 6.1057 80.8669C6.3177 81.0432 6.48111 81.2574 6.59594 81.5093C6.71043 81.7666 6.75687 82.0686 6.73527 82.4153C6.70995 82.8217 6.58525 83.1647 6.36115 83.4444C6.13672 83.7295 5.81594 83.9026 5.39881 83.9636Z" fill="white"/>
<path d="M3.72906 90.3469L7.23401 92.4591L7.20603 91.5802L4.38497 89.9675L7.09643 88.1378L7.06715 87.2182L3.70445 89.5738L1.32816 89.6495L1.35278 90.4226L3.72906 90.3469Z" fill="white"/>
<path d="M6.24799 99.4382L6.34511 100.206C6.6466 100.124 6.90427 99.998 7.1181 99.8286C7.33733 99.6586 7.51173 99.4587 7.64132 99.2289C7.7709 98.9991 7.85905 98.7444 7.90575 98.465C7.95245 98.1855 7.95672 97.8949 7.91855 97.5934C7.86267 97.1518 7.73214 96.7689 7.52698 96.4447C7.32788 96.1253 7.07636 95.8671 6.77242 95.6704C6.46916 95.479 6.12425 95.3476 5.73769 95.2762C5.35651 95.2041 4.95591 95.1946 4.53587 95.2478C4.11584 95.301 3.72955 95.4047 3.377 95.5588C3.02513 95.7182 2.72854 95.9254 2.48723 96.1803C2.24592 96.4352 2.06831 96.7395 1.95439 97.0931C1.84587 97.4461 1.81988 97.8461 1.87645 98.2931C1.96982 99.0308 2.24536 99.5868 2.70307 99.9611C3.16079 100.335 3.75791 100.514 4.49443 100.497L4.39731 99.7301C4.15833 99.7439 3.93141 99.7234 3.71655 99.6686C3.5017 99.6137 3.30968 99.5231 3.1405 99.3968C2.97739 99.2752 2.84014 99.1203 2.72876 98.9319C2.62345 98.7483 2.55478 98.5299 2.52275 98.2768C2.47914 97.9322 2.50627 97.6278 2.60417 97.3638C2.70206 97.0997 2.84848 96.8732 3.04344 96.6844C3.24446 96.5002 3.4856 96.3521 3.76685 96.2398C4.05348 96.1269 4.36104 96.0497 4.68953 96.0081C4.99109 95.9699 5.28665 95.9707 5.57622 96.0106C5.86578 96.0506 6.12814 96.135 6.36331 96.2639C6.60454 96.3974 6.80511 96.5772 6.96502 96.8032C7.12561 97.0345 7.22771 97.3225 7.27133 97.6672C7.32244 98.071 7.26408 98.4313 7.09625 98.7481C6.9291 99.0702 6.64635 99.3002 6.24799 99.4382Z" fill="white"/>
<path d="M8.64573 102.948L2.96496 104.183L3.78237 107.946L4.41887 107.808L3.76564 104.8L8.8099 103.704L8.64573 102.948Z" fill="white"/>
<path d="M7.15104 111.081L10.032 111.224L10.0368 111.24L7.73113 112.964L7.15104 111.081ZM10.5813 110.629L4.35956 110.178L4.59208 110.933L6.45668 111.04L7.18059 113.39L5.69473 114.513L5.94642 115.33L10.833 111.446L10.5813 110.629Z" fill="white"/>
<path d="M10.4127 117.759L12.1221 117.056L12.71 118.487C12.774 118.643 12.8238 118.793 12.8594 118.937C12.9021 119.083 12.915 119.222 12.8981 119.352C12.8812 119.482 12.8299 119.6 12.7442 119.706C12.6585 119.812 12.5203 119.904 12.3295 119.982C12.0434 120.1 11.7904 120.098 11.5705 119.977C11.3577 119.859 11.1678 119.597 11.0007 119.19L10.4127 117.759ZM12.4305 116.093L7.054 118.304L8.12161 120.903C8.23094 121.169 8.36955 121.385 8.53741 121.55C8.71235 121.719 8.89796 121.842 9.09422 121.92C9.29757 122.001 9.50655 122.038 9.72118 122.032C9.9358 122.026 10.141 121.983 10.3368 121.902C10.6681 121.766 10.9131 121.562 11.0719 121.292C11.2306 121.021 11.277 120.705 11.2111 120.345L11.2262 120.339C11.4318 120.554 11.6654 120.687 11.9269 120.738C12.1955 120.791 12.4729 120.759 12.759 120.642C13.0301 120.53 13.2327 120.374 13.3669 120.172C13.5031 119.975 13.5879 119.767 13.6211 119.548C13.6383 119.447 13.6357 119.333 13.6133 119.208C13.5931 119.087 13.5611 118.959 13.5175 118.824C13.4789 118.688 13.4318 118.552 13.3761 118.416C13.3275 118.283 13.2794 118.159 13.232 118.044L12.4305 116.093ZM7.95039 118.772L9.81034 118.007L10.4818 119.641C10.5437 119.792 10.5885 119.944 10.6161 120.097C10.6488 120.248 10.6517 120.39 10.6247 120.525C10.6048 120.662 10.5506 120.787 10.4619 120.9C10.3733 121.013 10.2411 121.105 10.0654 121.177C9.7642 121.301 9.49112 121.308 9.24617 121.197C9.00328 121.092 8.81685 120.881 8.68688 120.565L7.95039 118.772Z" fill="white"/>
<path d="M15.435 122.911L10.2338 125.507L10.579 126.2L15.7803 123.603L15.435 122.911Z" fill="white"/>
<path d="M17.4429 126.746L12.4265 129.684L14.3716 133.008L14.9337 132.679L13.3792 130.023L17.8335 127.414L17.4429 126.746Z" fill="white"/>
<path d="M20.8325 132.229L16.0235 135.496L16.4578 136.136L21.2669 132.869L20.8325 132.229Z" fill="white"/>
<path d="M23.6249 137.196L19.5674 140.387L20.0454 140.995L24.1028 137.804L25.3002 139.328L25.8121 138.925L22.9396 135.27L22.4276 135.672L23.6249 137.196Z" fill="white"/>
<path d="M27.6746 141.054L23.4267 145.023L26.1825 147.975L26.6585 147.53L24.4305 145.144L25.9 143.771L27.9613 145.979L28.4372 145.534L26.376 143.326L27.7265 142.064L29.9377 144.433L30.4137 143.988L27.6746 141.054ZM31.0086 142.084L29.2614 142.145L28.9059 141.765L30.403 141.435L31.0086 142.084Z" fill="white"/>
<path d="M33.5612 151.255L33.1472 151.758L34.9631 153.254L35.3771 152.751L33.5612 151.255Z" fill="white"/>
<path d="M43.5909 154.745L40.5262 159.685L41.1833 160.093L42.4925 157.982L44.0972 158.979C44.2586 159.079 44.372 159.185 44.4374 159.295C44.5056 159.402 44.5439 159.515 44.5523 159.635C44.5637 159.751 44.5488 159.873 44.5078 160.001C44.4696 160.124 44.4226 160.251 44.3666 160.382C44.3153 160.517 44.2533 160.648 44.1806 160.775C44.108 160.902 44.0396 161.023 43.9756 161.136C43.9144 161.245 43.8635 161.348 43.823 161.444C43.787 161.543 43.7764 161.632 43.791 161.712L44.5242 162.167C44.5066 162.041 44.5122 161.914 44.5411 161.785C44.5775 161.654 44.6237 161.523 44.6797 161.391C44.7356 161.26 44.7999 161.131 44.8726 161.003C44.9452 160.876 45.0141 160.749 45.0793 160.624C45.1399 160.495 45.1907 160.367 45.2317 160.239C45.2773 160.114 45.2996 159.991 45.2987 159.869C45.3052 159.745 45.2823 159.622 45.2302 159.5C45.1826 159.381 45.0959 159.264 44.9702 159.147L44.9787 159.133C45.33 159.236 45.6426 159.216 45.9165 159.073C46.1951 158.933 46.4274 158.713 46.6134 158.414C46.8623 158.012 46.9246 157.613 46.8002 157.217C46.6805 156.823 46.3854 156.48 45.915 156.188L43.5909 154.745ZM44.2054 158.279L42.8359 157.429L43.9047 155.706L45.5371 156.72C45.846 156.912 46.021 157.129 46.0621 157.372C46.1031 157.614 46.0464 157.86 45.8919 158.109C45.7803 158.289 45.6564 158.417 45.5203 158.492C45.3917 158.565 45.2529 158.604 45.1039 158.607C44.9624 158.609 44.8153 158.578 44.6627 158.515C44.51 158.452 44.3576 158.374 44.2054 158.279Z" fill="white"/>
<path d="M49.9268 158.484L47.3081 163.674L50.913 165.495L51.2064 164.913L48.292 163.441L49.1979 161.646L51.8943 163.007L52.1877 162.426L49.4913 161.064L50.3238 159.414L53.2165 160.875L53.5099 160.293L49.9268 158.484Z" fill="white"/>
<path d="M59.2433 164.574L59.9626 164.859C60.0359 164.555 60.0498 164.268 60.0043 163.999C59.9608 163.725 59.8695 163.476 59.7305 163.252C59.5915 163.028 59.4107 162.828 59.1883 162.652C58.9658 162.477 58.7132 162.333 58.4305 162.221C58.0166 162.058 57.6182 161.988 57.2353 162.012C56.8595 162.032 56.5122 162.128 56.1934 162.3C55.8797 162.474 55.5985 162.713 55.3498 163.017C55.1032 163.316 54.902 163.663 54.7465 164.057C54.5909 164.451 54.4958 164.839 54.4611 165.222C54.4315 165.607 54.4703 165.967 54.5776 166.301C54.6848 166.636 54.866 166.938 55.1211 167.208C55.3782 167.473 55.7163 167.689 56.1352 167.854C56.8268 168.128 57.4467 168.154 57.9951 167.933C58.5434 167.712 58.9876 167.275 59.3275 166.621L58.6082 166.337C58.5053 166.553 58.3781 166.742 58.2266 166.904C58.0751 167.066 57.9033 167.19 57.7111 167.278C57.526 167.362 57.3242 167.408 57.1055 167.415C56.8938 167.419 56.6694 167.374 56.4322 167.28C56.1091 167.152 55.8554 166.982 55.6711 166.769C55.4867 166.556 55.3587 166.318 55.2871 166.057C55.2225 165.792 55.2087 165.509 55.2457 165.209C55.2847 164.903 55.3651 164.596 55.4867 164.288C55.5984 164.006 55.7414 163.747 55.9158 163.512C56.0902 163.278 56.2905 163.088 56.5166 162.944C56.7498 162.797 57.0039 162.708 57.279 162.677C57.559 162.647 57.8606 162.697 58.1836 162.824C58.5622 162.974 58.8499 163.199 59.0467 163.498C59.2485 163.8 59.3141 164.158 59.2433 164.574Z" fill="white"/>
<path d="M64.7949 168.134L67.8864 165.454L67.0419 165.209L64.6368 167.393L63.7342 164.249L62.8506 163.992L64.0521 167.919L63.3901 170.202L64.1329 170.418L64.7949 168.134Z" fill="white"/>
<path d="M74.2165 168.547L74.9763 168.691C74.9915 168.379 74.9516 168.096 74.8566 167.84C74.7627 167.579 74.6264 167.351 74.4479 167.157C74.2694 166.963 74.0544 166.8 73.8031 166.669C73.5517 166.539 73.2767 166.445 72.9781 166.388C72.5408 166.304 72.1364 166.31 71.7647 166.405C71.3993 166.496 71.0761 166.655 70.795 166.884C70.5193 167.113 70.2878 167.4 70.1004 167.746C69.9141 168.086 69.7814 168.464 69.7022 168.88C69.623 169.296 69.6022 169.695 69.6398 170.078C69.6828 170.462 69.7882 170.808 69.9561 171.117C70.1239 171.425 70.3584 171.688 70.6596 171.906C70.9618 172.118 71.3341 172.266 71.7767 172.35C72.5072 172.49 73.1211 172.399 73.6185 172.08C74.1159 171.76 74.4704 171.247 74.6821 170.542L73.9223 170.397C73.8616 170.629 73.772 170.838 73.6534 171.025C73.5349 171.213 73.3894 171.367 73.217 171.489C73.051 171.607 72.8612 171.69 72.6477 171.737C72.4405 171.781 72.2116 171.779 71.961 171.731C71.6197 171.666 71.3386 171.546 71.1177 171.371C70.8968 171.196 70.7267 170.987 70.6073 170.743C70.4943 170.495 70.4279 170.22 70.408 169.918C70.3892 169.611 70.4108 169.294 70.4727 168.969C70.5295 168.67 70.6217 168.389 70.7491 168.126C70.8765 167.863 71.0379 167.64 71.2331 167.456C71.4347 167.268 71.6676 167.133 71.9319 167.05C72.2016 166.969 72.507 166.961 72.8483 167.026C73.2482 167.102 73.5728 167.269 73.8222 167.527C74.0769 167.785 74.2083 168.125 74.2165 168.547Z" fill="white"/>
<path d="M78.2919 167.35L77.7108 173.135L81.5427 173.52L81.6078 172.872L78.5455 172.564L79.0615 167.428L78.2919 167.35Z" fill="white"/>
<path d="M85.5632 171.285L86.5894 168.588L86.6057 168.589L87.5333 171.314L85.5632 171.285ZM86.1929 167.882L83.8415 173.661L84.6312 173.673L85.3091 171.932L87.7677 171.969L88.3761 173.729L89.231 173.742L87.0478 167.895L86.1929 167.882Z" fill="white"/>
<path d="M92.9189 170.245L92.7789 168.402L94.3214 168.285C94.4892 168.272 94.647 168.271 94.7948 168.282C94.9476 168.286 95.0832 168.317 95.2018 168.373C95.3204 168.43 95.4167 168.515 95.4907 168.629C95.5647 168.743 95.6095 168.903 95.6252 169.109C95.6486 169.417 95.5689 169.657 95.386 169.829C95.208 169.995 94.8999 170.095 94.4615 170.128L92.9189 170.245ZM91.9582 167.812L92.3988 173.608L95.1997 173.395C95.4866 173.373 95.7348 173.308 95.9443 173.2C96.1588 173.085 96.3333 172.947 96.4679 172.784C96.6076 172.616 96.7076 172.429 96.7682 172.223C96.8288 172.017 96.851 171.808 96.835 171.597C96.8078 171.24 96.6901 170.944 96.4817 170.709C96.2734 170.475 95.9877 170.333 95.6247 170.284L95.6235 170.268C95.8913 170.139 96.0898 169.958 96.2191 169.725C96.3534 169.486 96.4088 169.212 96.3853 168.904C96.3631 168.611 96.2768 168.37 96.1262 168.18C95.9811 167.99 95.8095 167.845 95.6114 167.746C95.5207 167.698 95.4121 167.666 95.2856 167.648C95.1644 167.63 95.0331 167.621 94.8915 167.621C94.7496 167.616 94.6055 167.618 94.4594 167.629C94.3183 167.635 94.1855 167.642 94.061 167.652L91.9582 167.812ZM93.1207 172.9L92.9683 170.895L94.73 170.761C94.8924 170.748 95.0506 170.753 95.2046 170.774C95.3582 170.789 95.4947 170.831 95.6142 170.898C95.7386 170.959 95.8407 171.049 95.9205 171.168C96.0003 171.287 96.0475 171.442 96.0619 171.631C96.0865 171.956 96.0084 172.218 95.8276 172.417C95.6521 172.615 95.3939 172.727 95.0529 172.753L93.1207 172.9Z" fill="white"/>
<path d="M99.3675 167.06L100.229 172.809L100.994 172.694L100.132 166.945L99.3675 167.06Z" fill="white"/>
<path d="M103.633 166.334L104.876 172.013L108.638 171.19L108.499 170.553L105.492 171.212L104.389 166.169L103.633 166.334Z" fill="white"/>
<path d="M109.894 164.803L111.512 170.387L112.255 170.171L110.637 164.588L109.894 164.803Z" fill="white"/>
<path d="M115.478 163.681L117.257 168.526L117.983 168.259L116.204 163.414L118.023 162.745L117.798 162.134L113.434 163.738L113.659 164.349L115.478 163.681Z" fill="white"/>
<path d="M120.397 161.02L122.857 166.287L126.515 164.577L126.24 163.987L123.282 165.37L122.431 163.547L125.167 162.268L124.892 161.678L122.155 162.957L121.373 161.283L124.309 159.91L124.033 159.32L120.397 161.02ZM122.407 158.166L121.925 159.847L121.453 160.068L121.603 158.542L122.407 158.166Z" fill="white"/>
<path d="M131.913 158.571L132.263 159.12L134.247 157.855L133.897 157.306L131.913 158.571Z" fill="white"/>
<path d="M138.33 150.107L142.079 154.55L142.67 154.051L141.068 152.153L142.511 150.934C142.657 150.811 142.792 150.736 142.918 150.708C143.04 150.676 143.159 150.674 143.276 150.704C143.389 150.729 143.501 150.78 143.61 150.859C143.715 150.933 143.821 151.017 143.929 151.111C144.041 151.202 144.146 151.301 144.245 151.41C144.343 151.518 144.437 151.62 144.525 151.716C144.61 151.808 144.691 151.888 144.77 151.957C144.853 152.021 144.935 152.059 145.015 152.07L145.674 151.513C145.549 151.491 145.43 151.446 145.316 151.379C145.203 151.304 145.093 151.219 144.985 151.125C144.877 151.031 144.774 150.93 144.676 150.822C144.577 150.713 144.478 150.609 144.379 150.508C144.275 150.41 144.169 150.322 144.06 150.244C143.955 150.162 143.845 150.102 143.728 150.066C143.613 150.021 143.489 150.005 143.357 150.017C143.229 150.025 143.091 150.072 142.941 150.155L142.931 150.143C143.137 149.84 143.215 149.537 143.163 149.232C143.116 148.924 142.979 148.635 142.751 148.365C142.447 148.004 142.087 147.822 141.671 147.817C141.26 147.81 140.843 147.984 140.42 148.342L138.33 150.107ZM141.88 150.615L140.648 151.655L139.341 150.106L140.809 148.866C141.086 148.631 141.347 148.532 141.591 148.568C141.834 148.604 142.05 148.733 142.239 148.957C142.376 149.119 142.459 149.277 142.488 149.429C142.518 149.574 142.512 149.718 142.469 149.861C142.427 149.996 142.352 150.127 142.245 150.253C142.139 150.378 142.017 150.499 141.88 150.615Z" fill="white"/>
<path d="M143.843 145.234L147.968 149.33L150.812 146.463L150.35 146.004L148.051 148.322L146.624 146.905L148.751 144.76L148.289 144.302L146.161 146.446L144.85 145.144L147.132 142.843L146.67 142.384L143.843 145.234Z" fill="white"/>
<path d="M152.51 138.252L153.003 137.656C152.737 137.492 152.469 137.39 152.199 137.35C151.925 137.307 151.66 137.317 151.404 137.38C151.148 137.443 150.902 137.553 150.666 137.71C150.431 137.868 150.216 138.064 150.023 138.298C149.739 138.641 149.55 138.998 149.454 139.37C149.358 139.734 149.342 140.094 149.407 140.451C149.475 140.803 149.615 141.144 149.828 141.475C150.036 141.802 150.304 142.101 150.63 142.37C150.956 142.64 151.296 142.851 151.65 143.002C152.007 143.149 152.361 143.224 152.712 143.225C153.063 143.226 153.406 143.147 153.742 142.988C154.073 142.826 154.382 142.57 154.669 142.223C155.143 141.65 155.359 141.068 155.318 140.478C155.278 139.888 154.999 139.33 154.483 138.805L153.99 139.401C154.164 139.566 154.304 139.745 154.411 139.94C154.519 140.134 154.584 140.336 154.608 140.546C154.631 140.748 154.612 140.954 154.551 141.164C154.489 141.367 154.377 141.566 154.215 141.763C153.994 142.031 153.753 142.22 153.494 142.329C153.235 142.439 152.969 142.487 152.698 142.474C152.427 142.454 152.153 142.38 151.879 142.251C151.601 142.12 151.334 141.949 151.079 141.738C150.844 141.544 150.643 141.328 150.473 141.089C150.304 140.851 150.186 140.602 150.119 140.342C150.051 140.075 150.045 139.806 150.1 139.534C150.159 139.259 150.298 138.987 150.52 138.719C150.779 138.405 151.081 138.201 151.427 138.106C151.776 138.008 152.137 138.056 152.51 138.252Z" fill="white"/>
<path d="M157.611 134.07L156.017 130.3L155.523 131.028L156.857 133.992L153.589 133.878L153.072 134.639L157.177 134.71L159.143 136.046L159.578 135.406L157.611 134.07Z" fill="white"/>
<path d="M160.915 125.233L161.287 124.555C160.995 124.444 160.713 124.394 160.44 124.405C160.163 124.414 159.904 124.473 159.664 124.583C159.425 124.693 159.204 124.847 159.002 125.046C158.8 125.244 158.626 125.477 158.479 125.743C158.265 126.134 158.146 126.52 158.121 126.903C158.095 127.279 158.146 127.635 158.277 127.973C158.41 128.307 158.611 128.616 158.882 128.901C159.148 129.183 159.467 129.426 159.838 129.63C160.209 129.834 160.582 129.977 160.958 130.06C161.336 130.138 161.698 130.145 162.043 130.08C162.388 130.016 162.71 129.874 163.01 129.655C163.305 129.433 163.561 129.125 163.778 128.73C164.136 128.078 164.24 127.466 164.089 126.894C163.939 126.322 163.561 125.827 162.955 125.407L162.583 126.085C162.785 126.214 162.956 126.364 163.098 126.535C163.239 126.706 163.341 126.892 163.404 127.094C163.465 127.288 163.485 127.494 163.464 127.712C163.441 127.922 163.369 128.139 163.246 128.363C163.079 128.668 162.878 128.898 162.643 129.054C162.409 129.21 162.158 129.307 161.889 129.345C161.618 129.376 161.336 129.354 161.043 129.28C160.744 129.203 160.45 129.084 160.16 128.925C159.894 128.778 159.655 128.604 159.444 128.401C159.233 128.199 159.071 127.976 158.956 127.734C158.84 127.484 158.783 127.22 158.786 126.944C158.792 126.662 158.879 126.369 159.046 126.064C159.242 125.707 159.501 125.45 159.823 125.293C160.147 125.13 160.511 125.11 160.915 125.233Z" fill="white"/>
<path d="M161.037 120.985L166.358 123.326L167.907 119.8L167.311 119.538L166.073 122.355L161.348 120.277L161.037 120.985Z" fill="white"/>
<path d="M167.025 115.283L164.778 113.473L164.783 113.458L167.662 113.418L167.025 115.283ZM163.983 113.632L168.752 117.655L169.008 116.907L167.562 115.724L168.357 113.398L170.219 113.363L170.495 112.554L164.26 112.823L163.983 113.632Z" fill="white"/>
<path d="M168.309 107.963L166.513 107.526L166.878 106.023C166.918 105.859 166.965 105.709 167.021 105.572C167.073 105.428 167.144 105.308 167.234 105.213C167.324 105.117 167.435 105.052 167.566 105.017C167.698 104.982 167.863 104.989 168.064 105.038C168.365 105.111 168.568 105.261 168.675 105.488C168.778 105.708 168.778 106.032 168.674 106.459L168.309 107.963ZM165.698 108.124L171.347 109.497L172.009 106.767C172.077 106.487 172.092 106.231 172.053 105.998C172.011 105.759 171.933 105.55 171.82 105.372C171.703 105.187 171.556 105.034 171.379 104.913C171.201 104.792 171.01 104.706 170.804 104.656C170.456 104.571 170.138 104.592 169.851 104.718C169.563 104.843 169.34 105.071 169.182 105.401L169.166 105.398C169.126 105.103 169.015 104.858 168.833 104.663C168.648 104.462 168.405 104.324 168.104 104.251C167.819 104.182 167.563 104.19 167.336 104.274C167.11 104.353 166.919 104.472 166.764 104.629C166.69 104.701 166.626 104.794 166.57 104.909C166.516 105.019 166.466 105.141 166.423 105.276C166.373 105.409 166.332 105.547 166.297 105.689C166.258 105.825 166.224 105.954 166.195 106.075L165.698 108.124ZM170.896 108.591L168.942 108.116L169.359 106.4C169.397 106.241 169.45 106.092 169.518 105.952C169.58 105.811 169.661 105.694 169.762 105.601C169.859 105.502 169.976 105.432 170.114 105.393C170.252 105.354 170.413 105.357 170.598 105.402C170.914 105.479 171.139 105.634 171.273 105.867C171.407 106.096 171.434 106.376 171.353 106.708L170.896 108.591Z" fill="white"/>
<path d="M167.272 100.842L173.006 101.799L173.134 101.036L167.399 100.079L167.272 100.842Z" fill="white"/>
<path d="M167.901 96.5582L173.686 97.1309L174.065 93.2984L173.417 93.2342L173.114 96.297L167.977 95.7885L167.901 96.5582Z" fill="white"/>
<path d="M168.38 90.1286L174.19 90.3138L174.215 89.5407L168.404 89.3555L168.38 90.1286Z" fill="white"/>
<path d="M169.038 84.4693L174.197 84.2732L174.167 83.5003L169.009 83.6964L168.936 81.7599L168.285 81.7847L168.461 86.4305L169.112 86.4057L169.038 84.4693Z" fill="white"/>
<path d="M168.029 78.9659L173.798 78.2525L173.303 74.2445L172.657 74.3245L173.057 77.5648L171.061 77.8116L170.691 74.8137L170.044 74.8936L170.415 77.8915L168.58 78.1183L168.183 74.9022L167.537 74.9821L168.029 78.9659ZM165.936 76.1727L167.386 77.1502L167.45 77.6674L166.045 77.0535L165.936 76.1727Z" fill="white"/>
<path d="M169.26 67.2511L169.89 67.0877L169.301 64.8097L168.67 64.9732L169.26 67.2511Z" fill="white"/>
<path d="M163.195 58.5308L168.578 56.3357L168.286 55.6193L165.987 56.557L165.274 54.8077C165.202 54.6317 165.172 54.4797 165.185 54.3516C165.192 54.2255 165.228 54.1114 165.291 54.0092C165.35 53.909 165.434 53.8192 165.542 53.7398C165.645 53.6625 165.758 53.5872 165.881 53.5138C166.001 53.4354 166.128 53.366 166.262 53.3056C166.396 53.2452 166.522 53.1879 166.64 53.1337C166.754 53.0816 166.855 53.0285 166.945 52.9744C167.032 52.9154 167.093 52.8495 167.128 52.7766L166.802 51.9774C166.743 52.0897 166.663 52.1895 166.564 52.2768C166.458 52.3612 166.343 52.4401 166.221 52.5135C166.098 52.5869 165.97 52.6538 165.836 52.7142C165.703 52.7745 165.573 52.8364 165.446 52.8997C165.322 52.9681 165.205 53.042 165.097 53.1213C164.986 53.1956 164.896 53.2824 164.825 53.3817C164.747 53.478 164.693 53.5907 164.664 53.72C164.632 53.8442 164.633 53.9903 164.666 54.1585L164.651 54.1646C164.428 53.8748 164.163 53.7072 163.857 53.6618C163.55 53.6115 163.233 53.6529 162.906 53.7861C162.469 53.9644 162.184 54.2506 162.051 54.6446C161.917 55.0337 161.954 55.4845 162.163 55.9973L163.195 58.5308ZM164.775 55.31L165.383 56.803L163.506 57.5685L162.781 55.789C162.644 55.4522 162.63 55.1736 162.739 54.9531C162.849 54.7326 163.039 54.567 163.311 54.4563C163.507 54.3764 163.682 54.346 163.836 54.3651C163.984 54.3813 164.118 54.4318 164.241 54.5167C164.356 54.5986 164.457 54.7098 164.544 54.8503C164.63 54.9909 164.708 55.1441 164.775 55.31Z" fill="white"/>
<path d="M160.266 51.7796L165.435 49.1195L163.589 45.5279L163.009 45.826L164.502 48.7297L162.714 49.6499L161.333 46.9634L160.754 47.2615L162.135 49.9479L160.492 50.7936L159.01 47.9116L158.431 48.2097L160.266 51.7796Z" fill="white"/>
<path d="M156.307 41.3743L155.892 40.7214C155.654 40.9241 155.475 41.1476 155.354 41.392C155.228 41.6392 155.155 41.8944 155.136 42.1576C155.116 42.4207 155.145 42.6887 155.222 42.9615C155.299 43.2343 155.419 43.4989 155.582 43.7555C155.82 44.1312 156.102 44.422 156.425 44.6279C156.741 44.832 157.079 44.9584 157.438 45.0069C157.794 45.0508 158.162 45.0226 158.542 44.9225C158.917 44.8252 159.284 44.663 159.641 44.4359C159.998 44.2087 160.303 43.9503 160.557 43.6606C160.807 43.3663 160.987 43.0525 161.097 42.719C161.206 42.3855 161.237 42.0345 161.19 41.666C161.138 41.3004 160.991 40.9274 160.749 40.5472C160.35 39.9195 159.864 39.5338 159.291 39.3903C158.717 39.2468 158.101 39.3395 157.442 39.6686L157.857 40.3215C158.067 40.2071 158.281 40.1289 158.499 40.0869C158.716 40.045 158.929 40.0451 159.136 40.0873C159.335 40.1278 159.525 40.2095 159.706 40.3324C159.88 40.4536 160.035 40.6219 160.171 40.8373C160.358 41.1305 160.463 41.4175 160.487 41.6981C160.511 41.9788 160.475 42.2461 160.379 42.5C160.275 42.7523 160.12 42.9892 159.914 43.2106C159.703 43.4349 159.457 43.6359 159.178 43.8136C158.921 43.9766 158.654 44.1018 158.375 44.1891C158.096 44.2764 157.823 44.3119 157.555 44.2955C157.28 44.2775 157.022 44.2003 156.781 44.064C156.537 43.9232 156.322 43.7061 156.136 43.4129C155.917 43.0693 155.817 42.7184 155.834 42.3603C155.848 41.9976 156.005 41.669 156.307 41.3743Z" fill="white"/>
<path d="M153.907 35.2297L149.83 35.5816L150.37 36.2763L153.599 35.9223L152.481 38.997L153.045 39.7239L154.381 35.8408L156.259 34.3822L155.784 33.7712L153.907 35.2297Z" fill="white"/>
<path d="M146.527 29.3559L145.997 28.7921C145.802 29.0357 145.667 29.2889 145.594 29.5516C145.516 29.8181 145.493 30.0823 145.523 30.3445C145.553 30.6066 145.632 30.8644 145.758 31.118C145.885 31.3716 146.052 31.6092 146.26 31.8308C146.565 32.1552 146.895 32.3882 147.252 32.5299C147.601 32.6713 147.956 32.7323 148.317 32.7128C148.675 32.6894 149.031 32.5929 149.386 32.4234C149.737 32.2576 150.066 32.0297 150.375 31.7397C150.683 31.4497 150.935 31.1387 151.129 30.8068C151.32 30.4709 151.438 30.1288 151.484 29.7807C151.529 29.4326 151.494 29.082 151.378 28.7289C151.258 28.3795 151.044 28.0406 150.736 27.7122C150.227 27.1702 149.677 26.8823 149.087 26.8486C148.497 26.8149 147.909 27.0213 147.323 27.4679L147.852 28.0316C148.038 27.8799 148.233 27.7631 148.439 27.6812C148.645 27.5992 148.854 27.5596 149.065 27.5623C149.268 27.5648 149.47 27.6095 149.671 27.6964C149.864 27.7831 150.048 27.9194 150.223 28.1053C150.461 28.3585 150.617 28.6207 150.694 28.892C150.77 29.1632 150.784 29.4325 150.738 29.6999C150.683 29.9671 150.575 30.2288 150.414 30.4849C150.248 30.7448 150.045 30.9882 149.804 31.215C149.582 31.4232 149.343 31.5962 149.085 31.7342C148.827 31.8721 148.565 31.9581 148.299 31.9921C148.026 32.0258 147.758 31.9983 147.496 31.9095C147.23 31.8167 146.978 31.6437 146.74 31.3905C146.461 31.0938 146.297 30.768 146.247 30.413C146.192 30.0542 146.286 29.7018 146.527 29.3559Z" fill="white"/>
<path d="M142.526 27.9273L146.395 23.5884L143.522 21.024L143.088 21.5101L145.384 23.5595L141.949 27.4123L142.526 27.9273Z" fill="white"/>
<path d="M138.955 20.4682L136.54 22.0464L136.527 22.0366L137.379 19.2857L138.955 20.4682ZM136.446 22.851L141.743 19.5577L141.112 19.0838L139.541 20.0936L137.574 18.6179L138.116 16.8361L137.432 16.323L135.762 22.338L136.446 22.851Z" fill="white"/>
<path d="M132.393 16.984L131.423 18.5575L130.106 17.7455C129.963 17.6572 129.835 17.5653 129.721 17.4699C129.601 17.3763 129.509 17.2718 129.446 17.1565C129.383 17.0412 129.355 16.9157 129.362 16.7798C129.37 16.6439 129.427 16.4882 129.535 16.3126C129.698 16.0492 129.903 15.9017 130.152 15.8703C130.394 15.8406 130.702 15.9412 131.076 16.172L132.393 16.984ZM131.74 19.5181L134.789 14.5686L132.398 13.0942C132.153 12.9432 131.914 12.85 131.681 12.8146C131.44 12.781 131.218 12.7904 131.013 12.8429C130.801 12.8971 130.61 12.9898 130.44 13.1209C130.27 13.252 130.13 13.4076 130.019 13.5879C129.831 13.8929 129.752 14.2015 129.783 14.5138C129.814 14.8261 129.962 15.1087 130.227 15.3614L130.218 15.3753C129.926 15.3224 129.659 15.3522 129.417 15.4648C129.168 15.5791 128.963 15.768 128.8 16.0314C128.646 16.2809 128.575 16.5268 128.585 16.769C128.59 17.0084 128.644 17.2265 128.746 17.4232C128.791 17.515 128.86 17.6053 128.952 17.6939C129.04 17.7797 129.141 17.8642 129.255 17.9475C129.367 18.0355 129.485 18.1179 129.609 18.1949C129.727 18.2735 129.839 18.3457 129.945 18.4112L131.74 19.5181ZM133.789 14.7172L132.734 16.4294L131.23 15.502C131.092 15.4165 130.966 15.32 130.854 15.2125C130.739 15.1097 130.653 14.9959 130.596 14.8714C130.531 14.7487 130.501 14.6156 130.507 14.4723C130.512 14.329 130.565 14.1764 130.664 14.0147C130.835 13.7374 131.052 13.5715 131.315 13.5169C131.574 13.4595 131.849 13.5206 132.14 13.7L133.789 14.7172Z" fill="white"/>
<path d="M125.303 15.7708L127.985 10.6126L127.298 10.2556L124.617 15.4138L125.303 15.7708Z" fill="white"/>
<path d="M121.426 13.8485L123.757 8.52292L120.23 6.97749L119.968 7.57419L122.787 8.80923L120.717 13.5381L121.426 13.8485Z" fill="white"/>
<path d="M115.462 11.4055L117.432 5.93624L116.705 5.67383L114.734 11.1431L115.462 11.4055Z" fill="white"/>
<path d="M110.284 9.03055L111.691 4.06391L110.947 3.85291L109.54 8.81956L107.676 8.29097L107.498 8.91767L111.971 10.1859L112.149 9.55915L110.284 9.03055Z" fill="white"/>
<path d="M104.741 8.29063L105.846 2.583L101.881 1.81532L101.757 2.45483L104.962 3.07547L104.58 5.04996L101.615 4.47575L101.491 5.11526L104.457 5.68947L104.106 7.50408L100.924 6.88809L100.801 7.5276L104.741 8.29063ZM101.438 9.41757L102.816 8.34079L103.328 8.43985L102.31 9.58627L101.438 9.41757Z" fill="white"/>
<path d="M93.9856 3.50107L94.0251 2.8509L91.6763 2.70822L91.6369 3.35839L93.9856 3.50107Z" fill="white"/>
</g>
</svg>
