<svg width="155" height="52" viewBox="0 0 155 52" fill="none" xmlns="http://www.w3.org/2000/svg">
<path d="M0.107422 21.9541L1.74805 14.5859H2.24609C2.17773 15.2988 2.14355 15.8896 2.14355 16.3584C2.14355 17.6963 2.56836 18.7852 3.41797 19.625C4.27734 20.4648 5.39551 20.8848 6.77246 20.8848C8.05176 20.8848 9.02344 20.4941 9.6875 19.7129C10.3516 18.9219 10.6836 18.0137 10.6836 16.9883C10.6836 16.3242 10.5322 15.7188 10.2295 15.1719C9.77051 14.3613 8.54492 12.9355 6.55273 10.8945C5.58594 9.91797 4.96582 9.19043 4.69238 8.71191C4.24316 7.9209 4.01855 7.09082 4.01855 6.22168C4.01855 4.83496 4.53613 3.64844 5.57129 2.66211C6.60645 1.67578 7.93457 1.18262 9.55566 1.18262C10.1025 1.18262 10.6201 1.23633 11.1084 1.34375C11.4111 1.40234 11.9629 1.59766 12.7637 1.92969C13.3301 2.1543 13.6426 2.27637 13.7012 2.2959C13.8379 2.3252 13.9893 2.33984 14.1553 2.33984C14.4385 2.33984 14.6826 2.2666 14.8877 2.12012C15.0928 1.97363 15.332 1.66113 15.6055 1.18262H16.1621L14.6387 7.77441H14.1406C14.1797 7.18848 14.1992 6.71484 14.1992 6.35352C14.1992 5.17187 13.8086 4.20508 13.0273 3.45312C12.2461 2.70117 11.2158 2.3252 9.93652 2.3252C8.9209 2.3252 8.0957 2.62305 7.46094 3.21875C6.82617 3.81445 6.50879 4.50293 6.50879 5.28418C6.50879 5.96777 6.70898 6.62207 7.10938 7.24707C7.51953 7.8623 8.45215 8.87305 9.90723 10.2793C11.3721 11.6758 12.3193 12.7695 12.749 13.5605C13.1787 14.3418 13.3936 15.1768 13.3936 16.0654C13.3936 17.0713 13.125 18.0479 12.5879 18.9951C12.0605 19.9326 11.2988 20.6602 10.3027 21.1777C9.30664 21.6953 8.21777 21.9541 7.03613 21.9541C6.4502 21.9541 5.90332 21.9004 5.39551 21.793C4.8877 21.6855 4.07715 21.4219 2.96387 21.002C2.58301 20.8555 2.26562 20.7822 2.01172 20.7822C1.43555 20.7822 0.986328 21.1729 0.664062 21.9541H0.107422ZM23.8232 0.669922L18.8135 18.1016C18.5693 18.9707 18.4473 19.5029 18.4473 19.6982C18.4473 19.8447 18.4912 19.9668 18.5791 20.0645C18.6768 20.1621 18.7939 20.2109 18.9307 20.2109C19.1162 20.2109 19.3164 20.1279 19.5312 19.9619C20.0391 19.5615 20.5713 18.9414 21.1279 18.1016L21.5674 18.5557C20.6396 19.8643 19.7852 20.7773 19.0039 21.2949C18.4277 21.666 17.8809 21.8516 17.3633 21.8516C16.9922 21.8516 16.6797 21.7246 16.4258 21.4707C16.1816 21.2168 16.0596 20.9238 16.0596 20.5918C16.0596 20.2402 16.2158 19.5176 16.5283 18.4238L20.498 4.68359C20.8203 3.56055 20.9814 2.91602 20.9814 2.75C20.9814 2.51562 20.8887 2.3252 20.7031 2.17871C20.5176 2.02246 20.2295 1.94434 19.8389 1.94434C19.6143 1.94434 19.2725 1.97852 18.8135 2.04688V1.50488L23.8232 0.669922ZM37.124 12.8281C37.124 14.293 36.7334 15.7432 35.9521 17.1787C35.1807 18.6143 34.1016 19.752 32.7148 20.5918C31.3281 21.4316 29.9805 21.8516 28.6719 21.8516C27.334 21.8516 26.2402 21.4268 25.3906 20.5771C24.5508 19.7178 24.1309 18.6094 24.1309 17.252C24.1309 15.8164 24.541 14.376 25.3613 12.9307C26.1914 11.4854 27.2949 10.3428 28.6719 9.50293C30.0586 8.66309 31.3965 8.24316 32.6855 8.24316C33.9746 8.24316 35.0342 8.66797 35.8643 9.51758C36.7041 10.3672 37.124 11.4707 37.124 12.8281ZM34.6924 11.8174C34.6924 10.9092 34.4678 10.2158 34.0186 9.7373C33.5791 9.24902 33.0078 9.00488 32.3047 9.00488C30.8691 9.00488 29.5459 10.0352 28.335 12.0957C27.1338 14.1465 26.5332 16.1875 26.5332 18.2188C26.5332 19.1465 26.7676 19.8643 27.2363 20.3721C27.7051 20.8701 28.2959 21.1191 29.0088 21.1191C30.3857 21.1191 31.6748 20.0986 32.876 18.0576C34.0869 16.0068 34.6924 13.9268 34.6924 11.8174ZM38.4424 8.08203H44.0674V8.62402C43.5498 8.66309 43.208 8.75586 43.042 8.90234C42.8857 9.04883 42.8076 9.25879 42.8076 9.53223C42.8076 9.83496 42.8906 10.2012 43.0566 10.6309L45.9277 18.3506L48.8135 12.0664L48.0518 10.0889C47.8174 9.50293 47.5098 9.09766 47.1289 8.87305C46.9141 8.73633 46.5137 8.65332 45.9277 8.62402V8.08203H52.3145V8.62402C51.6113 8.65332 51.1133 8.78027 50.8203 9.00488C50.625 9.16113 50.5273 9.41016 50.5273 9.75195C50.5273 9.94727 50.5664 10.1475 50.6445 10.3525L53.6914 18.0576L56.5186 10.6309C56.7139 10.1035 56.8115 9.68359 56.8115 9.37109C56.8115 9.18555 56.7139 9.01953 56.5186 8.87305C56.333 8.72656 55.9619 8.64355 55.4053 8.62402V8.08203H59.6387V8.62402C58.7891 8.75098 58.1641 9.32715 57.7637 10.3525L53.2812 21.9102H52.6807L49.3262 13.3408L45.415 21.9102H44.873L40.5664 10.6309C40.2832 9.91797 40.0049 9.43945 39.7314 9.19531C39.458 8.94141 39.0283 8.75098 38.4424 8.62402V8.08203ZM66.0693 2.7207V10.5283H69.6875C70.5176 10.5283 71.123 10.3477 71.5039 9.98633C71.8945 9.61523 72.1533 8.8877 72.2803 7.80371H72.8223V14.5273H72.2803C72.2705 13.7559 72.168 13.1895 71.9727 12.8281C71.7871 12.4668 71.5234 12.1982 71.1816 12.0225C70.8496 11.8369 70.3516 11.7441 69.6875 11.7441H66.0693V17.9844C66.0693 18.9902 66.1328 19.6543 66.2598 19.9766C66.3574 20.2207 66.5625 20.4307 66.875 20.6064C67.3047 20.8408 67.7539 20.958 68.2227 20.958H68.9404V21.5H60.415V20.958H61.1182C61.9385 20.958 62.5342 20.7188 62.9053 20.2402C63.1396 19.9277 63.2568 19.1758 63.2568 17.9844V5.15234C63.2568 4.14648 63.1934 3.48242 63.0664 3.16016C62.9688 2.91602 62.7686 2.70605 62.4658 2.53027C62.0459 2.2959 61.5967 2.17871 61.1182 2.17871H60.415V1.63672H75.1953L75.3857 6.00195H74.873C74.6191 5.07422 74.3213 4.39551 73.9795 3.96582C73.6475 3.52637 73.2324 3.20898 72.7344 3.01367C72.2461 2.81836 71.4844 2.7207 70.4492 2.7207H66.0693ZM85.1709 19.5664C83.7939 20.6309 82.9297 21.2461 82.5781 21.4121C82.0508 21.6562 81.4893 21.7783 80.8936 21.7783C79.9658 21.7783 79.1992 21.4609 78.5938 20.8262C77.998 20.1914 77.7002 19.3564 77.7002 18.3213C77.7002 17.667 77.8467 17.1006 78.1396 16.6221C78.54 15.958 79.2334 15.333 80.2197 14.7471C81.2158 14.1611 82.8662 13.4482 85.1709 12.6084V12.0811C85.1709 10.7432 84.9561 9.8252 84.5264 9.32715C84.1064 8.8291 83.4912 8.58008 82.6807 8.58008C82.0654 8.58008 81.5771 8.74609 81.2158 9.07812C80.8447 9.41016 80.6592 9.79102 80.6592 10.2207L80.6885 11.0703C80.6885 11.5195 80.5713 11.8662 80.3369 12.1104C80.1123 12.3545 79.8145 12.4766 79.4434 12.4766C79.082 12.4766 78.7842 12.3496 78.5498 12.0957C78.3252 11.8418 78.2129 11.4951 78.2129 11.0557C78.2129 10.2158 78.6426 9.44434 79.502 8.74121C80.3613 8.03809 81.5674 7.68652 83.1201 7.68652C84.3115 7.68652 85.2881 7.88672 86.0498 8.28711C86.626 8.58984 87.0508 9.06348 87.3242 9.70801C87.5 10.1279 87.5879 10.9873 87.5879 12.2861V16.8418C87.5879 18.1211 87.6123 18.9072 87.6611 19.2002C87.71 19.4834 87.7881 19.6738 87.8955 19.7715C88.0127 19.8691 88.1445 19.918 88.291 19.918C88.4473 19.918 88.584 19.8838 88.7012 19.8154C88.9062 19.6885 89.3018 19.332 89.8877 18.7461V19.5664C88.7939 21.0312 87.749 21.7637 86.7529 21.7637C86.2744 21.7637 85.8936 21.5977 85.6104 21.2656C85.3271 20.9336 85.1807 20.3672 85.1709 19.5664ZM85.1709 18.6143V13.502C83.6963 14.0879 82.7441 14.5029 82.3145 14.7471C81.543 15.1768 80.9912 15.626 80.6592 16.0947C80.3271 16.5635 80.1611 17.0762 80.1611 17.6328C80.1611 18.3359 80.3711 18.9219 80.791 19.3906C81.2109 19.8496 81.6943 20.0791 82.2412 20.0791C82.9834 20.0791 83.96 19.5908 85.1709 18.6143ZM99.5703 7.68652V12.2568H99.0869C98.7158 10.8213 98.2373 9.84473 97.6514 9.32715C97.0752 8.80957 96.3379 8.55078 95.4395 8.55078C94.7559 8.55078 94.2041 8.73145 93.7842 9.09277C93.3643 9.4541 93.1543 9.85449 93.1543 10.2939C93.1543 10.8408 93.3105 11.3096 93.623 11.7002C93.9258 12.1006 94.541 12.5254 95.4688 12.9746L97.6074 14.0146C99.5898 14.9814 100.581 16.2559 100.581 17.8379C100.581 19.0586 100.117 20.0449 99.1895 20.7969C98.2715 21.5391 97.2412 21.9102 96.0986 21.9102C95.2783 21.9102 94.3408 21.7637 93.2861 21.4707C92.9639 21.373 92.7002 21.3242 92.4951 21.3242C92.2705 21.3242 92.0947 21.4512 91.9678 21.7051H91.4844V16.915H91.9678C92.2412 18.2822 92.7637 19.3125 93.5352 20.0059C94.3066 20.6992 95.1709 21.0459 96.1279 21.0459C96.8018 21.0459 97.3486 20.8506 97.7686 20.46C98.1982 20.0596 98.4131 19.5811 98.4131 19.0244C98.4131 18.3506 98.1738 17.7842 97.6953 17.3252C97.2266 16.8662 96.2842 16.2852 94.8682 15.582C93.4521 14.8789 92.5244 14.2441 92.085 13.6777C91.6455 13.1211 91.4258 12.418 91.4258 11.5684C91.4258 10.4648 91.8018 9.54199 92.5537 8.7998C93.3154 8.05762 94.2969 7.68652 95.498 7.68652C96.0254 7.68652 96.665 7.79883 97.417 8.02344C97.915 8.16992 98.2471 8.24316 98.4131 8.24316C98.5693 8.24316 98.6914 8.20898 98.7793 8.14062C98.8672 8.07227 98.9697 7.9209 99.0869 7.68652H99.5703ZM106.528 0.669922V10.4844C107.612 9.29297 108.472 8.53125 109.106 8.19922C109.741 7.85742 110.376 7.68652 111.011 7.68652C111.772 7.68652 112.427 7.89648 112.974 8.31641C113.521 8.73633 113.926 9.39551 114.189 10.2939C114.375 10.9189 114.468 12.0615 114.468 13.7217V18.4678C114.468 19.3174 114.536 19.8984 114.673 20.2109C114.771 20.4453 114.937 20.6309 115.171 20.7676C115.405 20.9043 115.835 20.9727 116.46 20.9727V21.5H109.868V20.9727H110.176C110.801 20.9727 111.235 20.8799 111.479 20.6943C111.724 20.499 111.895 20.2158 111.992 19.8447C112.021 19.6885 112.036 19.2295 112.036 18.4678V13.7217C112.036 12.2568 111.958 11.2949 111.802 10.8359C111.655 10.377 111.416 10.0352 111.084 9.81055C110.752 9.57617 110.352 9.45898 109.883 9.45898C109.404 9.45898 108.906 9.58594 108.389 9.83984C107.871 10.0938 107.251 10.6064 106.528 11.3779V18.4678C106.528 19.3857 106.577 19.957 106.675 20.1816C106.782 20.4062 106.973 20.5967 107.246 20.7529C107.529 20.8994 108.013 20.9727 108.696 20.9727V21.5H102.046V20.9727C102.642 20.9727 103.11 20.8799 103.452 20.6943C103.647 20.5967 103.804 20.4111 103.921 20.1377C104.038 19.8643 104.097 19.3076 104.097 18.4678V6.32422C104.097 4.79102 104.058 3.84863 103.979 3.49707C103.911 3.14551 103.799 2.90625 103.643 2.7793C103.496 2.65234 103.296 2.58887 103.042 2.58887C102.837 2.58887 102.505 2.66699 102.046 2.82324L101.841 2.31055L105.854 0.669922H106.528ZM123.359 2.42773C123.77 2.42773 124.116 2.56934 124.399 2.85254C124.683 3.13574 124.824 3.48242 124.824 3.89258C124.824 4.29297 124.678 4.63965 124.385 4.93262C124.102 5.21582 123.76 5.35742 123.359 5.35742C122.959 5.35742 122.612 5.21582 122.319 4.93262C122.036 4.63965 121.895 4.29297 121.895 3.89258C121.895 3.48242 122.036 3.13574 122.319 2.85254C122.603 2.56934 122.949 2.42773 123.359 2.42773ZM123.55 8.24316L120.649 18.5117C120.454 19.2051 120.356 19.6201 120.356 19.7568C120.356 19.9131 120.4 20.04 120.488 20.1377C120.586 20.2354 120.698 20.2842 120.825 20.2842C120.972 20.2842 121.147 20.2061 121.353 20.0498C121.909 19.6104 122.471 18.9854 123.037 18.1748L123.55 18.5117C122.886 19.5273 122.104 20.3818 121.206 21.0752C120.542 21.5928 119.907 21.8516 119.302 21.8516C118.901 21.8516 118.574 21.7344 118.32 21.5C118.066 21.2559 117.939 20.9531 117.939 20.5918C117.939 20.2305 118.062 19.6299 118.306 18.79L120.21 12.2275C120.522 11.1533 120.679 10.4795 120.679 10.2061C120.679 9.99121 120.601 9.81543 120.444 9.67871C120.298 9.54199 120.093 9.47363 119.829 9.47363C119.614 9.47363 119.17 9.52734 118.496 9.63477V9.06348L123.55 8.24316ZM138.872 12.8281C138.872 14.293 138.481 15.7432 137.7 17.1787C136.929 18.6143 135.85 19.752 134.463 20.5918C133.076 21.4316 131.729 21.8516 130.42 21.8516C129.082 21.8516 127.988 21.4268 127.139 20.5771C126.299 19.7178 125.879 18.6094 125.879 17.252C125.879 15.8164 126.289 14.376 127.109 12.9307C127.939 11.4854 129.043 10.3428 130.42 9.50293C131.807 8.66309 133.145 8.24316 134.434 8.24316C135.723 8.24316 136.782 8.66797 137.612 9.51758C138.452 10.3672 138.872 11.4707 138.872 12.8281ZM136.44 11.8174C136.44 10.9092 136.216 10.2158 135.767 9.7373C135.327 9.24902 134.756 9.00488 134.053 9.00488C132.617 9.00488 131.294 10.0352 130.083 12.0957C128.882 14.1465 128.281 16.1875 128.281 18.2188C128.281 19.1465 128.516 19.8643 128.984 20.3721C129.453 20.8701 130.044 21.1191 130.757 21.1191C132.134 21.1191 133.423 20.0986 134.624 18.0576C135.835 16.0068 136.44 13.9268 136.44 11.8174ZM146.621 8.24316L144.673 14.9082C146.499 12.1836 147.896 10.3916 148.862 9.53223C149.839 8.67285 150.776 8.24316 151.675 8.24316C152.163 8.24316 152.563 8.4043 152.876 8.72656C153.198 9.04883 153.359 9.46875 153.359 9.98633C153.359 10.5723 153.218 11.3535 152.935 12.3301L151.147 18.4971C150.942 19.21 150.84 19.6445 150.84 19.8008C150.84 19.9375 150.879 20.0547 150.957 20.1523C151.035 20.2402 151.118 20.2842 151.206 20.2842C151.323 20.2842 151.465 20.2207 151.631 20.0938C152.148 19.6836 152.715 19.0586 153.33 18.2188L153.784 18.4971C152.876 19.7959 152.017 20.7236 151.206 21.2803C150.64 21.6611 150.132 21.8516 149.683 21.8516C149.321 21.8516 149.033 21.7393 148.818 21.5146C148.604 21.2998 148.496 21.0068 148.496 20.6357C148.496 20.167 148.662 19.3613 148.994 18.2188L150.693 12.3301C150.908 11.5977 151.016 11.0264 151.016 10.6162C151.016 10.4209 150.952 10.2646 150.825 10.1475C150.698 10.0205 150.542 9.95703 150.356 9.95703C150.083 9.95703 149.756 10.0742 149.375 10.3086C148.652 10.748 147.9 11.4756 147.119 12.4912C146.338 13.4971 145.513 14.7861 144.644 16.3584C144.185 17.1885 143.804 18.0967 143.501 19.083L142.769 21.5H140.571L143.237 12.3301C143.55 11.2266 143.706 10.5625 143.706 10.3379C143.706 10.123 143.618 9.9375 143.442 9.78125C143.276 9.61523 143.066 9.53223 142.812 9.53223C142.695 9.53223 142.49 9.55176 142.197 9.59082L141.641 9.67871L141.553 9.15137L146.621 8.24316ZM86.9092 44.3149C87.2591 44.3149 87.5521 44.437 87.7881 44.6812C88.0322 44.9172 88.1543 45.2061 88.1543 45.5479C88.1543 45.8896 88.0322 46.1826 87.7881 46.4268C87.5439 46.6628 87.251 46.7808 86.9092 46.7808C86.5674 46.7808 86.2744 46.6628 86.0303 46.4268C85.7943 46.1826 85.6763 45.8896 85.6763 45.5479C85.6763 45.2061 85.7943 44.9172 86.0303 44.6812C86.2744 44.437 86.5674 44.3149 86.9092 44.3149ZM98.4937 35.7456L98.2739 36.5513H96.4917L95.1489 41.8857C94.5549 44.2376 93.9567 46.0565 93.3545 47.3423C92.5 49.1571 91.5804 50.4103 90.5957 51.1021C89.847 51.631 89.0983 51.8955 88.3496 51.8955C87.8613 51.8955 87.4463 51.749 87.1045 51.4561C86.8522 51.2526 86.7261 50.9881 86.7261 50.6626C86.7261 50.4022 86.8319 50.1743 87.0435 49.979C87.2469 49.7918 87.4992 49.6982 87.8003 49.6982C88.02 49.6982 88.2072 49.7674 88.3618 49.9058C88.5083 50.0441 88.5815 50.2028 88.5815 50.3818C88.5815 50.5609 88.4961 50.7277 88.3252 50.8823C88.195 50.9963 88.1299 51.0817 88.1299 51.1387C88.1299 51.2119 88.1584 51.2689 88.2153 51.3096C88.2886 51.3665 88.4025 51.395 88.5571 51.395C88.9071 51.395 89.2773 51.2852 89.668 51.0654C90.0505 50.8457 90.3923 50.5161 90.6934 50.0767C90.9945 49.6453 91.2793 49.0187 91.5479 48.1968C91.6618 47.855 91.967 46.7279 92.4634 44.8154L94.5874 36.5513H92.4634L92.6343 35.7456C93.3097 35.7456 93.7817 35.7008 94.0503 35.6113C94.3188 35.5137 94.563 35.3346 94.7827 35.0742C95.0106 34.8057 95.3035 34.3092 95.6616 33.585C96.1418 32.6084 96.6016 31.8516 97.041 31.3145C97.6432 30.5902 98.2739 30.049 98.9331 29.6909C99.6004 29.3247 100.227 29.1416 100.813 29.1416C101.431 29.1416 101.928 29.3003 102.302 29.6177C102.677 29.9269 102.864 30.2646 102.864 30.6309C102.864 30.9157 102.77 31.1558 102.583 31.3511C102.396 31.5464 102.156 31.644 101.863 31.644C101.611 31.644 101.403 31.5708 101.24 31.4243C101.086 31.2778 101.008 31.1029 101.008 30.8994C101.008 30.7692 101.061 30.6105 101.167 30.4233C101.273 30.228 101.326 30.0978 101.326 30.0327C101.326 29.9188 101.289 29.8333 101.216 29.7764C101.11 29.695 100.955 29.6543 100.752 29.6543C100.239 29.6543 99.7795 29.8171 99.3726 30.1426C98.8273 30.5739 98.339 31.2493 97.9077 32.1689C97.688 32.6491 97.2852 33.8413 96.6992 35.7456H98.4937ZM99.3481 36.1362L103.56 35.4526L101.802 41.3853C103.226 38.952 104.52 37.2511 105.684 36.2827C106.343 35.7293 106.88 35.4526 107.295 35.4526C107.563 35.4526 107.775 35.534 107.93 35.6968C108.084 35.8514 108.162 36.0793 108.162 36.3804C108.162 36.9175 108.023 37.4302 107.747 37.9185C107.551 38.2847 107.271 38.4678 106.904 38.4678C106.717 38.4678 106.554 38.4067 106.416 38.2847C106.286 38.1626 106.204 37.9754 106.172 37.7231C106.156 37.5685 106.119 37.4668 106.062 37.418C105.997 37.3529 105.92 37.3203 105.83 37.3203C105.692 37.3203 105.562 37.3529 105.439 37.418C105.228 37.5319 104.906 37.8493 104.475 38.3701C103.8 39.1676 103.067 40.2012 102.278 41.4707C101.936 42.0078 101.643 42.6141 101.399 43.2896C101.057 44.2173 100.862 44.7747 100.813 44.9619L100.422 46.5H98.5547L100.813 38.9194C101.073 38.0405 101.204 37.4139 101.204 37.0396C101.204 36.8931 101.143 36.771 101.021 36.6733C100.858 36.5431 100.642 36.478 100.374 36.478C100.203 36.478 99.8893 36.5146 99.4336 36.5879L99.3481 36.1362ZM119.514 35.4526L117.134 43.729L116.865 44.8398C116.841 44.9456 116.829 45.0352 116.829 45.1084C116.829 45.2386 116.869 45.3525 116.951 45.4502C117.016 45.5234 117.097 45.5601 117.195 45.5601C117.301 45.5601 117.439 45.495 117.61 45.3647C117.927 45.1287 118.35 44.6405 118.879 43.8999L119.294 44.1929C118.733 45.0392 118.155 45.6862 117.561 46.1338C116.967 46.5732 116.418 46.793 115.913 46.793C115.563 46.793 115.299 46.7035 115.12 46.5244C114.949 46.3535 114.863 46.1012 114.863 45.7676C114.863 45.3688 114.953 44.8439 115.132 44.1929L115.388 43.2773C114.322 44.6689 113.341 45.6414 112.446 46.1948C111.803 46.5936 111.173 46.793 110.554 46.793C109.96 46.793 109.447 46.5488 109.016 46.0605C108.585 45.5641 108.369 44.8846 108.369 44.022C108.369 42.728 108.756 41.3649 109.529 39.9326C110.31 38.4922 111.299 37.3407 112.495 36.478C113.431 35.7944 114.314 35.4526 115.144 35.4526C115.64 35.4526 116.051 35.5828 116.377 35.8433C116.711 36.1037 116.963 36.535 117.134 37.1372L117.573 35.7456L119.514 35.4526ZM115.168 36.0874C114.648 36.0874 114.094 36.3315 113.508 36.8198C112.678 37.5116 111.938 38.5369 111.287 39.896C110.644 41.255 110.322 42.4839 110.322 43.5825C110.322 44.1359 110.461 44.5754 110.737 44.9009C111.014 45.2183 111.331 45.377 111.689 45.377C112.576 45.377 113.541 44.7218 114.583 43.4116C115.974 41.6701 116.67 39.8838 116.67 38.0527C116.67 37.361 116.536 36.8605 116.267 36.5513C115.999 36.242 115.632 36.0874 115.168 36.0874ZM125.801 35.4526L124.177 41.0068C125.699 38.7363 126.863 37.243 127.668 36.5269C128.482 35.8107 129.264 35.4526 130.012 35.4526C130.419 35.4526 130.753 35.5869 131.013 35.8555C131.282 36.124 131.416 36.474 131.416 36.9053C131.416 37.3936 131.298 38.0446 131.062 38.8584L129.573 43.9976C129.402 44.5916 129.316 44.9538 129.316 45.084C129.316 45.1979 129.349 45.2956 129.414 45.377C129.479 45.4502 129.548 45.4868 129.622 45.4868C129.719 45.4868 129.837 45.4339 129.976 45.3281C130.407 44.9863 130.879 44.4655 131.392 43.7656L131.77 43.9976C131.013 45.0799 130.297 45.853 129.622 46.3169C129.15 46.6343 128.726 46.793 128.352 46.793C128.051 46.793 127.811 46.6994 127.632 46.5122C127.453 46.3332 127.363 46.089 127.363 45.7798C127.363 45.3892 127.502 44.7178 127.778 43.7656L129.194 38.8584C129.373 38.248 129.463 37.772 129.463 37.4302C129.463 37.2674 129.41 37.1372 129.304 37.0396C129.198 36.9338 129.068 36.8809 128.914 36.8809C128.686 36.8809 128.413 36.9785 128.096 37.1738C127.493 37.54 126.867 38.1463 126.216 38.9927C125.565 39.8309 124.877 40.9051 124.153 42.2153C123.77 42.9071 123.453 43.6639 123.201 44.4858L122.59 46.5H120.759L122.981 38.8584C123.241 37.9388 123.372 37.3854 123.372 37.1982C123.372 37.0192 123.298 36.8646 123.152 36.7344C123.014 36.596 122.839 36.5269 122.627 36.5269C122.529 36.5269 122.358 36.5431 122.114 36.5757L121.65 36.6489L121.577 36.2095L125.801 35.4526ZM142.439 43.8389C141.593 44.8561 140.738 45.6048 139.875 46.085C139.013 46.557 138.101 46.793 137.141 46.793C135.986 46.793 135.082 46.4674 134.431 45.8164C133.788 45.1654 133.467 44.2905 133.467 43.1919C133.467 41.9468 133.813 40.722 134.504 39.5176C135.204 38.3132 136.14 37.3366 137.312 36.5879C138.492 35.8311 139.648 35.4526 140.779 35.4526C141.666 35.4526 142.329 35.6398 142.769 36.0142C143.208 36.3804 143.428 36.832 143.428 37.3691C143.428 37.8737 143.273 38.305 142.964 38.6631C142.736 38.9398 142.455 39.0781 142.122 39.0781C141.869 39.0781 141.658 38.9967 141.487 38.834C141.324 38.6712 141.243 38.4678 141.243 38.2236C141.243 38.069 141.271 37.9266 141.328 37.7964C141.393 37.6662 141.519 37.5116 141.707 37.3325C141.902 37.1453 142.02 37.0111 142.061 36.9297C142.101 36.8483 142.122 36.7629 142.122 36.6733C142.122 36.5024 142.044 36.36 141.89 36.2461C141.654 36.0833 141.32 36.002 140.889 36.002C140.091 36.002 139.302 36.2827 138.521 36.8442C137.739 37.4058 137.072 38.2033 136.519 39.2368C135.851 40.4901 135.518 41.7433 135.518 42.9966C135.518 43.8267 135.754 44.4858 136.226 44.9741C136.698 45.4543 137.34 45.6943 138.154 45.6943C138.781 45.6943 139.399 45.5397 140.01 45.2305C140.628 44.9131 141.32 44.3434 142.085 43.5215L142.439 43.8389ZM146.87 41.8979C146.813 42.3049 146.785 42.6426 146.785 42.9111C146.785 43.6354 147.041 44.2539 147.554 44.7666C148.066 45.2712 148.689 45.5234 149.421 45.5234C150.007 45.5234 150.569 45.4054 151.106 45.1694C151.651 44.9253 152.457 44.3923 153.523 43.5703L153.779 43.9243C151.851 45.8368 150.011 46.793 148.262 46.793C147.074 46.793 146.178 46.4186 145.576 45.6699C144.974 44.9212 144.673 44.0952 144.673 43.1919C144.673 41.9793 145.047 40.7383 145.796 39.4688C146.545 38.1992 147.485 37.2145 148.616 36.5146C149.747 35.8066 150.911 35.4526 152.107 35.4526C152.97 35.4526 153.608 35.6276 154.023 35.9775C154.438 36.3275 154.646 36.7425 154.646 37.2227C154.646 37.8981 154.377 38.5451 153.84 39.1636C153.132 39.9692 152.091 40.6203 150.715 41.1167C149.804 41.4504 148.522 41.7108 146.87 41.8979ZM146.956 41.2998C148.16 41.1615 149.141 40.9255 149.897 40.5918C150.898 40.1442 151.647 39.6112 152.144 38.9927C152.648 38.366 152.9 37.772 152.9 37.2104C152.9 36.8687 152.791 36.592 152.571 36.3804C152.359 36.1688 152.054 36.063 151.655 36.063C150.825 36.063 149.942 36.5065 149.006 37.3936C148.079 38.2725 147.395 39.5745 146.956 41.2998Z" fill="white"/>
</svg>
